<mxfile host="app.diagrams.net" agent="Mozilla/5.0 (Macintosh; Intel Mac OS X 10_15_7) AppleWebKit/537.36 (KHTML, like Gecko) Chrome/134.0.0.0 Safari/537.36" version="26.1.0">
  <diagram name="Page-1" id="3WJJGEvAMuOEJ-ZnoDfT">
    <mxGraphModel dx="1434" dy="1930" grid="1" gridSize="10" guides="1" tooltips="1" connect="1" arrows="1" fold="1" page="1" pageScale="1" pageWidth="827" pageHeight="1169" math="0" shadow="0">
      <root>
        <mxCell id="0" />
        <mxCell id="1" parent="0" />
        <mxCell id="WK9xZqE0UI8Lqpd5eqhB-17" value="" style="rounded=1;whiteSpace=wrap;html=1;fillColor=light-dark(#D4E1F5,var(--ge-dark-color, #121212));" parent="1" vertex="1">
          <mxGeometry x="181" y="-10" width="559" height="720" as="geometry" />
        </mxCell>
        <mxCell id="pE_prlQXcP9ckcgieFNt-9" value="" style="rounded=1;whiteSpace=wrap;html=1;fillColor=light-dark(#FFF4C3,var(--ge-dark-color, #121212));" vertex="1" parent="1">
          <mxGeometry x="560" y="20" width="154" height="180" as="geometry" />
        </mxCell>
        <mxCell id="pE_prlQXcP9ckcgieFNt-12" value="" style="rounded=1;whiteSpace=wrap;html=1;" vertex="1" parent="1">
          <mxGeometry x="580" y="30" width="110" height="85" as="geometry" />
        </mxCell>
        <mxCell id="TON8Vn33awzY6mw_OOAp-8" value="" style="rounded=1;whiteSpace=wrap;html=1;fillColor=light-dark(#FF9999,var(--ge-dark-color, #121212));" parent="1" vertex="1">
          <mxGeometry x="266" y="451" width="180" height="149" as="geometry" />
        </mxCell>
        <mxCell id="TON8Vn33awzY6mw_OOAp-6" value="" style="rounded=1;whiteSpace=wrap;html=1;fillColor=light-dark(#D5E8D4,var(--ge-dark-color, #121212));" parent="1" vertex="1">
          <mxGeometry x="220" y="20" width="270" height="190" as="geometry" />
        </mxCell>
        <mxCell id="WK9xZqE0UI8Lqpd5eqhB-16" value="" style="rounded=1;whiteSpace=wrap;html=1;fillColor=light-dark(#FFCC99,var(--ge-dark-color, #121212));" parent="1" vertex="1">
          <mxGeometry x="230" y="237.5" width="480" height="172.5" as="geometry" />
        </mxCell>
        <mxCell id="WK9xZqE0UI8Lqpd5eqhB-1" value="&lt;b&gt;Airflow&lt;/b&gt;" style="rounded=1;whiteSpace=wrap;html=1;fillColor=light-dark(#FFF2CC,var(--ge-dark-color, #121212));" parent="1" vertex="1">
          <mxGeometry x="250" y="30" width="100" height="50" as="geometry" />
        </mxCell>
        <mxCell id="WK9xZqE0UI8Lqpd5eqhB-2" value="&lt;b&gt;Spark&lt;/b&gt;" style="rounded=1;whiteSpace=wrap;html=1;fillColor=light-dark(#D4E1F5,var(--ge-dark-color, #121212));" parent="1" vertex="1">
          <mxGeometry x="330" y="257.5" width="100" height="45" as="geometry" />
        </mxCell>
        <mxCell id="WK9xZqE0UI8Lqpd5eqhB-3" value="&lt;b&gt;Airflow Dag&lt;/b&gt;" style="rounded=1;whiteSpace=wrap;html=1;fillColor=light-dark(#FFF2CC,var(--ge-dark-color, #121212));" parent="1" vertex="1">
          <mxGeometry x="250" y="135" width="90" height="50" as="geometry" />
        </mxCell>
        <mxCell id="WK9xZqE0UI8Lqpd5eqhB-4" value="" style="endArrow=classic;html=1;rounded=0;" parent="1" edge="1">
          <mxGeometry width="50" height="50" relative="1" as="geometry">
            <mxPoint x="300" y="90" as="sourcePoint" />
            <mxPoint x="300" y="130" as="targetPoint" />
          </mxGeometry>
        </mxCell>
        <mxCell id="WK9xZqE0UI8Lqpd5eqhB-5" value="" style="endArrow=classic;html=1;rounded=0;" parent="1" edge="1">
          <mxGeometry width="50" height="50" relative="1" as="geometry">
            <mxPoint x="348" y="210" as="sourcePoint" />
            <mxPoint x="348" y="230" as="targetPoint" />
          </mxGeometry>
        </mxCell>
        <mxCell id="WK9xZqE0UI8Lqpd5eqhB-6" value="&lt;b&gt;Data Ingestion&lt;/b&gt;" style="rounded=1;whiteSpace=wrap;html=1;fillColor=light-dark(#D4E1F5,#000000);" parent="1" vertex="1">
          <mxGeometry x="536" y="260" width="106" height="40" as="geometry" />
        </mxCell>
        <mxCell id="WK9xZqE0UI8Lqpd5eqhB-7" value="&lt;b&gt;Data Aggregation&lt;/b&gt;" style="rounded=1;whiteSpace=wrap;html=1;fillColor=light-dark(#D4E1F5,#000000);" parent="1" vertex="1">
          <mxGeometry x="536" y="340" width="106" height="40" as="geometry" />
        </mxCell>
        <mxCell id="WK9xZqE0UI8Lqpd5eqhB-8" value="" style="endArrow=classic;html=1;rounded=0;entryX=0;entryY=0.5;entryDx=0;entryDy=0;" parent="1" edge="1">
          <mxGeometry width="50" height="50" relative="1" as="geometry">
            <mxPoint x="445.65999999999997" y="279.5" as="sourcePoint" />
            <mxPoint x="516" y="280" as="targetPoint" />
          </mxGeometry>
        </mxCell>
        <mxCell id="WK9xZqE0UI8Lqpd5eqhB-11" value="&lt;b&gt;Scheduler&lt;/b&gt;" style="rounded=1;whiteSpace=wrap;html=1;fillColor=light-dark(#FFF2CC,var(--ge-dark-color, #121212));" parent="1" vertex="1">
          <mxGeometry x="390" y="135" width="86" height="45" as="geometry" />
        </mxCell>
        <mxCell id="WK9xZqE0UI8Lqpd5eqhB-13" value="" style="endArrow=classic;startArrow=classic;html=1;rounded=0;" parent="1" edge="1">
          <mxGeometry width="50" height="50" relative="1" as="geometry">
            <mxPoint x="347" y="160" as="sourcePoint" />
            <mxPoint x="387" y="160" as="targetPoint" />
          </mxGeometry>
        </mxCell>
        <mxCell id="WK9xZqE0UI8Lqpd5eqhB-14" value="" style="endArrow=classic;html=1;rounded=0;" parent="1" edge="1">
          <mxGeometry width="50" height="50" relative="1" as="geometry">
            <mxPoint x="354" y="418" as="sourcePoint" />
            <mxPoint x="354" y="447" as="targetPoint" />
          </mxGeometry>
        </mxCell>
        <mxCell id="WK9xZqE0UI8Lqpd5eqhB-15" value="&lt;b&gt;Streamlit&lt;/b&gt;" style="rounded=1;whiteSpace=wrap;html=1;fillColor=light-dark(#FFCCE6,var(--ge-dark-color, #121212));" parent="1" vertex="1">
          <mxGeometry x="296" y="540" width="106" height="40" as="geometry" />
        </mxCell>
        <mxCell id="TON8Vn33awzY6mw_OOAp-2" value="" style="shape=image;verticalLabelPosition=bottom;labelBackgroundColor=default;verticalAlign=top;aspect=fixed;imageAspect=0;image=data:image/png,iVBORw0KGgoAAAANSUhEUgAAALUAAACnCAYAAABXTR05AAABZWlDQ1BJQ0MgUHJvZmlsZQAAKJFtkE9LAlEUxc+kYZSFUBREwUCLCOwPkxXSSl1I0MLMsFo1M05qqL1mJqJVmzZ9geoTBEF72wSCi1atioJaBW1aB7Mxe92nlVo9eJzfO9x73uUCbT6VsZwbQL5gm/FoWF5dW5c9r3ChAwMYxbCqWywUiy1SCb619Tj3kITejouseXlyI2Gc3PTHt64/eioHf+tbTmfKsHTSd7qzOjNtQAoQx/ZsJviQuM+koYhPBafrfCFYq3OpVpOIR4jviH16Rk0RvxD7tSY/3cT53K7+NYOY3msUVpZJB+kOIQwDBSxBRhRJKJhDEFP0TtCe/u8L1Poi2AbDPkxkkUYGNiWEyGHIUaKMBUrVMQE/sUKJCmbEvn/vseHtnANBlb46anga6eUT0FtueCNeoLsMXD0z1VR/tis5bmtzWqlzVxFoP+b8LQl4xoDqA+eVIufVM8D1CJScT7JGZI008on1AAAAVmVYSWZNTQAqAAAACAABh2kABAAAAAEAAAAaAAAAAAADkoYABwAAABIAAABEoAIABAAAAAEAAAC1oAMABAAAAAEAAACnAAAAAEFTQ0lJAAAAU2NyZWVuc2hvdIMClJwAAAHWaVRYdFhNTDpjb20uYWRvYmUueG1wAAAAAAA8eDp4bXBtZXRhIHhtbG5zOng9ImFkb2JlOm5zOm1ldGEvIiB4OnhtcHRrPSJYTVAgQ29yZSA2LjAuMCI+CiAgIDxyZGY6UkRGIHhtbG5zOnJkZj0iaHR0cDovL3d3dy53My5vcmcvMTk5OS8wMi8yMi1yZGYtc3ludGF4LW5zIyI+CiAgICAgIDxyZGY6RGVzY3JpcHRpb24gcmRmOmFib3V0PSIiCiAgICAgICAgICAgIHhtbG5zOmV4aWY9Imh0dHA6Ly9ucy5hZG9iZS5jb20vZXhpZi8xLjAvIj4KICAgICAgICAgPGV4aWY6UGl4ZWxZRGltZW5zaW9uPjE2NzwvZXhpZjpQaXhlbFlEaW1lbnNpb24+CiAgICAgICAgIDxleGlmOlBpeGVsWERpbWVuc2lvbj4xODE8L2V4aWY6UGl4ZWxYRGltZW5zaW9uPgogICAgICAgICA8ZXhpZjpVc2VyQ29tbWVudD5TY3JlZW5zaG90PC9leGlmOlVzZXJDb21tZW50PgogICAgICA8L3JkZjpEZXNjcmlwdGlvbj4KICAgPC9yZGY6UkRGPgo8L3g6eG1wbWV0YT4KuwYPyQAAQABJREFUeAHsvVeQXNeZ5/ndmz7Le7iCBwmAIBy9p2hFipREyrVaprtnujt2duZhX3Yn9nUjZiO2YyJ292F3eicmRmqppW61HNmkJFK0IglSBL0DCG8KqCqUd1np7r25v//JShAkCyQAFUGYOkBWZt685pj/+c7nj1eh2HyZ74ELqAf8C6gt802Z7wHXA/OgngfCBdcD86C+4IZ0vkHzoJ7HwAXXA/OgvuCGdL5B86Cex8AF1wPzoL7ghnS+QfOgnsfABdcD86C+4IZ0vkHzoJ7HwAXXA/OgvuCGdL5B86Cex8AF1wPzoL7ghnS+QfH5LvhsekDOj57nfejmOhaGofn+7LTEM/75nh13nMR/ssI/Fd3ro/f70M3nvxzvAY8OnHc9Pd4dc/ehVCpZPB7/GIBPpbsFbv1XqZ0/D+hqf5zK33lKfSq9dAbniCKLyPox3wFb4HTHuFcymfzUO+r82ksni7rPA/tTu82dME+pT62f5uSsGkhPxn5oEpzIbszJQy/Cm8yD+jMa9BqAdfuP8sP6bbai41EUfej82rnzlHq2Hpv92Dz7MXu//MlHa2DUjQRU34N9QAj8pCLg1qi4rj/x9dGJ8Un3udh/mwf1Z4QAAVLCYqFQsEK+YKVy6ThIJUDOVgT+IAgskUhYKpWydDrt+G99n+enZ+ux2Y/N3ruznzt/9DR6IDYVs0PTw/bT/+e/WDBRtulU0nLxkqVioUXllHlRxcqJyJomzfpaQ1s45lsxE1o2arZUMWsjjYettWOZ/Yev/KV1LM6YlXn4p8uXp1HDC/fUeVB/RmNbaDI7VJy27T37LNczZaVMgxXDsvmVosWScUOYsYpXsUTkW+5gyfZX4jZtBcuHjdYIqMPsQbv00tDGyzmrsybAHvuManrh3XYe1J/RmKYLZgvLMatEnpUaWsy2XmNxWIrAA9ilxqr+ueJbmPItPhVZqd6zZDBlsUTF/KN5Kxw6hgrQMz9tFkDhQz9lMZvdaPMZNeG8ve08qD+roQtKls6XrRJgSok3WnzFWktGWSvGSgB7xqiSyFosmrYo1oE0OWR+GWtjJYSnLlvmyDZLhb7FikwCK1rI5IgJ4fPlU3tgHtSf2kVneEImZlkvYUk/YbEAljgCt0dHrMSXRDTsNCJRQ6ulJget2A47MroXyiy+G2rMJEiVzOq8pKVgT4C+WWx+qE51JObXs1PtqdM9r1CxloIHtcUaaJEV0mXLR5NWaQCfCIp6xct1qPoyCIat3D1rDVG9NSUE6sCCYt7K8Nx5BErP0mg/5kF9qkMw31On2lOneV5vXdyKdb5NptBy5OCJC1OWnBizbFPMplIjsCARxBfhsG7CDC1JrmnUWkbrLYl5fcILoPCwIo1ZBMwM4iPUnufPKz9ObRAuKkotPbBe8sHQ60QDyal116mftQhVXVgpwScnLKyHlUi0wWZAs716S+RTsBcNQDVrQS5jlcKYNQ232ViyYpMYGxPJjCWzKStBrWMl+GtYF36aL6fYAxcVpZYhJBaLHX+daNCYa4B7aaRBHzRWAvTS6Kanc1YpYoBJQIETdbAYMfNiaRyeQHw5iTDJ+bziAQpphMJKiYlXLvPielgQP/bJ1shTHO+L4rSLCtTZbNZR5xq1Fqhr5uu5JoQe/EIF9V0CMCbRYlSYTAHshowuFiE5undWi0jaDY5hcfQ1GgGLp+ZDULE4Kj/VEVg7BmQe1qc2Jy8qUNe6pEah9V7ziqvweS4L8qEzk1dgc6IwsgrUuiK9NJ9jqOiMzzEfgbA0bemEWaE0xbE45vRIBJtzYpZJYCqXmyo4h+Y7vnou63ih3uui4qnlV6EipyGxITUHIi3vc14AZhKfDR+tBapnCDPPyzZYJVtvQQUfDw4GUWglvQPZchhYCFWvpDK8x+FABPrYTKABN5vbOTfnzT2XbnhRUWo5ElUAcBm+VYJiDdwVABPA+85liYdoNnKYxP0kZvGkVTCTh5jJnSajoQuDC+xItsW8+oRNTzdbpQXWpKWq1w4nc+i1K1aAJQmD0OF5HtOnPjoXFagDADJwbMC2v/mqHdiz1wpTsAQYO2LxigWi3AApxCfD6BVPwhoU1PMR0vgccjjAhJ2GPw7gBeIclwZZVN5TzKF8Oeh3hWLpU53XZMO5w9Y/MAhgWywJFU6gnosq6JyznSwXcUzkWUuk6g07i6X8Rgsacuiui45tCSpltB9FCwC2ytlcUtUOGCaLabZT5KMyMTFp0/m8tbe1udXD/aAW027HxtX6ofrD5/r3ogI1o2OJMG3P73zVXn3iRUsE3TaO5TnujVoENU1Ol2wabYM1A/QS/C+CnofOOFMGeOWK5RoKthQV3DDUty4RAMayFQtFS+LTIeFTq4DYmhC2IlnwbQqPvGZAm5/eZ1PP/NpaS3ErJKTpmLJM0bdpdHVBPolPyDCWxUU22XgM7UeDNQ95XFtEyATMhIPBgVu2OmPOClgkDyCnYiBi9jIZh6Yn7O9/+APr7+m1r335q3blFVutLptGVigx+ZEBYJeCQtniTNqavHJWKnqSh1xUoJYF2peuuoSFL56wXGenTS5qgOrmITitFgfU+SBvHkYPHyoZcUEUFvCeyzDAeNQd22XldJ2VL99oY3DCMSh0iOqtJPUc/yQEVvis9yAJhUWF6A3zPoBfdX2bDXL+VDqG4xJ66KKHlRHKLimRSZHE/2OqPjA/TKAcAc2abUy0FDQ6q9XjLEqKFSZ2EmSL9ZliUv/gV7+yXz/2FL4rKRsZ/kcbGhqyO75wszXXSyVJ/Wm7n5LV89xgki4qUKMnk9IBVVncYlr2u7vN1ixiUOTA321hThLdGJa8BVaZ6AfcTRabnjJcMoAwKrbtxyxXrLPoppsshhee5QEzAx/Am8RxJ41wPgqTAmXAtVD7abzt3u+18ti4VRauNy8Vt3gTN2PyRFzv1wEIqKGHZSWYxGze1GmRX7apPibC++/YFJEy0zhGMbN4mGyKZ6dodaiuOgl75rEn7Ze/+I35rUvM6tttd99B+/sf/cQGhkfsu1+9z5pbm7WcnJ2KneJTLipQyzQd0GI4B7zfzMCgFUemLZwcAJT9VslBee0YYLzEvJGdFnYtsUQveuJE2iqLuqwBCuZDffOAP344B8wGYSVgQfLTlsrWmVfIwyPjXorRpDKQhIdO4Lw0aKnyMPgfsvTAtJXGmQCKbinCsTekLRYiTGqCjResbpz75utxgIpbZtyzpoUo/9COjDKDssxGYH+Kw/qnnRawogSY972jY/bCI0+zeqSt2LzYUpuvtWBPuw3te9t+9NCjkPLQvvfNr1ldHUIwvJKi1c4FWn025Y8/raf/5KsJr8JsXfLk3hnhWxEDgGlLlFneMWljyIYW49mPe6dX6TQP87afaK+q/mJTVqlPWR6iNJWFzcgyeKkCajhYDQS/IvxzwNJcLiUIx0oCavhmqHcJYXIsFdkElsVcymwCnXRU8phMGdicNNc3Qqh5jzqtECUtjNdb2JaxUjt1YGTkQd2Al14L55wtQKsntCppbXj6hedtT98Rm4qnrXnzdRYsWWuZa+6wzJZbmc4Z+/njT9qjv3vChaslzhFAq/4XEag9qB3UUy6cUJUSGo9iWvoNLHnwzzGALs44Bg8Zx34XFwUFWT7f07wSRXjcMax/OPQnxXr4MqBAmZkkXpjnGqi4oloQHrk7PtH1jj/2CglL5wRyKHmEv0d9F9oDnhHjvDiUGR/TBIjwEkV4e6h+OAEfOwmbk7PRKG8jnDvJ5IAFP2ulDoG6MjxhO3oO2O5g0sI13RZ0LXaTvpBeaJWVG60dkI8hmzzy+OO2ffvLVirMrUr0T2nseQnqMvpexD06+eMvyVMne2HZgFeEEpXQEeeL6KtBJ4KOllo4W9R6UHGoaCE9DWBxREI+KwDUonR4mLZTZYRKwBvBHkwD5AjdNreyFH7PchP1sI3LHM4ny1WGrVyZAPT4myB1xQBxGIe6Q/UlrPqs1QnO5Ha8pnFYUogXz+eYQrzqeX4TzHw271umwIQTu3+StkmFiKeI+6eW4LLl/unTGRXq1N9z1Hbs3GHltoWWvnQrd0IOgQWKJD+0dlt6/Y0WXbLR9g2N2MO/fsh27tvjLP80gb774KWPZ1iLM6q6LjovQa1BDPCZkFVOnz/870N9ym/V72qsTOE+NuiEXwflRV2HCi6B11yAAKmujwibSuazaDiGiUjBYIKVzwdNFUKpwhg8NNcRe4WGI2M+mgmJR0UodRan0DKgl17XUyoEHuo4YHyl8fywSSixX2YVABiGtsQt7zIEcWKAkSYfjgHqNCwIbaJOAkaJ+4RYJJPwqzD8jh2pteXj70CZ2VosoeNmwod8lloxkI/JGRSpNfcP9Vl+CtN9ZoEl2i6lnxBwI/TorCaVEs9rusRSV95p0x2LbOehHnvypedtYjJf7WwFCQvJVFRjI5yfzXJegjoBRZSHMVwv/1iXoR5BAbXZ1PQMG4G+mM488SUKKLChroBiAlTGKJGJWx0quvo4/DRGFS+CDjMCfgT1xuCi73LOd9oA+WdIN00EOBZvJoacjURreX30nWPS3crzLozD4MBCRFznoyLUccyJvPiNVwwHJnQlsCocg1qrPRG+1Hkk2XG/YDlCuyJYJQlhJ7bnxM8aRPVHBvCnqK/6Jc4E87XUnEFROofewX7LMUmyHcgXaVxkIQghk67iobkpo/ZE0K3ruNSyG661Ycz/zz/9vO3cs8dpl/Kwcw7U1Fl+L2e7nJegzuVgDwCEU3PRZ4J2Ep+JLFStIiOIfKU/8pKkLutXCM9b9jGbYFjJj43ZVP8g2o9p50QEbYYtwHDCnX2EuwSzIKZBQUftRinGxOC4xzE/z2eooQ+lRlx079Kd6Lt7FbkOtsXnHuCfwjuE04PKJeCRJVglxN7LeIGuOkH9pPG1HNQ6B2vDc/wUvK34eU3Ik7TLOUzxnADq6vpE7oHUyCeMLB5HOj2DolXw2PCgTQLOVEsrk4pJDvXXvwr1goRYOAX7RuSOrdhs4Yr1NjAyadteeoEAYdqIzFKbTjJKnW2Qne3nnUEXf/yS+oYGfJHpOEBawom+hIpMnRcBDB2f7SVkFXL4VMBSSLOgBDHJ5mZLNrXDPqOyk+AXQYXwd/ZKgAoeuIKwGApMWsWJlk0ykRKK8IaVQJVS/R3jTCD+Wi+UzyHCXcjnAC2H3EjjvDJcp3fdB+6AevMcCaiAo1SBn2YilQjAlTUyU9dm9Y2tVo+HXh3zIotpz5MQxnNna5c7JhUcEy03Pe2S4civRWrFMy0CZB71ZIllyyNggS6DvWFSYlhC+24+qspYHZQb0FfqFlpi9eVWaV5gL21/xXbtP2SJNLNVc4si/xqxIGez8PTzrzDWUA74OgAXTyP86Tu8qDqeXEazN4jlM4LViCGU+eIJMetGCD4BS2uZV4T3nKhh2AC9hDcJG3E2SuJ/Xd/IiJJMJgZfiwDnyXqTwIejrtmxCVEWlqWO87M8GX+NGD7bIWyLxVqYOIAC26Mn1gYWJcrUW9TcBGvKZFFAbjxrhZYI8GYtj2NTnPMjrq2w/BcniFGcwiLJM41VSAvTyaBREIAxmKRxmlJR/4iDLwL0FMdPu9CPWtlE7aMY/UvdCc/hNgC7TP1YALxG2joNXMV6NS8iqmexHdnzor3w4jZbs3yZJTUM3CbORC3SnjjuAWernJegLqjD6awJ2JAX0KUe6TmCzhnmAWBLa3HSQscGhXHr3d9jafw3KjDHEU5F8cVLcTpCR51EZZdEwoekeqlGBm4J3nWo8kSZsxkTR8GwAvR6+OouDDgAtwkDCsaROB52cViHWCORLFOsCCmYkuKkef0DgBygaVDb0D8vXoS6jHsqIsBD+9wMW9TP87oRKlHrCZFB/zHqkbZhrHY/f/QR85twfPJ4jlQ3sxVYlIrYA/qlvaPDrrjiCluCtbQMe3QmoK5QYQnRSepcgYWpJMkoxeoj87m0Q/nKJNmlipYhijiORijAeOQtwCK7P2avvfEa/iFftjb6QQl7QD0s2BlMrNnaeYrHzktQx6C6nuVZIqfticf+1d58ayeDt9gmsiOWIoo7SW4NT0YQhLQwBhBCfCtgL1KFRptqArSEVWUqY9a4a7ul3u4BlEdsgrx1KQJkmR02UR6zOsAeaLlV3g0c/BPWZoXkLqsfZHB/+nfopFHNiZ+AJAVF+GpA7MHbVjDqxAGFNCUVPO5sCkodHLTUS09ZOw5N/VB2P5jAdJFAgJRUygqQ67eGOBMoNYUxqNnKLOsNNmm9Q0X7+WPP4FzFMg875MHT+/iUxAt1cDZSO3ItwmgQQC39RVZX2G3t6y61lYu6bXE3FkBYrDMpcdpAzbBuIqzynkBJLj7ZQ5DVM2MYgyp8LtG3HgCPI5xa50pUpDFUgQM2Nj6NISq0voFe6xk8itB5zMr9407rkwbsrV3t1tHVaQsWLrSO1hbLsprU+6xGPFQytKaA0kqIhDhhRx9Po5yXoE6JBUBbEEMNVkbdVoYV8FAxhe0DNj3ZAWUch9I0cQqJYwQG8tNFlVErsJROQo3j48QLyiQdq7NsfZMV45N0aidsAHw0FNSHSqdjdDKArWQANUtvGnPiNJODKcO9oIoMRJz0YH4Bc4sERnn1Qd3kvioNRiXrI19K96xAgQwRLI3WhC/JeAYWabIFSyF+1GlkgSJLfGMcE3y3TTcMIpgCVJAU4u0U1XVZsaED+DM5xcvzWzwFYPKtsC9jIADqzsoSenyOr7LU0SP4a1OYhKgowIP4hNNAw8yp4tOzdaw4XBvh+1JBbmD9cCyYut6X6ggVX4B2xqftitSxZL01Ll1sPYf22//2d/+HDff2YmmEAECli/ivV+j7UH4suCrEIRYZJk4dfjKdra12/U1X2tZLN9pll23Evzxl43kmN7JSQwOsX405n6nbqbydl6BW/6pTPQYvD1+ax9EmWLHGAgS/cO0dNjV+kMHvhprk4FHRrSYX2/T4foDfiNMSg9Q3wVJZjy/DTZZftpWUBHtgk1dZlCdFWDhFxzagc8WxqR3+F7fLOFHdJUDvPVlGxYZ33RdvZ4CEPHzoMN5EUFIvzVItfSDExZNFDkoeMYCpvUOWPPS2xW691wY6WqwMzx4UcH5CPx00QBEn4YczCHgAvdzQh/8JDlT7h2zqFZygVm20cNkym04ABgJ0Y4adPjHJytEFyIfh09E+gC//6KsIv90Wm6i3evj3MitFnKXfge1UUPCRczxUj+0t7VZCKxPr77VoHfrqIhPQzZEZCdC10ykgHUsWQa1DNC8B4N3Ve4zVA9Viw2KD0Ud/jkZnAX7YANwrI1jDNpZRv04SjNx3YMDeO/hrW1T/hN1w9VV2/V032forNtCfiv4RgTj9cn6Cmn6NRCXQTiDyMcABFJulfxAnjvoe8w7tMGuBwhbHWLrHLdYMz3voLZvsXOF0t3GERP/ohKUXY+1LTcDjIrFnp1lm41YuHLN022or9e8wv3sZ7AP8rgwPKxdYex+aFsY3n4OlOYaJPBhGlYiPdCHHpEBLgMAm07rz+4C4hY0ksyEQoa2/aGjprLy/zwm23vggWhSoOLyyTU5A5BAumYiJugIULWvpKTQzPCvoJHnkEGCCckWwS543gNvqOJ6A5ArJ44CVgO+Hwwhgp7zF3IPlP4OJMyb+HTQovdmZDHA8lbCFbR3wzeg6+g9BsCd4vii32D7UpQ5nfHYfpN2ApUPLMYkHY2rx5RhmWq2CoD0JtQ/wrwnpkxgp1sIM9cIHO6K/fKlUmMDl0RHzjh22MfTiR599yV7Zv9tuuPEau+euL9qKhVXB93RhfSZtPt1nzPn5FSx/Of7FxRag/K2jo3LonlODozZ9KVprBLQII0EsRE1WZEDEguQAIJmQHA/ayGhkpqwhzT0YsHQeqojqKihgGSwMWjqAapMOLCqz9I9NQHXQbi8jH15iDFYFXbc/6pI5WinnluQwPwFfLlaC5zC4kgzhWlA3YuWDBw4SE85Lz3oBZXMr7APe2KLUBAlEpRFSJ8Bflyfh6aWSpG5QSBk5CngABmEO3xFla0I3TKpfn6Q4ZbJPSu0YYpVkLltiAP+MLtSNPK8uiapTPt0AOsQ0GXd669MbghT88wJALXZpdKjfYkO9Vmpdz72ACzp2EM6KBI/t6Kh06QjcsG3ly2+AIxJLiIYETRMUA6cwBFz6tjKMDAAjVZGLJO2qSJfdRnsWMk4rR83bu8Mmd71m+w70IYNstzuuvsv8Li45A1J9BpecXgd9FmdLnS+TB1gFlAwmr1hDyuqlD44pvzN8bIWUXgg0CXhXIl4BA+fSkXEiOcoIOCFGEhRolsc65iyUHufAo8ZltIAHTyCx+HjuxZ06TrprfECSvLiRQrxi6GrjmNKV9DGGd14i5NogNfOOlgMVXxLrCj7/SuvhLIsJBEmkWK7TtSztPC+l3B9Bk+O7U5jsY/AMZRqmRJEBgy9LJBjlfKgd5ydKSc7lmTzLr8BT4xaaQcD14eGFcA+Wp0jYmdhcf5oOOoMiStfV0WWXr1pHH8Oq7X4fIkHfMlMq3F9F93ckGyZboJYsEi5ZaaU2fNGb25mYaD+SOHHB1/t4QsrXxUM749SiCIWeWDecvGJxMsK2LLL0gqUzkTOBbd64zpYs6dQTzqicl6COocuNGUIEHnDTmGvzWPyKsAEBy1wlTaej6QihCCFqpyiO5Ys8dmWiW8qVLJ0JcHhlEST9UoagV65FoItSpCvAJB3iUhpgDEHF4L5DU6BCDVZX4jp42DiDEUetVQLQMCOsAjofqhnD4MK7vocAf5I6JiuaHAidHhPNb8OE3WLTmLJD6hQmuA5BNspUhdkQ0h4BxhJCaBGTf5Y0wBnUeB5gkRGkGHENkyrCfB4iYIZ6Dh5+ISuBViUcAC2PnruIRqUE359ggqfFBJ9BAbpoJdrtirWXo8VBZ753HywerBWGoAr+JNBpV8SMVKm1gC3BmRkMeyb9O+QcuQJXW5y6KgiyQdMUgcbjFtVDFOogJx59Re7tioKgx1h3+49CIAq2qC1rX7zneks1QHScT87Mw07j7ZwBtaxgZXhSGVRU1HFAa9YXaOR330Y6C3iyYTgBDBWZpxHygrEpy8p1rgSLwHIcy4kBF5vCZ2+K0CzYCSJS4izngczI8NLKihShiw4ASX2u3XIL+hGMcFNNM3EwEZfriGBhNc0DyGIDLAEuqwHedwp5moKCN8G2SDsRJyGkdNrgDeof2FR+BPXctI0xyTxAMY3gGuNZcbQhFQw4KQwZ01SvHj66OAmvDFWOcGeth4qPkYsvh0rNwxxdgu2QDSWBlTKHlJxGU+gjuKXg7WNMamtksvUhNwBk/V4H+JzNhX45WR/qOOKnk7lr56jP9aIWFjSWbO3Vy2zlukvoi37LvLnN6uJtrD5tbp0UXxyHoZd/TGkE2WZKk3yadjHRpJ+HBfNhUWJofzwIgCetjlZNjkfyjqSrPLEm9F/Lnm2WPPimNdNn3/nan9nG1RuZlFrezgye5wxPXUtXQJ86YEtv7/hTHfhIqbA0a9Bi/JHBIQaP5zGQxSJUoBHgpaEcsCMBZm9IoxkCWRnhJ8YyGWcZ1OKcQm0lA4j8q+VdJ5NvhJQulVx5fMzShFlVAFUqL98LnjVFhXiFAGmEhHc47cEWICTin+HQzUoBo13lhzm/Hj05tbAULEejBoclOGSAy+KlCdaVhTJksrFo4zg0AmBZEah/Ar41ja68AM8Rl2DF57AMWKSPJr5RWoUymoEAbYviG8Mk8ZbShzNZZOzwUZXJeCLzfhwtRlWY+0gHznylB6hjlZWQWVzamzQCr442VBpt04JGu2/TNbbvvZ/YyOHtll/YZrHWVYwLgcawccVoAnUmKwerjSFHxkoYsOhLSHTVB4cuc+ncZIBBlVnJS0ff4ATZgLC5ctiDPptIo6N7IAQTduMXbrCbb7iex9MGJqgsxBqm0y2fO6idzwYDoHf5Pih4U0lnnFcajZu1AE6G2wlmkAM+s/Sht04g2CBpIWDLYR8eFH8LuXQkxH9CHIoCKny1dsnSYGrgpVuWqklbVgjQCSJbYupMEjTG0KOCIRdQ4EPXJPlD36FIWv6hRAA24l4hfKZe4jf1El+bZ2LxSPy2cUmVJUHCEfn1AiZBigmWANQBuwhkYWnysEdN7C5QxnfbB/QCcAH/kAo6aF8uqqw4niK7yQuM5ydsF+/izzH6aIqmFE5FOFmg+gDohK5RB4oTc7Saa2YrAg6ro6hzBtVkhZdcZ+GtHMlWYMKq67da1wu/s7G+A5Z48wXzr4JfXrCc8YFVyo1CDJhw4uUBuaP9jJ8ultyhfwK4SiXPeoAGpEI7ygjmqXDUsgffs9ye12FbpuyWa7fat75yj3V2cn9NDAiW7nQm5XMFtWZxLamMEs0I0M6fQ1K9OudkZAbKp4pLhSbBS66WFYJZC2geWMGcUONzjl6ygiVY5jkRCxjfRb34VoJvjmBZAn2XQAdQRf0nAa/8GbSMy+ghgBlUWEOj69wLwHhQUlhoJg54hfXQuxz5nSce7yFLrzMPY3Dw4UMjTMwsxtwVloPnphj0UL7aALQAn5mlngX4zCT3lX67KLUG1Zb/d5l2qQVqm+4BeXSTlgWLZR22SLGR9EFMbq18lxs1CxfLPdoP1X+24hoEZZfVUawfhEQUUrn/JmCt9vbut51v77cD7+226d6cZRMYs/Ajh2PnAcgPyDERK1cMYc+HRYN3tHIz99CYMbFqL7EhArZHvpBoEhvBJFbfUdSmfQeh0PusgRC3q2643L791Xtt9ZLF1euoE1dV58NJqj9bk2rH1FefWxGIa2BWJQTyWpi9HPr1b7YioUR9J6+xHCyGz3UxQFQQCwBlrKCZ8PQOtQ7R2XqwDGXl9UAP7a5DR5pGY1DG8BFiAEmjnihiwpaNIyCItq4g1oXIb4QeGRUCx+uykqhGUHMVXwACiFomWe+rn/lePUY7pD1RG5yZHWrI9nNMM47rOT5akiorVJxOmFb8TCFDHeH1YYn8aWSFaeo8zgTTvaHe1IyBZoXhuTS3ymbofjxD6Qk0wVl4qI+jjxxnogJSXTlrodohLEsJ6i69tkef9Q2O2+uvvWFv73nDdh/aY0OHkQcGYYk6llpiIy6mazdSUe1Xw1qlVQGC4kHdpTqUh6Kfw3uS+lQgGJJxKvJbR3ilVpYkPCzs22WxnvfMYDeK05O2sHupbbnyDvvOPTfY6u7ljCOVov0qmmRacc6knNlVZ/KkT7hG7EaN9dBpExPi1SBU+F/MVkQBE2gHhuB9i2IDRDnpkDh+BOU2+NF1KDhR4wWY0SNUYLFGcj2v7bA0bp2QbwCWs8kmNB4d8IZLWuFPofjkAKlMQ6/ZVivWjuVOfkz4JyDDQZWR4In89uDTcfVzydAVvDtdD+UlifpEPfx4FwLrWJ64XUzpaC/keaelvDI9hpWQejTDzqC+sy5M3M2wLCzFcEpMHu2ZiPDatIg81n3othnY3hHLtDWwuRF1JBC33IZpHk+3CiyR2mmY3L0xDDVp/MdhaVp6SdQuSgvok7A1EwjLOUzU2KZIHcIzZylygBonCfwhwrbeeW+nvbvzfes50mdjU+j4YT8iNBjF7jUWbVludatW0+xGJniLlXBvDem/iHo4FqM8hJ59CPYIg1AdlFbEGv90H1cEj6xOPud7EmqP7ob9QNODN4lU2Juu3GxfvvNeu/ryzdbYIH8SiIDoBZNCq7cH9REHdSblcwe1ZnYN0GrMiy++aA8R87bvcA88La2fpYQMYFIJX9oDOwQ1E4+ZZyLULUTttnPY0vCm4cSw87gT/+v38LmEUFYH/+cBQEzfiSOjFrRzPNVmiSEGCiNNBVCKLwxwWopj3CiMkTEJAcZiZHDKwJf3jGCKHrHo4BBC4zTxgwAbs3c91Cw/BsWbhFqhbkNyw5ooWyfbYQyMmg1iADqGf8Y04PRRazEZeQATBOqabTJvuo/PTKZ6nsXgVg4OWHPfJJNtCIpGhDlOUHIu8lABosSEZcKCyVKuNGgRe8uU8jmocskam5pINjNi//Xv/1/7wQ/5DZOinHFnK2XYoiN9PSR3x+MQ6ljEAUnCaxOqvPjKbiut3mKJZWupMrsZwA7FYbD9CSiy472ZKEwaGz2KSf9NqO/b1lggBA51p8ZT7FMFPixyoXAgle84glhnQ7ddvu4qu+W6m+2Gqy63BpzLEAzQINE+JqSMPsw1Vg4Juwj+jFn6JJNytjbVjp2VvckFVgFX/HIRLYMc9PVdE7PEciltquO9WG5+8+Qf7D/95/8MIIhmkcqNJbQEzxrAMsjalkC40nKmJXi2Io3D6RaxPXJSmq1okEQ9VKrPrD0bARNqJfnI5biGssicI+emiOU4LhI/S1HtIs6ZrWgaKKqkFuco321lPlWTXKrhmXp89FqYnZO2WoR99sJ94wRIiGy2dFilfQGusaxwbK5Uwbyt7Ktil2IYo5xTEj4bBVFx2phiAhamBmAR9lvH809Y0/gA+mfUitRd7I+qmcHno5kcgh24wmqyXXHpSluzZo0txDOvlidcuEjCFs51OSuU2gEYRAjQUt2J3RCQ5BNdYYA9CRqSuik5qI7Y1PyilTbWvdZRDznzCygxGRXgm9PSlWKYmK0IWKdb3Lh/EmB0wvG58gGoi3Jg4gcW4irudd7Mfcoz7ZmtLm6izPqDLucmTDBFrshZqkLfhGI91F8ywc9aAOhJyslAraDfKIN+Bn25jz+0T4CBl2LVkIYCsFXcWMH+ANIS7IbiFjWDPfj7EqtCAmev+I4pVshR27J6ud3x1a/Y8gVMDOqurhI/nCFgoq4OfxD8sduUooz6C8ga/+OEjXadtD9O0qZPO3xWQC0KrQZpVqoBeumY03RIMKDjHBkU4GmkoqFLuFxa95WYWpWvDX6LlkjtFkc/Ky8e8XSzFeeYPtsPn3DMCaUnA6EDKhefAOoZko1MQ92ph6g81XaUzYdRloBYRrc8e+GGJwGnKLTz+mOiVzBKgAYEOHyX4UvFUzt12yw3dVR8luOfdEigrmBx1WpQwQQfiaeVlgh1KAPCsyA4NKqkLKywGkp17LHC+vhzRLjvRv091njgIBPCsy1XbbZbb7raWqDO3NZ1VW101C86otVMe7WfuC+77j/XgNbTzgqoVXE1QBQ7z+bzCVRoapxyzsWY/RUkaYFRFFrLd+DEeHpDB0QFAb7uoaUwKV8Cgma1TM9Wqp1U69LZzpjtWI36fvw3HgsGP7ifi64RIByIpX4Tpa7OS7AAQGiP/DSc1P/x++mI+mLWAuFXBicJcfJm87Bg+mgofKyMPnypwqtmL1XqOPtvsx/VBEmQIUp10fOclkUmcFbEWu6SIinWyhiEYKgYA1YD1HMRltEKrgT+sX2o5Q5b26Imu2zjequXT4tr1wd9xc3UWP7zjr5U77Ia10oNF9Uxqx3909/PCqjVGM1SUeo02oFacekCaG/NcljgnDFcMWXIkLdnEMPcirDhsdzxh0FlIuDnIEcjxIrabT7yrk49oWM/8utsX+l2Ov8kbAs/ObBqYGaKGyR9RiCUBkMsglO18VgJOBFKYpmAZy+f8CzaqMGH9tNXcgbiXAws6EcQuqTKOxmbQX/N/jAtJLMX2lMNAAaomqTS24MGRbELvNKclIgskluvYw8FavzXpc6rDPRb3RBUOhiyjZfdYuvWbcBvg7qrvnqeKIGK3nnp2yQ5ROoJg8tD9bVCp8g5qKLPInZzWc4KqDUTNUN37dplC7oWWEdnB20VG0JTaljhs6i0oiRc4nNRZ5Y6USsNtEZHFFD5OeS7C/08ST+c7PhJTp85LGFo1sKyq5S2tXIc0Kr4CD7OGG/8ZnxE6mCT0A1Xvdgcbatd8rH3kz1LbJYHeCXsJjCayB+kNI7LLITAU6DvSdv8sUd8cKDWvx8ccZ8E9gB/6Wp7RKlpP8e0YmqnBQFaYAdx1TFiosqXI8Qwkzja6wwnPg52N998E3p2eQ1yW42nXnqmXrXvfBRvLVXtsWPHbPHixY63Fn99IjvCaXNS5g7Umvn8q85L1W2mdczEkB7MwXY88rvfET5VR27j2+zSNWT4kTVLjYenjlj6krAkWc1grnHWM9w5K5i4QbE7hx6GijDw8sSDBYmJokNhIyVelP+Dhp1cdRow1cVRDtWEj6J/HxBb1e0j5Tima7/pXROJJVlmO1gQUTMUtajzsMoQtVE6tBfhCsencCmWuYVV/bEezuT8oKge+uZq5CZy3K0yfFfb3XE+6L8EYgcelmjuH/Tst2kiT4wggtSyDejH0aXXqqcLtIRIHpEPthqpwk2pqbufviLJ6KA7+ziA9c2xSfSnJqKu4JGe1IaipPh2y/vPx9AC4+36XI8SCxJODFrd8DHeR23ptatt66YNCLL8qAk3UwW11xEmd021wj1EwzxKEPEIua2/973v2vJlS123OP8dVZSiM483zx05sz9zCmoQUK2WSDDAlBStvs7jubb3aJ+9ffCg9R7rt77xSbthy5W26dLLbMmiBWyGWVX3CeQSNrJgQvk5iriPyv/BFRx+hIgAB54I4HtK3lKYxIkfZ/4jeywc6XWecdGV38KiyETAUFGRYCoKRKeHshvXNCNUyk2+Wg9qQooau6WD813v6rk6C+skwbERzkphCZXWsb3m49AeP3zIMph7K/ibBFPruH6TxTpXgZEWAM7gywezCiVwJlDp+aKI3FMfKY531i/qN50D1XfnDBwiSuZN8w/uQhc+hqMgPiiAyJasJ4qnxb0qiiTRyiUC4OSL2kTSKqEnV/86CqxnSFes95nPapm0wxH+LeqisIgunrYZE9VnB950S72VCaYNsossRt5sYTYg7KcBq2B49G2UJmn7N1//njURcBxh1S0jvMdhvbSqaeIl6HslwDna12sHDx2yX/92m73+6su2ZOECO9DTa4sXLaYf0PKgH48Ure76g46B9YFssUCoLyi1Map+O6W/cwbqACuUEo+rKNuV6yhAIp7p7ffet98++aT19Pa7pe3FP26399/eYWsvWWsr16zkfbWtWbXSGgGITwN99NMBIFauDL004JADlj/Ueni4eUOvWQSgAgwNHpmE/CGiVQgQbWBy9IaP4qnXYnGydMY6lrBstwNK9K5UqESOaAH3eD85EDNe8tPA11o/VJ2SeJ7MWwAhGj/M8w6bTwaiOFQmBpXy0dF6uFfGMIaEhGuVd75jUS+WtUV7rdK9hHS8OFa1bhaGHEV05l8HZj0ZtRYRL1phUL6jImPFwQjjsSJ4I0ySfa9Y8fBeiw0ewQUVasnY5nM4Ue15yipD24nD7LRy+zLzWle6FA5+Ch6AIGFUJaq8e6bw6yyPfK/Ig87VQ6AWkcGIosGB3YpI4BGSED4YJQ6x/31C3N6z+CACIHx8eqDT8j0Dlm/tsgL9GbJaVOjfyiArx0TOHnjwPtu6djP1Zryg+u7uDD+OtTY8OmqHDu+0XXt2286dO62np8cOHMU4Q3/3Mla/euRRVBRxu3LrFsdZiqOuQlhrDC/qq5fGQz12umXujC8SaqmZDFNohxynsGPPfnvmD8/YSy+8bMdGh60g5x6pwVgyY2g8EhKw8Dlogt9a0NFmzXRekQ595bU3MQ2vsOLitVYSJUBL4pNLI4WaK4kgkxSQodKQR6dqKuJ3UIId4UdrxEhQhrKV0LuGjR1QtYVkYerCQazJyks2VftnBsxVyswhLJAB8YZeDqke0643SngWYVw+LFMhf5QYQBKny9SLa6rW6SLWwCL58eSSkcLfQ5E2HlaxMjJAubnBopYGyzZscSq5CuyWkcCmAt9dIbOUHLDCgOBe2uMN8EzSnsV498dxDYAqF0p9WERDNkKq2gIL9FVOKRpwz0viElAElGUsf7jmgeVGIqaw+HWuxtrRQF/iXETyHZ8obB8dsYfbqnJ2RPDIzswu91peSpZD9kfLHnqHSYkwCLC93BiuBwQZk3pC7JaeU9FYQWBKrLQp4iEzSdpBzGdhYsC+862v2/IlC7gvE4X81aME046MDNvg0ID19fURuDxhBTQnU6gj87BSkfKswJYl8NdJsTq0t7WQn2SL3XD99Xbdlk0OvAJwARZIlDot1a3KGaB6zkBNVJQpMeDQ2Khtf+NV+Off2u49OLDQgBCPrgBWRDkfVKYx8SrpuTzECnQ48goNYcAAVVNrB51BRzGAeY/M+1k6g2tS+RKxg/Dd8I9MBwgNkSXcQ22WC2kewOu1iBAnPE6dZ5u82+TUwxSic1huXai/PlZ76vg7lEZ7iMuFUskjI7ariMgZUoFax/DHThL9DW8De0mkNsfKgE57IDq9McuSokwy+BgnUbmJzSkoWWWHgktZRjFVx/Gl1ivGS8oFD7DIdTXgWWVYrEAvPidRpdRTD7e9Bi2rIDQWAFdBzkOsJAmeEWMix5hYMfyYnYqCzxHZnRxJV8PlbquIW54tvrmklY6i9MFyqXVphHmPEFom8TlJKX2DItXxwCvqeVqhID4xySmkiKgGYMCEAcoY8owPezBBsGyGPCmiz7L0FgG24hB9dNzqWnkLyotRg6Nxl7ElA+HS5BJbQsuIucV1gJUqS5KgRW3Ndvsdd9jtt91uizDgJBizlIRjrj+TMmegfvnlV23Pnj2wGL2EWKGspxPjCFENymbEcleW6yV8kiRe5b9zhVqr752oAn9VkPM8nffm2++i2oNnRjAq1wNSNCAx1GcxOkF+vNPE44n/VJIZ+Rc7ig9wlco2wD9ZYJX+O8YASb8r3k0dXJoJD3J9NdNjOldhYAWeqwGLUz+3fYWexXfx5QFO+WWuBYLOzTSFl10ahyotDsppXWICyA+jwiRy3nnwunFClRTXF9LmMgMc6iU+EeCmcLJyC7bUZWI9AKbLTc31Ss8lvlQigDYIpSH0CddQaR/dtfJqO+rIsRh8rXbEivBPEW+tzUUDABWon3kpdjAxNUof0Bd6Iey6REDcVvxCHh/nBGOT5DcJ0kwPJix/IRg+k0GpDJL0XT3BCfkcrBH5/lYt7rZLlq1ymirp78VyltBsCcgNrCCqewnwSo6QS2+MCcztHTeneui4hEj5fQvsEX2QxUrsLKj83kpg8to1a8gBchnZptqZq260TgvbcwZqOUaKogY0yIlXsBaqzhRh8Gly1Snrj76rgcKYhAhZGcWpBIDT6YnpgEMsx3/3f/5f9tKhCSsuvwKPNpZtllg5yjtmnQviLPG+VgAtp0wWH6pBnBHecXiEsTmQ0mNVYBfEs4p3lHukVGURg+LQzd/jldFHQCgw6qDjuGlIzXonal11zGHCSSUjnhTPOr0c4FiqFYIVwvZI4PPxxJOp2SfEi5Or/1zD+ep6iNtoTnPMrRR6109uwDXITEJYBtVb+bEF/hjgCFi1IqLnXW49ZAAJr3q+J/DqftKCAJYP3rkPlNqTNkkgkhYHKs8Dqu8cA+KMBceZLHqng1UR+o2+lsaJzz6EKYM2pPTGc7YWF9x//73v2O2336mAHHe2mqTdFkoEC6RIaKMVg0OOQssyrPrJyqqonjjESW1WYIaqG5dKUedSF0XraLczRSZpsag2hWNcf7qFdXXuCjMEtRzOSuqYmdJIRIYaoOSLDjBU2lFOBky7wYpiyBIlHbUshs3NdfBbpCN4f5dN5HssXg8fzGAqVMrD7VMUOtQgSBtCEY8uKiMA0y8sm1ADrAhaHSQP6Y9Ll4VXX0xpuo5X7fgHzgFMJL1x7tDqaCiIJoaMQp5UirAfMfaCUX5p6CHPAchQbp8lmws5V8u67k3LFbkiXTqRK3qYniJB0T1t5pGBdlFSb6gy7qWvfKauStauSc9NOMOJTbQVIZlEZR65N6Q50W1qE0K9EDJZXcSNfnG35N7U1X2GZXAaEuok1kQaKWZItd+pa8h5FfrdCZbCtDQq4gfJaoo5ERfXcUvCJzfBV1955Qa76iq898TR8GCRAU0SUAugISxcohvrTcEGQkJ1lDjGiud+Zdw1UAqtg5mZAS/OYWJXKO4WeqcK+v1MypyBWtA6XqMTa8JgfWwFYfYpnMm1WK1Qg0A+NASeK25dna3kutM2ElDeGFmSAowchDIJZCI2ArCWducdp2My3UpXKrARCFCtCIDUvV0vuYvc52onc/xDhWsZfDdK4q9lWhMQMWvKQcojytxDYFI8pCgaqzMTC8rMBp+0hEdw4Hj/C4jit6uDVHuMKM/MCPOYGWvjCcdq5zlQHK+kKl8DBvfVSsGhj16mXCaiuq7wo77pJE0Awn85rCtoI50ngGsi6lAonhneXr/JEuosuxos10B+KxA7OXmYvB97bU1rxr50x83WiBBce5R7HitwtdTeZ77OvKkFrsx8EGHQ7WtFY5QUgk8sxy868eCpfz7h9qd+0Zydqcqrv3kX7yWWRIGwy5Z0k0il2XITRZvoGIGCAhJRHAbBpgAwwqIbAKhB9QbVe7gb8fG0iyhyhnsJtERne6JcsDyabD5UW+RE5uJYXQaqqckCjGXHZwK4+p/2A+f4AvpQjI5ArKLPqrP76gDMJy1jM7/TAM5izXH8vKaACBLHxL+7PgXkJM1JjvRbYmAf6stBu/We79qWTVeeETvgKnUW/3xkipzFJ+tR6niA7Lpf+OC7eO9Vq1ZZW3uH1Y0A6OIxDCkIG7Js8V/aAydFQa3Fh+ma6mBxg48tCafYHvUC2g1x+Ap8dVY0LG0SyJBwySeNpE5gQaBMTnLsFzughCwfocan+LTP5DQB2vWj2CFNTvUPLJT8NdxLx4/3FecKxLRFfamtObQ3DTPVkXf5d8RyQ9Y4fNQyBNzeeu16++a3HqiC/zOp/dze9HMFtfApYUIET0WVgQ5aR0ubLV+8lJjCHPuFk/bK5YYTrwlvBr/nBlCDxcAxUu5a98dRoA++nuongcH5dYv1gC2S31BIcnYPtVYDvPPSrkZbc8kSa2FPxAR5muU5FxGVoWvOieK6gD/0jwIQJBNILegixQVuBD+xF+JAXGHyK6LeEWj1OISkQjo13M4sRFfuAebE4CFLjPfbTZvW2f/8P/4tkEdbwb2rJvFzotUnrcTnCmrVygF6BozKWaEKNRJ5sXnd5VbfyhYRIyRVJH2WM/eSCDGC9XAUxw0UoyRqzT/mQnUJ1U1Ps2iSuNzSmiQSsJDyyftkbZjar1naZte0mm0h0ce3r9xoV6/oRpRj8AE9bPe5U2iDusH1hxMGNenpH01+sR6O/dAJlJm+clohBHsJhspxF5EMKD45ZNmBw9Yw3mdrViy2v/qbv7VO0oJpWxAP1aUnFvAcL587qLUMurGAYjuJng5T1MS6NWutqZtUXWMyhRPrJypNZLa0Co5l0SBJrXKcUv8pnc2AMbvckq1JQ44ODz5+VVeLdeWHrfeZX9uef/mBbUYLc8vSRbZscZcb4ONM7LkyyOoL9Qld41gzJ9gyQem76nH1tAp9JUJCP7tNh+RfQ3ujkCSVU8PWNDJgy9ny40tf+ZItuxztU4CWBwWUDGIKLjjXy+cqKArECemR+QdnVyUg9Jj8a5et7LL1y1dY354RG+/di1MNUdUsmS7ECZ5PuhKp16SNkI7Zqd80UE6SPgHgOkbRs6TN0ISIxEtqErkfNFhQKrQuyoQkYw0bGsJehtbZVLTBd3bYoXcPokufsCcf/ik5OhbYutsetPc10eBHVfe5Kg4wen5tovJe44Plr+20Pw64tFsrlAMr706YpRb6TZjj3dWLlU+7gUk5I5EEM2T1flIGSduBrj1UFivUfUlAncL9ING3wxYQ3f3lu++1267aCoXmZCdAKsPV3LWVGnxm5XOl1OqiKqR5F+hmmikAygx75023ovWQzwXUmuXQRzKXftrHQSlGdlPfwwGKRJEeKbI8EpLrFeHYG5I1NILaRtq/cOZdx8psSRywxCpHhQwZoXsRea4wo2mer/EdJqUBqRKaUs1WN1kiOhunHjwDy6gUn/3D7+3Qe29ZJ0+KTbGXoEA010WdUOsI91FaDQFdgISVcMYSGUykS6eNst6JFZvhm6v73qhS1RtVZN53Gg2+A16flFM+REC7ATgjD6QhRgyiP3DEpne8bZ1YD2+58Vq7++672LcF11PuLwFSGZ+q29rp3ud2+Vwp9Sd1jfw1Nm7abHfffoP9w7/+FitinXNv9BuWYpGjk6FOLpcz1EfLoidfZ6nmnFZCE2QGGe5Nf6DtHnmQZSARBUNZqtVBgy+KJ/N9hvQAIRa0Mh5/U7lJKyxstcWr1tiRo/iwsAtLnJRkm2+91Q6ToTPTQLowKJ0o5lyValX5y1yRnKA26K9YBReBLuBqIolKi292rIZOdlfOXg1sR44qY3ySpU76bLVfQC1jBY3BciSn+sls+qa1kZvttuvvsL/43vfIxYFLrVaAWuERsgA7AbN27Bx9nzMz+Vy3r6TlkX/9PfvtP/wv/9EOsVlPfuEmi9rXAjwNORTESfDqaMCpzwy+n8I44MZY32dqxXEugK3ASxBQK0JFoOYisZ8Y0QCJj9ec0xRwrpKEw0S2k6jmFra0qO9jM56+Q9a+YqUl122yh7a/Q/IY7iEr4txhmvpSSekshVOxFiewE9JmiDq7dszIEo4qU//qBK41lgMnFlYZUWhPgp7UOlLbyU+FlvuTZIbFjTYi4+giVrL7b77Bvvdnf4ZTYYubJzUZR2ka5LikCXViRq0TH3MufT5nQV1b2fNkOHrs94/b//3DX9hodomVFl2K3EKeCnmfOeaJQaoSXPqVgWNTIIG5NiACeq1U8PhzGgHxwjMPcIkUsdRpK406towrjpAsRj7YnS2ocCesE9/oNW2dLrFpAG/53uEjuFmip84S7a5APgFtjoqARgWr1Fj101fHevARVsNpMBziqw90TeC0als/aOeJ1ZGzFO6QTFr6xZFqWBYS4pCKyhr6+yzo3WfdBAl/7ZZr7d9+589xkMraNHr4NOyfKLP84fUSoGug1vFzuZyz7EdNyNZmm1/Agebtdw/Zb19+B3/njOXYaEiCncArmqP3WvHhr2fIjDtUxTQn6IZKkYV/r03i54EzlMzZPslxPD7bgcNuqzc/Q+6LJSzR7CagwIGh6cAGxg+QOB2/5UkCAxR5QqIXm0ClJyqoFWKuCgAWRQY9jrVwrIY+6yWWg/cPnka99aV2gFNmLXIEIzWZ9PsVPKkq5LDzCcmK5UYsS/BDI/z2t++51x68+068KgmMxd8jBgtWA67YMj1XQdPu+ScQiVmfdw4cPGdBjR+p4ErClYTVsa3x17/8gO0/MmhvDh4k37O0HxLnRcwcrN25+iQ/iOMjzUe3NLuBhzWR/wbO+BX8gX0GNw7vEAPUbbg4brnhOkstaLJ3caB/9Rh+J1m4enYcUKpaJXrJ94+yBUcdOfB4Jo7yCm5wVk5Xi7n5I9BUWQxaLipdU1nytdpKPUeNUqtc49y7WJWTYVpUVjh02V5ZoRIEBdT1DVl6tN86MkSw3P+gfeWue6yhDmIAGioYn8oIoylRdq4Tu6GgaYF7rqO+56bXPn6Xc5b9cKOkQaVjlQN6ErfSx594wn70k3+0YZIjRvCHGuhJUmGJWioSW3yfXFLdgIu6cb0ELDmj635dS5fY4tWkv9pwmXWvWG4d+O424habxKcDMm4rIdjb4T3/03Nv2fgYPDOgr7IE+HPLSMHAKluS7hXDVU2pgN3vfHcH3V/3BUoH/8rH42BUfWZKDG88p2sXGEUJZ6jhcSDXTvzgktqRD7/TNypKGh/g/hp59AWRNXFph/K4607h8klidjZtBJ3kABzaZ/FDu60F995ufEf/8t/9pd100014Rja71AWixqLQmlw1Sl19wvn199yl1OpHR2Jw7sf5vw7wXXPt1dZLdPWTz/4RypO0P/ve923JsuXExI3AKjNwDHWiToMAADzISURBVEiMZbbA9hfiNlzwAPdoIIxq4YIFRNSwtGIllNHBuY8CprS0ITDlEjxHY1O2kMiZL6xdbw/98S1AAtihbhXxzqqO+8t3Bl3O7SgSqCJH9YMDoP7MIE31cYVj7je+zABbPtP6fBzYmrx6qdTOrX775L8z5zrXZxytyP/v3He1664ClL1OJiL7QXqk6E3nCYHrP2wpWKirNm2yr3zxLvvCLde79F/Scrg2UefzhRp/Usecu5S6NtBQYRc6BRBLLIvHBo7Zf/3RPxH7+JytvOQSu/tL91sLaXjTZNMvAP6EDCmARhu9u721Aa4GTTKS8rc5Sj7juyvdeJJlNi6fayZDPkvCFbQa/YVm+9+fftUO9E0AUVYEBcC6gGBAIn2xAAsohWe9qxynyDOo/EDVJ/BWz6j+xBeXUoDjaqN+5CVQ6XdNsNMtYrnkkusTSKsVJVTQAkEFZHK0GNqj9NiYNRA03M1512y+zO795n22fN1qhF9WsRkg1yiz6nFcyD7dipwj55/TlFodrvAgZy1kxMXndS9YbH/x/e/AapTtiSeesnHS4t5y9z22FnOuksSUMaTIz1rRFAFSvAAolZTYE/GFIel3FSKk73J3jRhohRcFOChhtGMz+Zy18eGelUvtHwbZvoF7OL02CHZEmd9kBJFvNTecAaRGswrK2rg6PTKHqmUGtPoi8MofY+azO6X2x82S6k+n9VeTC58VRQFFCokjlCxeGiL6ZtwSRInXUc913QvtvhtutFtvvt5aMfMX6ZeaHtqlgJv5LnB/FglmTqs9f+LJ5yyoNc7aRyQGkAUgDZjyXwg7KxcstL/9q79kyY7s2edesGcff5yt44q2ceuVSOnkWmY3gCSUtQHHKMW+6aVrxRA4DzYiVWSBCwGsC6KF+mbxBMwMs8NsiuBQG7JNRGRvWtJuLx/ogfJTB3nmMRmokOMwXKiVwqqoj8PkcVBXv1XVb9XRcVRYH91PotCqCfeq/p/RoPBl5tLqVaf+N1KuaHKNaJ9yn23eEhNsP3GMLdxGcU4iR/Ytt99id997u61etYwVjLYgK6TgWSL6pEaVVUcBukaxT/3p596Z5yyoJeDBFDiK6gOkMhRICi0Xa0hg7/KuLvvu178OxpL23LaX7PnfP2ljw+N25313keKKsCf6WlK7FvPjEjxClIJPUwysws4E6Aki2IuEwsd9ws7KvIrwo+Tw42e7flmT9Y9OWs8IezAyURTnJ4pY9cGQVmEGFKK+lOpbDZmqwcxn/VA77E4Ez/pZ7XHkv/ouYNUMKvr1VIvb7Cg/SbQ9Dkm4i5Z69kKlc+jYW+w//g//q63bvNbqWtDcMK3VH7Kkal/wDEl/9HwB+ULgpWv9de7y1NQwhDqLZUjOBI/CczhhUAxyiYycceIfhybz9qOf/twee+opBipvS1Yvs6888KCtR8MxOjTCPcokI0wTDU2ujQYi09kS2WP5TyH9JwnP1+5bYUAUOvfzUwssO8Hv8WGbWkA09Xjanjtg9tSeozY5zs4D8OwgAP4bFgQSXbUmisKKvah1qVDDb6LoKvrNvbtv7o+ou7uPAzTQ1j357Jyt1EYVbgvU3ccqpZ/5psdVj7p761sCeaCobE79B6yNjP5ZtiTbfOvV9t3/6d/bhngz/jJMcEAPt4WgrBQSRBlxjwR9q3vXAD2NDl9yh7Qg53M5p0F9so5V8nZ1fBUIFZd48A9/+IP9/Oc/tx1sK9GxeLFtuu4a23z1VmvCh4EYfkL90WzhfVZQelo0Fy5lMIMqvjoBqxKg5ZhBiwNUbSkuY2J+pWfQfrtzvw2Oi6phhofmhVjlXOS6tCDkKWEth5dHJYajEIw68X+D3A9gSwiV07hM1LxXMydxjpCNSlAT1M0OvjuvQ3y1VbQRkfh+XSOVZGUaaqpc3Zju2a2FfWQwoJCKLMa+LY19ZFVCUpQf+mXr19mX7v6iXbFpI6kH9Bx3u4vqz3kLaqfJgMKJkguAyqh56NAh+y8//oXtObjf8giSK9eus61XXW3LupdbBitgkr0NhVwJSG5TUXgMuQxJGI1DWTVJ3EQRuvUfKhYCyiI+HrsHc/b7XQfsQE77q2BdI2dGBTZIxNaHH1eCGheYC3+uGEf4iCqQBGzRXHTJ3M6ViD1bPoy1GSrsot2V8AfqLgOTYgjBNbwS1/OdSByf2MH4NALgwIClx0esgdWsqdW3dZets9tuvZXUuuuttZEUEmhW1DYXVV597EXz97wE9YnWLeW9FhClk9ZCv+/wUTJEvW6/f+YPtmvfARIZZm395Vtsw+bN1tW9wC21Yj0yUGcRyzJUPyDlgjI/aRnWBJEnmnhb5/MAFOJQ6wiH5B3w9Y+SPX8XGxlFBfJ7QEWVgUo7CUR4vMkiB8MOJlEhsu95rQhe1cIDxWaQid8hXLgX+KTac7KjjB8CNV9Iheb04/AOylOdyA9ZnHRfHuq5JCm96gD9igUdtnH9JbYV/f2a1autE+crEX4JqZId3MRCgLzYynkJalFQAVlFwFMRGAV25W0T1dx/uNcef+oZe+aFF9mabtIy5LRbsmq1XbJ2rXUvUbR6A+wIO2JxXUSarQxUXGyNVIKyI0pL4HhLBNYixpcy3nMRab+OTni2/cCYvXXwGNs5Q6nh65VLTiyOqKszyMjTTgG83Ecv/a2W6qc4SRVrv7gc0I455xrAq10D2I+CPcerO4T5CvrFYJIukuoLv+cm6rV2xTK75oar7ZKt6yzd2WRLU12oO1kR4Gb4ufpYCbU6VuPta1W4CN7PS1DXgCxw63ONwuqzqJqo7wR7+SVIc9BHYvRfPPKwPfLoI2g5oHgInd3Lltkl69fbkuVLbQkA1y5SBZJByhgjoio2QSkRpIFJiOKR5ixHwEES56aWcpMNFZP28uCgPU9ix76jx0jlSx3q27gWARJ9dxxBUinKHLq4mQRAsQLOyV+gwufb/aalQnw1v6nelelB0unuJkc02Y6YXPJxSSL8hrBW9Z31ds1N19iDd91r65Yuo82sKEqeCXBTjo+XtocNgrRBqp4FqJ3ftIsE4tBFVM5LUIsiq9RArXcZXGJYCqdJb1WHtsMJZ/JsY/Cn0G4Mk5X/Zz952F578w12diVpuKJoUM81t7XaitWX2PrLtlg95vQGKHgW6ivKX70vajBRPfTaSchgyD2LfI8Az2HCvt492G9vHxiyoRwaGYRBUflq7gzeqZcyU8FsQ4SpM+8CXLnZZdO0OBtoZsYmrW58ylLscqvtKkppHLkQZkvUtw6txvVbNttX7/2irb1iI9mqMnA4CLbcMukET1gL+mIaf5QEWUKV5UhaGYmcYmEUqa89ci62cl6CWhRZoKsVgU9FLAnww+zNH42rhDVRWtiBMp8rBBoMjIzaC3980V58+SVyJQ84fe04VL1EwkdtsJRFgyCvva4Fi8g90s4GloAc774U0TYuQXk7wIJy+7A5MfSB2txz32hgL76/z3pwFCoDKmX89GTZE6hFpQGzso16EmoRUlsP7AZ8AJxonRhqmTjZH7U/ZDNpeNd0LLeFi7rs8ssvsw0b1pGzG09BhMQkp6N74Rom24yzVFWlSDs5XIRKiyg7nTwygra4SLMqaRJcbOW8BPWZDtKJk0HaksOHD9uBAwesp+8Yfh5DNokANjI8amPopKfRcoi/LpFz2s82usz5CihIkZI23UAWf+ihUvWK99akypFvOsc95Skodig+dAT8VU3xCYRJtyMZ58pk3wJ/LwNRa2ur2wNnAdn1m1tabVFXu61fvdw1ryYz6Is+O/0I83O+fHoPXFSgFvhqYNFnvcTKFBDyBgkcmFbicDz+Bvr7rZ/XCBmickS55DDBT7MNcQALUcDPW470Mq4o4ly8tyiydptKkVa3JrB2ksJY+m9t4CMvQbE1dXVZp1pcxq6v2vxHx7RjlaJMXH2g6EkXJPtxIM+D+tPBXDvjogJ1rdEffa9xKzoul1TprbV8K3raQ7gMyTcyCeUWKzNJUO4oFFm+JAkCfktoKZT0vRFfEfkli0oX4eubCQETny+Qy8zvnKr0mVeK71o15IIq5yr5ZnPAeZ+qLh+lzLWJ+NF6z3+fvQcuOlCLMle1JLAOshtTpJ1Q/gsHwBO0BY5dmVEdgrTqufwNJCiiW1Z2fYi0o7IC84fBJ+6ewnnV+8PTA1xxxgn05Dqmax2AATqHuZE7/UOsxofvqRvOl0/rgYsO1FrmRYFFkQViAVvUUgnJRXGrgEeBAf8rQMmkzgkoND5sxOBM/EWgspynuSG8amsMGW70HefXk/a9duj6aFG9hGwXGT/z4zygP9pLp/b9ogJ1FTgf7xgpwUSIRX1dfg1OqVHQ6o4CaD4EOpDrVMucLNZCXnuaGO5ifnc+1vqNY5o0Trxz+P0AxMJzpGgb3nVUUFapncGAVL/rhPlyRj1w7oKa5dkNOQAYx3InXaxcSRsb6q0xix56ZvDV6lOlaCcDte5xHFwOSx8Ayn1yeBYVB/xuAsAbC3TOJl27Unf5oMi982TCXcB9tDp88JQTrlNKNCZMGb4+gU9Jnr1uxuHhfdSNTezyJU04SZfcvbkNRRPsg+vnP9EjDPTso/J5946WfQZwgl25Hv7dk/bOzvdhEULbtHmj3XPrzdaCRkGlBujauzt4nv4JofwBhqI4PLd2CR4iBdrjRPfspO3Zpia77fbb7MrNG9jUCAFTowb4Nc1YK+bLCT1w7mrmnWrLt23bt9sPf/wP7NaVQ0WWtPf37LJ1+D60bNhwQjMujI+i/gkCigXWItmktr34ov3Tz/4ZtSIBCoB3nO38Nm9Ya2ksjU6IRTgNZPpnFC+EST1Xo3jOTvIylrcCPOwAuuIRPNPibK/m4YI5hbqsxNJ8IRbHgzu2BbUfeu9RHLGGhthAFA9E7dC1f98+/MFxouKftC3yDhQbA6QvxO444zads5RaApo0AQKw+FNRL/ldxNg+TgN6IRbpreXyqpzRuJqgeaG9ysXBS96EJeQKUWgVCbcCsyzm85B2XXL8zzlLqZ3hAr4yZD/EOOFH2qDMk8M9g14b2OOtuEA+OLM6k1YysjzutFoJ0Nji3canElTVL04I4o8+z5eP98A52ytSncWJeAbKTo2mWMMEFFpbJeu3C7JIo0Lb9BbXZqd80OqkbaElziexPBah1o4yz5Pnk0JgztgPeYkl4ftcXzuFipDHS2SHbdzgGaovnTDbgOh0FXcZfzBTax+SJN5rRfLZZXCtFCMyRfox7XctwUjWQb2LHVGIlhOWQLxM0pBzAmUVpoUJuqbzIrrF/ZO+mevc+a4yPI96ShHkdtySrkz3qJXZ6quqwho5n2W1URWHRDhfEPetWq/azrm1W+ldUYgV9vHW1syuM8g9UsL4o53JfFYlFd3SZe6nLi6QgdTGRdqYJNedW7GoawDgI9xnE/SVAiPEskighLDzV3oR1Qvem+tE+TUpXH2rT3BbNrv+oeri09UEV3hmKA/CmT7QLsZuO2Z3x2ofSudS1enTTs4LeHg1JG7mHh97Q5slJb3qLZmIVcY9W+epmrQlj3eh9iQn2gLtDpXBsMWAfOxOn3Zgzih1zcdZD5Sh4vh3WeIUADrDB9f6zbVPbVSd9arVxH2mi7lG+ypKR5tGSEzi9KPzUhyv3btm5nbPBKgK7VKAgHJ0KLhPe6M732auy7MZErCn/+S6iV80v5cIx5KJJKASSlsmGLgtKhgkAaHEvfTMkxWPNk3h2ee0ovC8apuOFaiH0qLpGTn8RvQqAZQyzylqlyxuKkrs8jDgB6KBE6Ddw3ieG0cmp7QherxeApXLz3e8QrJcInfofAZfHoWyZur2AneoD66TNRbk+aAvVLeyHLMUFc+F2rNS91bJEYygLxLBc0wAGB/XN+oftUX9VqQNOSLO8wQx5PCBcfXh2OQEOfwYc1dvd7eP/5kkMaebqQIzLFVcOSh4Xom+CQs8FY1OEvuD0laoPdyc04X20y9zRqmzmmEzRRRQm72LamhgRKjFH04QlrT/4AE73EPaXCxuKRpXZDDEJ7e1tdnaSy61tqZmZmsaQp13A9Hcxqbr6G1zJIJMk9ZXER9yhnfPmJk8otS1sP4QLzptFh8xqNOwLHnuPzw6TrqyQTuEq2kcIUwg1EDXcT9Fvixc2GVN9cQtprTxMPUlCkaecx73KHG/pCbHLEXupnWkO3NbR3A/n3ppcpQZuNHRKdu/f7/t3bPHJhhQ51eiFYP/S5ctsZXLllt31wLqQFsZWB9qrX9V4M7yMA4JNFWYf/C7xj3Q6oS2ZIAcJQODww48S2lTYz3R51yhjaFqiEswTqLayk/onsVNxyanAFPFDh4jmmfbC3goDrhrOGQNeBF2ca9lqm93N1tm1MEC6naeFVA16v6NnOPysrhJRiVnKQqdEwZkaU0QxMFleDyyHy+TLD9ZsP49x/hMimVQs3bNGmvFQUwp5BCRZ7nbJx+aM1DTkzypygM6qR1WREcK+bK9t3e3vfnW2/b6G6/ZsWPHHEUtQk1lIRQgtXypK+pw3Vy3br1df931tu7SNS6p4/Bo1ZrWjDVtkhRjhbyoExSX0dRL1wuktZf2XJSr6AAupG/v2GEvvfqK7dq9x8aZFEp8o2vKuJrKC0++0I24f7a1t6H/XWdXXXklu4KtIbNT1qaUA4N7y9H+ZCWDW2le+Ud0DgN6jMnz1jvv2WsE/r67cx9gHiUtGj7WPEsAcpvHU/csYVhpKPWGyy6z275wq61escLaWpjMjkLN/rQQQEQuDQOIUseeUHLkMTnad8R+/JN/tnfefIe+jOwu7vudb3/LWpsaHcVTbj9Rak1AqUbVX9JxH+zpsVeo7x9e3GY9R486QlTmfmLdqv0rIhK3Fvy9l69Yaddsudw2rltrKwiJEzgFIG1CqjC52sQ5oWrHP2pnCBmVVCaI8tFzt730R3v1tdctx6SayuO/jvFJC9cyJs83H/ya3XzdtcevP50PcwtqdZT4XPhYLYH7SNn12uuv268eeQjXzSlSg5G0kEGVzlXjEtDQCoKP3DhpCw0btWEa+sZbbzHQK+3+++7nXpiK81AVlkAZX7TkalTFgtTYD33WIKmQEc+ee+UV+/3vf29vvfceWfGVgKbKc8c8PqtQBy3VJYAyiB54ACq+6/33XQqzW26+2e65605b0b3Y+TbrtrPTHtUfvtgtmWbvvLfbHnr0Udv+ynYmBKmGaX/NL0QTTbXjkKvnKMu1Agcef/ppe+2tN23r5Rvtr//ir2zV0sWq3ezFVaRak+o+4nzmP4ucPfXcH+xfH/mtvffuTu4LdYZtUzq2b3z9G45XFRHQyXBb1Trw3ntswJ5/4WV75tlnbNfevfxGvwJ6ERrJAXEEcuUdURSP/M17jvSQcbbf3nztFVaZbvvi3XfZjYCunUnjwsiIp3SpIdyzPt4ExW0qRnQ/aSwee/Ipe+6F521gaMixGdpZWL7qctHNsJK8/fa7tmLJcruC/IhJVobTLXMHageqqnBUQBB47/3ddPSjdNw2+Ei4WSqs3WRd5iI6VR5x2nclpiWLfwKlDAlSW03g6/H6G29Zb2+/perZgQsKpongNvDUKHKuqKwG60T+egwjzf/3s1/Yyy+/bL1Hep2/hHTcETNMYVrikZ3+W2OsIqqlYFk+SujqZfn9xa9+Zfv27LZvf+sbdtWWLVDP2snuig/9UbovUaCnn3ue6x6COr/vwJEkAMAjQl3upe7m8IdVXw+Jb7CPrEhOlmCSjkDJlcH1pmtvtOWLFjvZ6EMPmfki1qbKdwNP6q1Z00/g71s7d9qPfvyPtp+dEJraOhyFrRCR08iuwQK4E2ZhqyTAyouQjrN3drxrDz/6G3vxlTcIjFBea+4HkMu4JKiflRFLMoUEwRCKrZ8dJab2OYxfO/bttYM/6HHW3e988xu2lPAzCeqQHc2zWYvEkz9se8H+9beP2huAlrtDEAhVEw6It0xq7AF2QEZYZGbJis7ffNabfcrBOQN1BMVVuluB870d79l//4d/tLeofAM8sna7kmAgAVK5o8VXiT/OEOCqzhZvJsd8pQdLEtAaMnMlLPT19WNJJF0W9y1ArT1am4FPLEFNZIiQ1U1FLMgAyV0efvhhe/ix39IxzHqtBvD1WvKFgdI0vDuRKqkMXBrHisQQFkisqImhZDQV4hDFR0cMmlaXIjGI6pxrr9zqnjHbH4H2sd89Zv/y64fsMBMwxvLq005hJ4JXlHDnIl/Yuk11nEToHR8fd7/HYAF0rupWIOJdLJE+n6xo4quuLkkmRFU87OuwDT/8yU+sb3TYOhYttKkpttEDFC2wVPfd92WeCcjg1Yv0eUzyAvV5/e037R9+/GN7GbYs1kgEPH2hGRYy8WXsitMPygXeCIUUwXDRP8hCulZg9xHaNSHHJqbsN4/9DuCX7Pvf+bZ1tbMt8CeUJ554wn758EO2D0qtCCHtYZND4Mziw6Pg5Gn6O4AQNPJ94+atdt0117s0Fp9wy5P+NGeg1gCJKu7r7bP/9tN/sVfeeofKp20EQMujTgGo0Eyo32V2+8032WJmdxrgSUNxlBjBV159k2DYV1jiBtF0KJtS2kV8M3xk+k8DfAaGQc2wL4n0FHmEihRglyZ7bKpov3ryWfvxI7+xJHxnHgGuoa2ZCcSeiXTUiiVL7PqtV9nV113NIBBhDYWUiXnf3n2mdGU79uyznChGkkQyDHJzewcJaw7bD3/2S2tb0GlL4Lkz7NhVRrBxk472aBeBN97ZBUB+ZoOk/5IDRorJMUVkuKjjpd0ddsstt9hmqH3G8ZsSjIqAZNQOHOm3Z5952vbu3u2o5NpL8edgSz2lCnFBw7MMlx8QH2lM6FzJCkzW3zz1rP3on/+F1WWMZyfIGzjm0oy11CfsXrbpu+2GLej5p7gnYWXKS8KkOEw///inv7D3dh+0WJot5ZjnUvNFZH6KEaK2BWexu2+7zVaQgqG5odW08k0xIYaYjL+Ewu7cu4sA4jhR903wwUx6Uj08+fQfrSndan/+tQcs1ZFxmbKUU6XCzUOxfYzPtu2vkO/wl6RtG7IyK0WRTZREij0SAEXsCnHjlq22detWpywQS6m8LEu6l2hROaMyZ6DWGjVByNPDD/8aqX+f02Bo5ieQzLOAr6ujw77+4ANsPHkdAmHS0oAngvKWoFDrL11vN9/4Bbt752576tln7aU/brdROjTLMj6lSUHrxG9FaAnyUMAsoG9AOlaRyvN10h5se+EFR20CZfvs6oSHn7QWhMsv3nmH3QGfvLi9k3jA6sogqqm0ZRvWXWZXXXEFAuUu+9kjj9meXe+zJLJhkZ7Fvfce2MfOYE/a97/+NXi96orgHkpbNRH/6Wc/tzGeI9VjI3WaROBJU9fb7rjTvnr3zbZixXJCvNi+jX+itCoSUPEmtfvuudfefecdfDuG7NK1l6D5WVtlVdxZH/+jtMZOOwCFf/TJx+yXDz1kxwYHUIPV0QdlayJ3SQlqd9XVV9v9998PWJNQXIFZ+gQoK9T2+W0v2j5YhyJ9LnIrxqvMmG24bL09cN+95N+73NrpMwFdbNIytDQqk7Ala3Gkego++Em8Bg/C6qQYG6kJS8hJr7/zll1xxSbb2rQJ6trI5Ed4ph8gE3ao5yiYeAQhGv6ZVcPHKix9dhlh/nYm/QPITWuWLkUQbeGa6v4yeq/KAe7xp/1nzkCthOdvQJ23bfujjY+OkYci41TE4rXWrVhnf/PXf23r165ykopUQuKLY/BSGQl+WA513hbywV2yfJUtaO0ATL+3YyPDUBn0mfC7MkBUaKyEM6njpE2QoKlzntu2jcHaD8sSc6vDFJSls7PdvvLVL9tdt99mzWT6zEBJYUQcVVMvCWjaVXflipVMgkXW2rHYfvPb39hL2//o6qLMSTkS0+jeV0Jtr97MHt1i9ODBSyzVz734sr39/g4rUB/xmzkAVY+Qc8/td9k3H/gampvqpBOLUjVtVzU0SiGsTq9Hhdl5442O7ZDQKBnhkwajBHClqXnsmSftZz/9idPOuKyt3F8TqcTkv5n7/fm3vmVLFi9yGgn1k9KPSSB+d8dOePdnUW9qbLJQZ7LBMlE2Mam/8+ffJop9NcQCQZy6lcVKoqEJeJd7QiNb9WUyi6zj/vts6YIl9o8//WcbGB6xKVgQabY1+be98kdbs3y5ZTuV1Ad2hl/ysEiPQxReQz4qM37KxZJhD5o4Y/+tb33b7rvrLltKEDLQcWyrWFcRG5Wa4H8m4P6kfnQ3P9U/Utj//umn8SwjeSGUWYp2wWj5ihX27/7qr6ybjiZO1QHdkQFRLm0TIUaSZSZGgyQINkLFv/alex2V+fHPfmbhNCo4eDuXzX+GYnNr4RzjhmfvoLV4F9WdhElRBsevQ0Hu/9J9dt+dd+F3XQe/BkugnHIImU7Icr2mnqu2rh4e7zqSxrSRY2NsbNjehy1x53HPI2gJtr283TbAImQAAdWsag5eeskmYHPkcCTPuTiDtokl9BsPfMWWkNNODs8uPzaUySVp1LN4UWXHxkqPLvYr7WQIGCrkDJcZld9nK0kAN0xCyB8B6CK6c8kcIgRipxrQwFx7w0323W9/25YtWQTLxRZxEIAickiMVGmTUxMIhdvtQM9hJz+IFUmiTVL6sj//xjdtwyWXODB7XCdhrULdA3hlqTS1mWogyks7YzyrjA5fTldSMUpQlhxUImnlkd6jTnWourssskz2A7Bwz7E6lGkredGgCQEsUr3dftNN9mcPPGgdaE5ogBu3qvqwym/o84nfZ+uPTzommjknZQ+JE3fCI0qAkyCWZsY1ocfVDqprVnRbgwQ0niZrVig1mwpAAI3VXQL4MQ5o+I8hJGO3wXdfc9U1juK4jTFBRIAhRdjQ8ihLVAlk70RTMTA87IRJqbrK8IZXbN1iX4LtaOH5SiJTB+8grDi8aECYgNpdQOFXznGK37T93JpVy+0bDz6IKo/B5EGR+ARm3Dvv7WTQeqEi6HkZgn0HDsB+DABwMRUAnXq0t7XaPfd+0bqgVBJ4dFxGD/dMZoJLx6uZyH2ltw6hvGXO00TT5ktxEsJXT+aRs5QSwIowI2vbD+mR5WOtwZPW4Jbrr7N/+/3vooYE0PymVGmaPDVBepwsUHv2H7A8QKzQtgIqx06MWl9/4H7bumkD92ES0KeqRxnCkkBYlE6/xL2kOZJFcRTW6jGI1s9/9Qun3pPWIkO/FtHTNyHcrVurxDsEbtC+UO3j/dU33sRteByvQ6WAgDDR1pXdS+0r934JPJB6jXvII1GqT1HoGlUWMRClrn2fpTs+8ZD6ZU7Kzr172QqOvMlaegBLAnQqV/JN6DJT7DnoK0sSy7mkfm0+qfwZ6mBZ4LS5kBDvVGBKrgii2tlp9m54UxlkBLxq/KCYBo09QOI0GVT27j+ICVrR4NVf6qG2d3JdK5Ei7FbMMgtwoBAFki66kZ5pre4ha6eKlj8PCS1B3W686UbbQm5n3ETcVm6iaIcxSuzDEsoFbmneC6jHAJW0BDGeq7we69audZNJdU9kqgug1IcyLMmlVJStZvZ1mhn4S8kKFVF/qiE9rUOEq9HH//iwQwKpAElzXXJLySoS7P7mL75vXa3azBQgAxJOdbdSu5iDWHB7XB4T6QvdT/zpxJp5GexeRPanNARHq6VmSYLdBYqAimWQerPKcE0eCv7PD/2r/ej/b+/co6ysrgN+mGFgZng/ZiAgMrxBQJHhFZBGiYkPCARFCokGax+rXUnTLlfX6r/9t/+kXSvtStPWrNao4JMV1KBIDJYYX6U+QAVFUHmJgLxGZnjMTH+//c03DjCDgVyy5o974M6997vfd84+++yz9z77cc7Dj6Sde3ajmqBzM151dXUwoZI0c9rM9I2516O+ZNYouexh1Jy339ka4QFKUN1rSqZZbK08bBD7nsD5PTzKbB+JNydgiTnn1LkKcj42LnylIERt48fooG7j7ixcpBJpbApHm8W5g2IZ3dn93jxpSydAiNPDh2Ng/a79WrEXYhjCPkXAz+SJ49BNh0BsmSdQ97m22uPocurUdWwXtm/fXjg8KAMx6qWVTIK5c2Yyqei4NAsgLgx1yUsN2l+1omhiVAePUfa6kQ7cr4q/6NuL4dZlEAhHaMDVHaBDSIMmuOtJpIwb3hjvcAqd0bNjzvA+Y+bM8BLGgpb+KqaZ3cDg5IETA6/vFie+ottQgVNMOOgOgiJems8dFQ9lijUBLDA8sPRrNmave+68K/NGagkCfiWCRBF9j+9NJBfsJDXss+iqJsFy1hhVWHjcGUoznVxXghYOx6IrExlaA2fl7HNyKsyGDz6CpeUA1gu4iWOo5HCSzWNSrQCGmiFXtE5aPYefcu8BcFbPJAwnDrjw3MopEycFjhXJqorMnSjCnHPnCsbQunNC7wgnHV2/KJ06kEVN4SnjXSDkyvHi7BSRoJ4n1+1BguzoUaNTD/Vr1YyWYjJpFDozkDNJ2pY8Qi27pghvTuMh7K0f7gDhEoKxALqZ0eXgdKewPJzC2uH+0kZ1qTvPqp3j+MQIgbMwmbFc4gINgkiJ7qzC5Wb1XpAqp+vG99prryGgqks6gR3bU3JVR9y16RQmPe25JxDFlYheJUwDk7kCIpg5dVpw92acFTpKStBzW0u0my2AvCY0wtM1x0XLd+R/fGrvT3NZRTqJl6/UTfUwhc1GNfvuH9+KVQlHD5NEGeZ7qWpMm1J38nMcPBztAexu21BSztoDq9O0WtSO4CYOFzgBf82oDU5qPjLBGtPWj3alx59+Or2wcWNYbTRZlrCoLznZmPowMRZhMVm+9LbY5L0RmNDUA81WewxJ3ADhl4HQLnhyTzecScNrhqeRY4YzXkhs9vuW2YCpgDanqTagX/LHiyJqW1Fst1fUrVwtl5TiLYOa1JF6EOgiIV5KkbOq0Q5CTLrjkbZrI9FOK7bldBBnRLpxTzm/yRSdZOMmTIjmZIrcBpHiWOFDxo3OHvC2cMlFfV492UF1olq0Z9tlpUB4BakrMzmpG2cnhqlmqJNavK8DFMXvl/pH27qYV+h9dc516c7vLCNGgsU3BCm8lpzTZd+yv46D0iakXdybifeqQVUwCiaCt9EnVSS9iVxii7WGtOW97ekxnCW/YZHsdsEGlSmVlDj9+/bCerE03XrTN7HB+4zMjec7MrLThO0rFSRkzXqXA0dZjxmD/MPv/B5Y+OLuVhHBdXHrjHOzmN8bauqzKVfakeIE4VA1mg1cVWql2JbE58DG9gVxT0a4SnIYZqg13ttq9fDLOSWq489pVB6dSBZ14Lwo0iXobIMbdHSK+rH9zWze2Qbt1gMIl6VIzF0gHJ1YPTjqo08vtjhzhyhXZPzoP/FyLmGrqginxd9jcnPB0xQynKAqgUP9BS78DOTaiLly9VO/jEV4M9Ij9g2kHgwhaeTQoWnZHXfg8ZtO+xArTEuvcGbx6rjzRjqqPqr6xVk2l5GqO4Yiw8NZf8/l0jlx+R7HUwQBZpzNQdct3IrRs2r68i8OjuXDD3cGMhw0uWnOUf0tW1AQPI+nzjgFOeiOHdujSa+Fkkg9kaDaIuZ87vxiz/J/iM5jR7PB50b7Jkd2Arn/NVe4RreEL5tbQdjaqVu+nl99Aa5oUdDmLHG/SmzLE0+sjtiPBrhntkhugYm2ctzZrEzA8yTzSRob7nB9D4tf1RCJXJnUFYL7HBPrmrXr0s/ufyCOFnGbBqduLHBpZ9L4Cenuu+4kkGkGZkR08xbOHoiA6C9UtIi586slVA2R1TLGcbGAfy6KqB21nJBzGPzuy8WHgx22WTqoac+tci+VqK2zAZPazp07WZ2jXsAtM3Oh8RwZAp1IvdDdVUvk2NpSPcxIfOXx1bavaP1dipPChzf976bsGfvGP+MeemNN8Ufh6tWTeAWIRdu5BORry+YtEMhlG6fgbqZyhb6KHv80B6I+9os16bO6LPIxJ+S27xlsTekr+Ajkkq2/gZTNWzYHoWtxcqFdj4n0oVUPp1WPPJb2EbWolQp2EAet6kOYMvmqdDcxHnNn1eLZ/TwW3Fq41ObFyZcV7fLn3uaYXo5ycUR9AQiGDr2C4CUi6oDcMEPNPW++9SZ7PR+9wFMd/yQh/vbFF9N+FmgiI6wKIKFf/wERuC6xGmM9DBer4szZL1Eewu38/K9e4HOmGweHh0vonu6oONhyfVWH/cSerH9uXXB+CVcu3wOTnf2zyG2GQCTqh8LlgCoVfrV+PRYSLAzUdTmKBNaI2U/rQ3fc/UfA71PPPoOa8HSqc0dWSt52/p5d0909PA0ZMjRgVf+Xa7+3bVvYm42v/hgb/IMrVxJpuDrCQbuhhjQgeXSDG2owG1Xj3h/+IF07YSx7cnMaGPZolZosTNXBQa+HvC9UxL/ZOJFh1IKjfIu3Cz13Kb9dFFE7L88tDqoENWbkcFbiAwNx3tOAfvru+9vT/+HtM2pOIrRIPGHKiUHSjCMXbfnRt5aXO/6/8PLLxDtwIi11SbDdsDa4OOpHsJLxDu73XHPFsMxcJ88AluOY+Z7f8AKi+TAtWB+cVhhp18ptL29TOERsdi3bp/pNIgyNw7Yu9VfjvauJQBvIZMLmiCeuPA0n4KcPhGWglg4WF0l6Nd/ZivMJgkFe21Q4ZULso5bl/cres+92NfspPjFDAmKhPq9kCzlNm40QMfZhCO44tvLHVz+Rfvn8hlQHjrQQRY4k7asySWiuBaoHDgyPrl5PQ31t5ZNDB9NzL2yMuJdVjz4eBK0+HR5SrD46ekoJ2rrxhq+l7//Vn+MeH0gcD2sLuHMTW6M55mam2J/Y+rhlYX0e4C0XHPdgHrk4A3eRedPRA7/H9Ysi6nZoOohYdWD4kKo09eoJDDpRWLhnzQf8BJ36vkcfxV26K8SbaxqTR0U/5ITDgYAmiMYS+jE36IM4dOAIW409m159mwlBzLUxHl3hMFX9ehODMYm44d6pCZ+73jQD7IdWD2Yw8TDioSvt1gMJ8XZa88y6dIQIM88Td6FpUrBIbX0xGuqXwaH5LGG+vuXt9Cgx4PW050GcTuFucPzJV43HmdMXILUKMoFHjCAYaiyjqVcSuzdmy2Nk+Dy+5kmsBtviiAwH21cs5KTclmKWCLM8vokPY88zUvbaF4vT/P783biJbqzUPC6jC3Z8sEfMCVk+dfXpp/evTPetfIzjPg7FBHUyRvs8LDOohtvOwEzZl2hHJ1x3OO1BTLBrnt2Qfvwf/5U2vvQqFg9CeyHU7MHGNGzI4LRsyZK0YvmydCXBYMZreNhSI69T3OYx0Iq2ZnAoY4s4+RzYdt6dBE6wzILkZNCTevF2inaqPu/SxRH1eY9/cQEY060335JG1tRgssHVCsAmdn4At/7RT/41vfQ6AekMoLHLkVUBB42gdAbKWIZ6Xh4udAQusXrdWnTGZxgwYjZAWk8Gw/iDGjjkBE12INFMZPVo8xpnTZ+eeiIy5cj8Yaf/0+nZ9evSfz/4QNp94AAToyQdOMKilcWisQxyCNDLgBtbXUbGDVt8bXoj3ffzB9N723emnn36A5NE1oUcxitSLWcwViOFgsq5qvidN+8GrAWZBcHIQXXQLVvfTQ8Qr6KEUVJp9O2CSc2k2+DIgNcETtz1VN24nns0nwWHpV5d/x2VrvRNu8w9K+5JA0mtOoPKEzZ32jAufNVDD6ZHYCAH8erCjjNzJ21Ad2FerSUuZeyYMSF99OYZqqCK+NGHH5LczKFJmF9ztWUSnuDvQcyLiCQcPIB+U4S5/kyWsmZihBxdhLjQVHq4kFXV6wyl9B8ohQBEXa1X7z7o0EfY0PDdmImem1KOK3nfp5+k1zZtwpkBYdbUBMdrxvVqaKlcHj5MRsWp9AZEsZLMk/W//nX6DI+dGoMr/ma4ez+C1pcvXZImTriKawT5Y4IqB7ER3YZaYjzGwYMcJMTEUTQfOfJZ2o7TZo8eR+zYQzH8u4+IXF9rQcYxUtpLCOmLL72SHnj8CdKadsSuSCeARbVCm+zM6dM4FjkLjIJGgrC5nKoGD47Qz/eYtHoHFftyXAN73n5nc0yKMkxvvSDAEtzBzGEcGlhW8Lo2w/2VCs8QxvnmW5sDZ0Px7pUTHORks5D5FHmd/u5JA07DPnhr//Zv/jr03N27dhE8dgRpx1QN3PdKW1GBTB0zmdiEh+gjUCH4w5bv9mU7d+zkmLw9qQ/rH9cCclmtGzIIF9xTYRB/uuKuOBWsXNs07R4nE3/TW++k1b94Kq1b/1x6f/sH4GWWkaQ8D7y8u64ptZOOF2+7wevL2LgNR45FNXCOGTUyzZ4xPZ4LieCzPlzgUjD+L2Ilz/nf/EZ6F51UQimrIEKO1Xlln0riNE6kh4gdeJWOXj93biRumrVtaUAFeZMBkfD3HzqQER2coYJzEEtRVBoJYl946+I0B1d0BQOvXUtPlDq+ZqVJ48YSmzsX89/2VAez88gKOQn0mzagNxp2OXvO7DRtIse2QYCMIzpnY2TLvPbaK+jC28Kc5em4rtJL4Dxn6k+k2hm1afH8+ag9xERTl+xW267PVqBmfWfp0rTp1U3pEG579JTgWhLwx/v2pZ/820/Tiy+/kiZNnhwLy4GKcJ5xIfsKJ4NtRrXatWt3TJ4qPKslzT8gWfZrAVsg5Zw/DfSpBDVCjv0tJll/juL4px//C4H3nH5LDLjhvt2Z3E+seQpG0TUtWbQg4l+g1tB9zR+cUTslsttdfJ9h4qoSnEJSZI4RnF0QuWuAXbv2pMMQfi/aOIH38HnSzTb+5rcwJYKoUH26E/tR1b86LSFuu5K4HmdWTEUR2wlKwYjavjDeiKv+6U/uXB5JtttIvG1Ah2xAf5MqDFP8iJX2v9/3s0CMh3Ka4mXc7dHjnOwK4VRgLpM7xOIDEVkO0u4k3teQTglY3Vf9WS6d6XMlEQd8y43z4HiH0qrVa2NV3ggnV5yWV/RkYdWQHl31WHqqYk02gDwrZ3HxpbfS/UIMtncTdb1mHhE3dswoiPb2NH7UiNgP2sVkAzq7MdgGO0kMQ1k8/v2996Z//NE/p33os24o41YHpag1FX0r0rYdO8kH3BrcsBLTo1xRF7vHzUkGvQdUBaEfJh3LbQpoGpd8+1Qhdz9xph5JBDE2lqXpJKWuWP7d9DCSbfd+0t6QTqoIbir55NNrcc70SN+efxOTzyHOFsv9SKxYuGBBqIUrMd81MskkaOES38aFv0Eq2+Y33oiFdQN91EzaTZMqMQRlxFV7v6rPM5gUb/vWwmC4pah8NNFpSibrCgCOqoK8E+ywzcDo9D2M9NcSo+z5Jspl0Boczg0fmyDOkxDcframNb/uKOnxXeGS5RB0JIdaF5y/qrqajOglpMsvjjBWY4S9ri58Glmup09O5PmEvXtUpMULF6TbFy8OndNJFDsAQYDdgKEfBFQO5znDir0OIj7GSv84unAzg1ShDdoVKq8SLBAzpk1Nf/fD78PZ0d+ZWIaWOkFcmMmw/ePCtZzXLPr4l3/2F2ncmHHByQ08sirjQtSnS50EvNxo3XgKWHO4ncvgrs1wSqpGqpRjDu0XHLajoejCcx5mitwKHPdCzbjlhhvTXUuX41xhLw76Ye5mt8peqEWYNTdsCM6aERuNuM6B+IahNi1asIgspNvidDBDGxQPuXVCog0dv1tlqlS6MCaeDRm+Z2azhK73dvxVk0OiyohATYaU7ENHXfiDXS8gp3aZACGhtxkmOat2ahpIJNhMYpsfeng1GeLHIpjecMtuWAtcYBg03pWNZ3Tlqry4qYvcV+K+ZtLENP/mG9PMWk6iJbpPvTpjBtn2Vgaex2IFrhqrIShp0IDqtOKOJWnciBq2CPif9DrxvEdZDLlqr8cSUoaDyBVaKdkrykutItIILJujkJsw1Q1L06bPiPT/4UOG8BsBPhAuPwU3c0JZ1FXzhZJc6+vXfZV0pF7pybVrcWq8RXw3ur2LPojFZ5RGEnv2XXczWytAoPWoZH2YaHPnXU/Wz9Xca+3c20IkBkZJMUqdpqaTqe9XWLQZPhdgNOMuL003z70O4v08/efP7+dkX8J5UX9KCVE8CseGe9Bmxvpzc6w+wiGD+qW7kaZXjhiZnmNB7QZDn2Ox0hqk/u5+HtqUTdgVnjKzVZBs0n9Vvx7EYF+DNF6GhMyy1N22Qhw1wxDctk3GJQPSadUIAykjl/Hk8c/Ie+T8yVh7gAOHTaXcUjDWmlVXuIWisDEqMR6SH4PhRioTx45ONaPHYeftT8dxy4KZMjhUOVzPhFQPilecV8LZBldVk+tWG7mMty+cn64eOyoi5ByQzIOXmYVERXgV/cDzQSxh0UDHBpE1w4ZF0PqwK68IxIaOzUC7kDGbQyuJC68KYBhIOOTo4Vem2+bfnBaScXP9dXOITR4QeA7zH/fpHg+zFc3ZpJ9tUzbrotVJ05cgn2uvvTqNAebeiP6jR04E7I62EYCROKFUYIK6E5SpX1OJ215O5olWhur+vV0qSNLBAW3z8NG6cGcbS1NF/Tf80Zw0HSuGuIsEh4CtJI0dNZYw3ylp3/69Yb+XI8+/eUGaPqUWJhMQZ/CKN8bIyaNePGzIUKTStDRmzGh+IZAJ6aUdOrYzY6J3c4LQzwrGpmZ4TZoze05aRorcwptuZKwGUldWrbq564zMqY6KrWSDuPehux8lU148Xj1xdPr6vOvxM+As818wCKmZTmezWRAKUgp2PIaA5yX/3PruLIf9qDfvRafeiw6oOUkOJtLkAtXVg9JQzGd6sNw7T/NVHH0s8VCCkOLTl/yBwxhIH/otA3ecLPQDIFaz266Pd6LeYBuHo1l6cmzyIFScAawDTC2yXSejItYQ2VhUcl8GQTxy9h+4k0UR3oBJqzvOIC0NprShqqfDbBj/CTtSHSb+2oAh+2kbEydPwARZid5Lm3DGOsxw5i72gJOF6FA60G8Tb7Zuez/t/fQAJ+L2SONGk8jLM05Is0ikhybWI25NcYrJc+DEMVLPXmK7guo0fviINKgvDqMLyGIzgNxhSpXI/QX9/N4HO/A0fpSOHARmpJAhxCNHjuI1krHpmyq51zWHODLmWeai6hJ2aBAVC1BwZ2Tfnn2H0vvUdxyLz5ixQ2IS9cJ4EIxZ3EkyStoIfudzgUrBiDqHp5WQ2xB5lmFCj/lvAqmqh0RjnxSOmpNETKT0cFNu75RzWX5ngvZmV1vUod5n9FkZhC1TqD+pjo26wyDIZW1TYs1MiuAX7uLA5G1p7pKoQyJYb3sF+EwQiBBY2JZB/vZNp0LXPLzSe+BiOV5sW4DkpiLAzWLKVDPyYqfjnuxCPvYBLJciH5LnJahAoOsK+4czpCvrimxXU54iflpVkA7kNZ/zTjsSlJVQn7uWmrRggH8ETvFLeH5VSahDvOSZQi4qxY1Fz6UL7SBw4YapRJtWz1eTaNjDKLqkq990M6WbKmfAr94iyy9gKThRC1s+gPl7CZ7DUBP8jX+NdMTtySxyHZ0IOTEplrwH2gCJmt/AzEWU04jQTLfHwsGgijPw29K8iyIQaJVOOl4x92ijyb2wW5GrU4GJBqEHt+5IPDJx7GNAKJzcZzyEYlzVKmKwQy9u0wHud9GobTg2buRpTWnCqBtbk2Fk5LT0WxOjv6l/Zp+UbuqwEAjwReO0qUfP3VYrcd+fgDOqZsVGjNTZbrHj7L8RIbvRrh7XUPQgPSa8GRP8Fww5uOMQOZc4q+ho9Nt6g9hb2nALC2Nl3HzIRbz9MJbbSVHCkWLiVIRH5g6A2wfxF2uHdoG8tIuXhagFJSdoP3fRHAByHBw7nbljs0Fy4xeJ2hmfIU6kWSSVDgYkfm//TyNxCdbDVImXmSqOn3pioxkXwWEgYhcsEFfsA8fvbnflyj+I1JH0FaVlZNtrzg5RuYNjmz6jeuPuT5V46OI3G88Lt/g15pWE2TK5nQjZ+eTgh7oiPpzfYvB5xmtRPz3ymQx/OSeFsCVuKnbno2iA9oTDCaJjqN3C/cZ3RPwFxNyKJ4kWtJNQF/2SIG3fXsQkcu0C7F6ztHJxCDuXSLG2ov6QijzpmiB2lmrFKWDyrLj2ZX8LWS4bUQtkK2E7EA4iA9QoMsPmpcWD0iL2JWqJ24EMywhIiz0/vOciyikGQ3GoOa8MuSd5hw2WwTGLO8SmhEK7TrCMcLwAvBKPXBlYXdACaqgSHcU1xGKNeyXmuNkH/O679fDG/yhOoCx4StOgW7Blk02cSDKZhJKeuEA5aZIydWhF0GJQwo1htfE3+qGqFGeae7PN8lioa9KaIPBWzwkElSbVtlPk+qpgOVH7gOMBWMAGoeWP8TknYNsMH4JSlvuNxrQOx07VUT3aEtssyDBQsWRdp3H0dCWhwefdt0Vgs7gPf+drPFW4P5eVqNsDU2S3ckM+5x2KCUBn/Z5Phow7tVdLx9ccrJyzhQu3pT71wbbtWsNZ3wXMkRIC/kvglpwDx5dz/pz1vL+1PN763uZ+6Tzv1xdWovyG/MH8e5t7hcXL/Mnx8UX/xFb2e/bp7C9OJNvqqAQ8LTjP7xHOaCujz/zyWe95PwIe7hfnfg4429yZQ5fd33Zs+XwBuNpUcUkf/+BEfUlQFh8qYuAiMHCB+XgRtRRvLWKgE2GgSNSdaDCKoBQGA0WiLgwei7V0IgwUiboTDUYRlMJgoEjUhcFjsZZOhIEiUXeiwSiCUhgMFIm6MHgs1tKJMFAk6k40GEVQCoOBIlEXBo/FWjoRBopE3YkGowhKYTBQJOrC4LFYSyfCQJGoO9FgFEEpDAaKRF0YPBZr6UQYKBJ1JxqMIiiFwUCRqAuDx2ItnQgD/w8CGnn+oS9NjgAAAABJRU5ErkJggg==;" parent="1" vertex="1">
          <mxGeometry x="430" y="630" width="75.86" height="70" as="geometry" />
        </mxCell>
        <mxCell id="TON8Vn33awzY6mw_OOAp-3" value="" style="shape=image;verticalLabelPosition=bottom;labelBackgroundColor=default;verticalAlign=top;aspect=fixed;imageAspect=0;image=data:image/png,iVBORw0KGgoAAAANSUhEUgAAAW8AAACmCAYAAAAVrA7cAAABZWlDQ1BJQ0MgUHJvZmlsZQAAKJFtkE9LAlEUxc+kYZSFUBREwUCLCOwPkxXSSl1I0MLMsFo1M05qqL1mJqJVmzZ9geoTBEF72wSCi1atioJaBW1aB7Mxe92nlVo9eJzfO9x73uUCbT6VsZwbQL5gm/FoWF5dW5c9r3ChAwMYxbCqWywUiy1SCb619Tj3kITejouseXlyI2Gc3PTHt64/eioHf+tbTmfKsHTSd7qzOjNtQAoQx/ZsJviQuM+koYhPBafrfCFYq3OpVpOIR4jviH16Rk0RvxD7tSY/3cT53K7+NYOY3msUVpZJB+kOIQwDBSxBRhRJKJhDEFP0TtCe/u8L1Poi2AbDPkxkkUYGNiWEyGHIUaKMBUrVMQE/sUKJCmbEvn/vseHtnANBlb46anga6eUT0FtueCNeoLsMXD0z1VR/tis5bmtzWqlzVxFoP+b8LQl4xoDqA+eVIufVM8D1CJScT7JGZI008on1AAAAVmVYSWZNTQAqAAAACAABh2kABAAAAAEAAAAaAAAAAAADkoYABwAAABIAAABEoAIABAAAAAEAAAFvoAMABAAAAAEAAACmAAAAAEFTQ0lJAAAAU2NyZWVuc2hvdLoqWbQAAAHWaVRYdFhNTDpjb20uYWRvYmUueG1wAAAAAAA8eDp4bXBtZXRhIHhtbG5zOng9ImFkb2JlOm5zOm1ldGEvIiB4OnhtcHRrPSJYTVAgQ29yZSA2LjAuMCI+CiAgIDxyZGY6UkRGIHhtbG5zOnJkZj0iaHR0cDovL3d3dy53My5vcmcvMTk5OS8wMi8yMi1yZGYtc3ludGF4LW5zIyI+CiAgICAgIDxyZGY6RGVzY3JpcHRpb24gcmRmOmFib3V0PSIiCiAgICAgICAgICAgIHhtbG5zOmV4aWY9Imh0dHA6Ly9ucy5hZG9iZS5jb20vZXhpZi8xLjAvIj4KICAgICAgICAgPGV4aWY6UGl4ZWxZRGltZW5zaW9uPjE2NjwvZXhpZjpQaXhlbFlEaW1lbnNpb24+CiAgICAgICAgIDxleGlmOlBpeGVsWERpbWVuc2lvbj4zNjc8L2V4aWY6UGl4ZWxYRGltZW5zaW9uPgogICAgICAgICA8ZXhpZjpVc2VyQ29tbWVudD5TY3JlZW5zaG90PC9leGlmOlVzZXJDb21tZW50PgogICAgICA8L3JkZjpEZXNjcmlwdGlvbj4KICAgPC9yZGY6UkRGPgo8L3g6eG1wbWV0YT4KdNAVKAAAQABJREFUeAHsnQdgFNXWx082nSQQQu8JRToICIqiNLui2MXey7OXZ+/YsJfP+iwoYi+IYkFFUBRFwUrvvYUSIL3sd34Dg8NkdrO72Q27ca4uM5lyy5l7//fc025ceXm51+PxiJtcCrgUcCngUiB2KOCJi4uLndq6NXUp4FLApYBLAYMCLni7HcGlgEsBlwIxSAFXXhKDH82tsksBlwIuBTxer9elgksBlwIuBVwKxBgFPBUVFTFWZbe6LgVcCrgUcCngyrzdPuBSwKWAS4EYpIAL3jH40dwquxRwKeBSwAVvtw+4FHAp4FIgBingKixj8KO5VXYp4FLApYCrsHT7gEsBlwIuBWKQAq7YJAY/mltllwIuBVwKuODt9gGXAi4FXArEIAVc8I7Bj+ZW2aWASwGXAq7C0u0DLgVcCrgUiEEKuArLGPxobpVdCrgUcCngBqZy+4BLAZcCLgVikAK6D4OL3zH43dwquxRwKfAvp4CrsPyXdwC3+S4FXArEJgVcmXdsfje31i4FXAr8yynggve/vAO4zXcp4FIgNingCrxj87u5tXYp4FLgX06BON1Jx91K51/eCdzmuxRwKRB7FHA579j7Zm6NXQq4FHApIAlsg2Y1F4QR51p5eblxNLZJ02tc51qZ/jjqBYmLizPe5f34hATjPE6JynX9Z8d9jnrffJajcd8lfkxTgP5g9pX4+Hj3m8b013QrH4sUqATeC2bPltnTp0vBkqVSnJsrGzdtklQAu7RMAbtC4nXQSoUCN63VfzjzeuKkXI9xegTE4xMTJSE5WRLq1JHEunUlMTNTkjLrSXI9/enfqSkpkqr36uh5Slqa1K9fX5L0ebVb3DEBKNhbJ5RYJGxtrnNZWZksXb5cfv7jd6nQHjDimOGSoADuJpcCLgVqjgIJ1qLgqJ8eNUoO/maKdCkukQzF6Tj9NdBfsgJrVcNT4V1KdTCX6LFYf4UK7oUcFdS36y9fz/MU/IsSE6QwPU0KG2TJugYNJK1xI0lXYG/csqU0bdtOmrVuJQ0aNZIkBfnEpCTjl6ATgsm1m0fNzk01TIHS0lL5/uef5Jn335X1XdtL/Mo1MrDvvtKqRQuX+67hb+EW9++mQIKmXRRg+du+c2ep9+1U6VahnLR5Z9eJecH5mKSXk/StNPO2gr7+L8qW6884M+5UKOdWVpgn5bl5CvRLlHsT2aaTw+YEj2xKTpJZCtRbFeALMutKUatWUtSiuSRlZUnr1q2lXceO0q59e2nYsKGRl/tPzVGguLhYXh0zRsZvy5X8EcMkoV6GlP/wi8xbMF9aNGsm9B83uRRwKVAzFPgHuXeWd/oFF8j9X30tHf6YI03/wduQa+OE+wxxY5hr/nX0nGLqK0feqqRcvCWF4o0rFLj4ovWbpXDhcoNzB9w3pSTJMuXQf8tIk5L0dEnKyZbkvTpIfQX4pk2bSsvsbGnSpIkkKvi7KXwUQLZdWFgor77ztry3bYPIwH7iyUjXD6f6kTqpsmbdOkP+Hb4S3ZxcCrgUqIoClWTe9ZXDPfbmm+TZK6+W6xU864YBwKuqhAnw5hE0Z1ZJ0ZNM5di9cO6aKkrKxLu1QHRRYIhjts74U7bGe2Sj/uZm1JEvFcC3qyimdZfO0n3AAGMVka5y9XQFeleptoOGofxbXFIir7/7jrydu1LiDx8kcSnJhkIa8Pbqym316vWGcjuUvN13XAq4FAiNAnEqw9TxtzsDXlRUJFM//1xm3XannLUmVzI0713AGlo5EXuLuYVfqf5KtJL5+lubEC/rUlNkvSpDt7RtI95OHaWVilv2VkBvpnL1ZJWjI0N3U9UUALg/+vwzeWnxHCkdtK94VFehwu0dL6pVUtHvs2TfmfNl1N33SLIqnd3kUsClQM1QYHfU3llmiioKDzziCMkvKJAxDz4kZwDgamESjUbhwAg/YCNZURwla1ND/JIv5Xn5UqJcYZ7KZWeqPH1MvXTxqJil63HDpfPee0u9xo2l6U5ZrWu+uPPjWw4osCf/NE1e/muGlB45WIFbRSU7cdt4TEE8oVGWYV20C9At77unLgVcCkSOArspLK3FJCuAH33qqTJJzfhuv/IquW1zvjSGxY2RBMYwM/Gro/U+qrRCjszdKmW5M2T7tBnyVpJHPmzaSE6/6CIZfuKJgrgonvC4JlcZI+2MVDWRc//w88/y1NRJUnrcYeJRRbJjSkgUFJmIUNzkUsClQM1RwC8zDZgNOuQQOfn552R0p7YyX5+O5SEKoCMsydRGXFRcIR8sXy9dRj4o7x1ymDxy5ZXy3ddfy7Zt2/71yjccs36ZOVOenvKV5A/aT+KS/IiYsPHHactNLgVcCtQoBeLvuOOOu3yKDJQLRdHXUq05UtWE8JtFC6TB+vVS33TSqdGqhq8wQJxZK0V/zcsqpMfWfGkzZ75Mm/il/Pj7b1KiCrkMdSxi9fFvcxYCiP+a9beM+uAdWT+or3iaqEkmKxIfqaKgUBrNWihHHHyI2HUnPl5xL7sUcCkQBgoEFBIW5V7v/faTYx9+SD4esJ/8mZwgZYqAscyFm7QDlpJ0yd+qrFzO3ZIvJ038VtZdda38TznxX6dMkYL8/H8NJ07ogyXLlskj77wpaw7sI56mjf0Ct0lDV9S0ixLuiUuBGqOAwXkHwl3yTKY6xmT36yvfrFsjJcuWSxPlWrHXhpON9UQbaEs9nZE6F5VIoyXLZIaC999rV0uKKjbra9trs2dnuYpKlq5YLg++PlrmdmsnyZ3bK0EMa3y/n7Yiv0Cazlsqhw8d6nLefinl3nQpEF4KeIJZ6gLgLXNy5ISR98i04UfJd6lJUlQbkNtGU7jxjur2edbajdLzlTHyxiWXyuRPP621XDjKyXXqaPPUO2/J7K45ktq7e2AcN3QrJ7BZ1SBvI7H7p0sBlwLVpIBvYaaPjOE+m6gzzHm33y6zTj9ZxqelSJGPZ2P9MpC0t+rirluwTFZde4O89OCDsmb16lhvVqX6b9y4UR4e+7rMbNNYkrt3rnTf7wUVtSSh0HStdPySyb3pUiDcFAhI5m0vFABvpKKE8264Qbadd5Z8VLeObLc/VEv+ZmGRqQraE/K2S9fRb8gnd94li+bPrxVycDjuXAXukc89I9PrJktir64qKgluPvdqtMlEdc6phQuwWtKD3WbUVgp4QjXzAsCxjR5xzTVSeNkl8mx6siFCqQ1KTKePnaoNO7CgRA6YMFHGqjJz7l9/xbRLOOaARSXF8vjrr8pvXVpL0oH9ApJxV6KNBhlLVW9WN7kUcClQsxTQENqh80y8m6GxQ0668AJpct3V8k79DClTu9/aCuA4/HQoLpWT1CX8i5tukdl//CEVMWjjDHDna6Cph19+SaY2rivxXTupATytCzLxoUtKJb1OmqHMDfJt93GXAi4FqkGBoBSWTuUA4JlqE336JZdI+g3XyZjMNMmv5QDeTt3vD/n1N/ny3vtk+dKlMcWBIyrJ27ZVnlSrkm/qJopnH1VOaiyY0JKit8Z9r5eh0W+qwQSEVrb7lkuBfzcFghNw+qEVQYmOP/dcyX54lLzZoK4RKMrP4zF9C6jrWOaV/b77UUaNHCm5uuNQrCQ2U3j2zbEyEeDu2yM0UYm1sRq4KqtuPVfmbaWJe+5SoAYoEJLC0le9cOYZdNRR0u7uu+T1Vk2kIHSJjK8iouY6s14vtUTp/NUk+b8H7pfl6twS7Wn79u3y6CsvybcZulVd727VB25tsEc57/q68qqO+C3a6ebWz6VANFLAU6KcUzgT25YNPv446TTybnm1ZRPZqgBeW2XgRDI8pbBMFn/8idz53+vlT3WtD1UBHM5vYM8LUUm+eoq++O7b8lW6R8r7qKgkFBl3pYz1QmGRZKni2gVvO3Hcv10KRJYCnkhsXQWA73fYYdL7oQflzbatZavKwNnqrDam+tqo4wqKpPG61fLKXbfLpIkTpbS0JGpMCQHuQo3P/qI64IyvKBAvDjjhAG7jY+pOOgrejXS/0ZoEb3MyWq0292vWqLevMiBcc5NLgX8TBTyR2jIMGXh/dZnueOdtMrZDtqzTeNq1MfYc8u99SyokeW2unJCVIX+OeUW+Gj9eCjUW+p4GFMrP27pVXn3/Pfm4KE/iBuyjgVz8RAgMtucrXnqLimtcbELkxyeffFIOUwbh+OOPl681GiQWNG5yKfBvokDYFJZORIvXHXqGqgy8530jlQNvJau1tNrIHynfKV1044f5G7fIxS0byaK3x8jEcR8ZAO5El5q6VqDmgO9+NkHGrlsmcUP3V6uSEMwB/VVWJ4ckNukIIAaKv2yCvbdo0SJ5//33ZcuWLQbn/dO0n6JSXBVsu9znXQoEQ4GwKiydCmY5vf+BB0r/++6VcT27yOJaKAOH++6qQbq+W7ZKNunGBGdlN5eCzz+W0U89IZs3b3YiS8SvsWHw6x+8L2+vXy5JRwwOi3KycqW9UjfOU6OWJugUfv/9d8nLy9tVnVTdBNlNLgX+bRTwGLugRLjVWKH0HzhQ9rnlZvlAAXxOLZOB63wk9ZULbaIihDLlRJM0gNewZo2k6ew/5NkHHzAsUWpKhEI5WJW8qZz/BxtXScWQ/SXO1y441fzucdrWBvGJNQre7K/67bffSpl6dpqpXj01VaxlduZMUhNVf/Lmm28apqg11X9MmrrH6KdARBSWTs0meuG+Bx0khz94v7zXvaPMUxFKbZKB1/PGSeq2fMlTj0MGWqJOUAc3bSADNq6W1x5/xHDmibQlCuWWqB33e5+Ml1cW/C1lg/vv2Ond6YOE45rKwBon1lxcE9q3fPlymTt37i4ZN6BdV718axt4I8P/6KOP5IEHHpDxqkOxTlbh+HRuHrFPAU+SWobUVEI52r13bzlKRSjj9+kp8zQI0j/8U03VIjLloAZsohs6rMzbtqsAOPDeWXXloO2b5aP/e1IDWs2LmGwWYCtSkc2bKip5bclcSRx+mMQhTogUR6rlaWOkfpIaTEaqjF2U3HGCg9HHH38smzZt2nWHMMVpabXPPZ/vCWCjnP3pp58M+f6uRrsnLgWUAhFVWDpRGA68n+7Kc8T998kbyoHPUSuU2mAnACG7akNWbM4TlSbsSokKbH0b1JNB+Zvlwycfj1hAK8Rfn375hbw0+zfxHj00ssBN6xRcSpYsl4zklBoRm8CJzpkzR95++23DNNAkcKJugJyi29XVxmRukrJUQzDEkhdvbfwW0dimiCssnRodp9xSz733lotffEHG79db/vBY0M7phRi4Bnj38Hpkq+4sUw5Xaknc61g3XU5MrJBvXnxWZk6fbrlb/VPEMe999KE88dP3knDiUeKpCQWeNtG7JU+atWxZIyILuO7/+7//MzhQuFISopJENX1MTa2dCkvTjHft2rV7TPFd/d7p5hApCniwStgTCa4iu21bGTFqlEw+ZLD8Go/aL3YTtSdsbH5hiRRojOvd4XuHZKF5arIcEl8uP7/2svyoW6yFQwaOg8pb770noxfOVuA+UoG7Ts0Q0avLjJVrpWXz5hEHb4D7k08+kSlKMzhwVm+muI9zfrEm86ZN/PwlfCVIjNENGzaE3W/AtY33R/3ov6eGIGF02giyvQB4u732khEaG+T54uvE+8PP0qdUt9UKMp9oerxEOe8ClVVmSmVdgsbflTYK4EdoPJB3X3pOSstK5YCDBgrWOKGkUi3ns68myv9m/SZyzMHiUe6+RmQYWlkvsqFVa6RlixYRBU64bMQGjz76qAFieATvv//+gncl9t5Vpa3qpLR48WKZPXu2Ef2yc+fO0lg3Eqmjk1ywgE9dgn3HrB/vMtEuWLBAvvjiC/n555+Nv7GUOfzww2XYsGGG7N4UlVAOsnwSIItpZHXKJx/KX79+vaE3+OWXXwx5OqEN9tlnH8PhqVWrVrptaagRJinBTTVJgT0K3jQUB49mrVvL5U8/Je/ccaeUffal9NOQq/F21rUmqRJyWeqwUlgsheWqhqX+DosJALypmu6dkpUu48aMFnZsP3DgIEnayWUFWjTKrE/UAeeZGT+JDBsqnsy6O9j7QDOo7nNa7wpVzkbaNR6F3RNPPGE44wBoAMw555xjXKMJXDMBz9okAA/A5t1ff/3ViO3Cc4DV3iqyO/3006Vv375icrfWdzk3wZYJYtKkSQboQXMAlRDI/fr1kx49evh835ofeQG+r7zyirzzzjuG/Bqum+vUCSCfrqK0++67zxABme2hbrSP55xMeqmPyT3DhPGsU+J9zEfHjBljlL9q1SqD6+ddypo8ebIB6DfeeKMxMe5Jhs6p/u41Zwok+Prgzo9H5iodqLEuv09TDvx1NbGL/+xr6aM7uMdrp4uppNVNUZFJqW7K69X/4pzQWxtkAHhKsgzX9r356v8kQTfw7a9mlKYooKo2w0FN+WGqPPvrNCnbE8CtFcQtvlnDRhHdMR6Ae+655+Srr74yQArgvOqqq6Rdu3a7yqXv2LlFQAnA5lk4dBPgoGuBhi0AvKZNmyannnqqXHrppQL3a008j0XLSy+9ZChI8eTkGiDIeKG8prqP60gNBzxo0KBddbHmYZ7zDtzu008/bQAndurWRL7UCSsawPruu+/epYC1totvTl4k3qFOiJL+0h2dmEwIE9CpUyfHiQyxy+OPPy5vvPGGsXohD/LmR57U6e+//5Z77rnH0CuQTzTgAvV0k28KRI2Egs7SUJezF2sn++aoQ+SHxKipmm/qOdwpVY60bOcgc7i96xI8UjPdPuyi5g3l86cfkx++/37X4Nz1kMMJg23qT9Pk9g/fldLhh4qnvgKPD47L4fWwXYpT8O6RnRO2/Jwy+v6772Xs2LG7xCWnnHKKDB8+3JjkTHAxQcj6PkB3//33VwJunuE9aMimyy+//LIBqnauFrD7z3/+Y0wcPIdugnd4lx9/r1y5Uq699loDQP3pLgBGABngNIGbPBDbpKenG/lRL7hoOHzs2Ek8Y64KKJs2kThfsWKFHHvssXK7bgIOJ//iiy/KJboZCnXlvjUxAd57770G123qt6DZoYceKhdeeKE0a9bMeJz3lixZYtSBurgp+ingYVkaTamOcleX6cBbcs4Z8nVqUkzZgQPIDXYfO1WSNl13sbksp4X8/sZomTZ16m5cov1lQOLLbyfJo999I8lnnSCejB0yUftzNfF3nMrtu7XrEJGi4CzhKO+6+y5D3AB3Dbd92WWX7eIWeYYEyHHfTAAPTi2YFVqBDFEAgIUYpbf6GqDkBLQRJfAzlYcA2LnnnmuIMXgfS5YjjjjC4Ejfffdd+eyzzwwul/wQhcCt2ssy60Ker7/+uuERyrejroh9qAOcP6sDJhBAnMTzcOFmsq7EqCttQ1Z90UUXGQButo8joH/XXTvoZb4PjQB3uHreh04dOnQw4sJgufPf//7XaHu3bhrbXRP5oxg1aWvm4x6jkwJ7XOZtJwsdPLNBAzn22mvkTYQP73wgB27Nl2QFRcAxmhO4bWxAEQSAG4CvjlLHKQP98v89YXBkPXr12g2QaDMDa9qMGfKsmgNuH7Jfzcu4rYSHu9ueL+3b9rReDcs5QITIAjEDHCZ/A3j8jXwdOqCEJD45CW521qxZhiwbLhLg+V5XMXCZJrgBWu3btzfArbmK57p37y4333yzAYS8/9Zbb8mQIUOM/BGVAJDkgzgFscqZZ565yxGIsgFt7vNDfMFkASianDL1omzEJXDcADL9Gnn7TTfdJEceeaQxCXFtP/V5QPaO3Jv7ppKSPEyZN+XQ3j90z1S4bdPDFHCnbQAzkwMTwsKFC6VPnz5G+QA6KxfepT7kh3IUznvdunUGpw6wo0QlkR805L6bop8CCdHo4GB0dB2o5+gAG6MdquD1sXLotkJJiQEA36aDyaNy+2ASjzdWe+XLNSLhy88/I/VuulVaZ2fvGkQoNX/+babcO/59KT5qiHgaZcFyBlNEWJ/1KpjEr8mV9B47OMZwZQ7AAHQAKPFLTHHE0CFDDTvnKZOnyJKlSwwZOMDE8wT+evDBB413ALaePXsayk3umQkRxcUXX2xMAlyDi+dvrFDgNE1rFPodnDXlwlkjEz/vvPN2yaABUcCRVQHnJJ7FjR2ZMwBuAh/lL1UrGWy0eRbumrwIY8szlEWibsjOUa7m5ORImzZtjOv8Y04G5EWZU3VlRl35u4EyONQP65lbbrnFmNCYVGbOnGkoZCnzww8/lPnz5++iIyCPiAVHJ8Y9ExzvwPFTnyZNmhgTiXUls6sy7knUUSDMMULD1z46U7rGrBihSqf3ExLki9FvyNC87ZIRzQCu4zEuLVXSE3xr/n1RCCVmhoYLGK6mvW899bicd+Mt0liVYuU6CGfqwH1i0pdSdOTgPQ7cRv1VIVtnw0bJ2Lnc99WmYK8DLhMmTNhNsUc/+ODDD+Td996VYgJ/YcljSYAU7wGIgBqcMbJfayL2yeDBg3ddApx66eqGH8Gf4OYBZbhR3uc+IHv55ZfvBqCIGD/44IPdZMuUyXuAIiIUUwRCYeTFfVL9+vXl4IMP3pWfcVH/od4AthW0zXvm5EUbAWXygh5wx7feeqtRRwC4a9euBtdNO1A8Ih+H20bRCzBTBu9Qf35MWGYiP+43bNhQzjrrLGMycMHbpE50H/eIh2WgJKFj1YfDuOYaWXHumfJF/QzJV4BkOPAjsBUSQn4M6R3DRE/2WNKBkJ4mdVSOHUoCwHMU/PtuXi+vPf+cYd41W5e0D4x7T9btr6KUxg32KMe9q03KbaZu3hpW8AZ4EHewyYLVFRzAAnDgyLHgYWkP1wjgkACaQYMGyQsvvCBDdfMPwMoUqZj1xUwO+bIJhlyH47VamcDBY5lCPZCHIx83gRjwBIgRQYwbN87Ih3KpC32UOjIJ/Pbbb8b7ZrnkYybqRChbxDQmoJv3fB2NNu8EfxO4TYsb5PBw5sjkDznkEKMe1BOZPZPJn3/+aShVyRtxDAGubrjhBoMrZzLjPWjAPcQsiJHOP/9847qv+rjXo4sCCQwMayeOrurtqE1GRoZcpAD+tna4sc88J6flFcjSOK/8ppzqXxnpBmjvtXWb7K+OI13VRX3HgrTmW1KuBaeqE056knr8hVg87+3XpIGsVI/Jp598QmZWFMvmQwdIfLQAt9YP++6MxKRKXGSITTYAj91wHnnkkV2AY+ZlymFbqhs+P0QeyL5Hjx5tyIABzy5duhicK4AK12laVZh5AN5YfJAAep5DPgw3ayZA0QRjJgCAGjk5HDNc+aeffmqsChgvlAnXfpCad7722muGjB5wx04ajhi5MmW0Vv8F+i51YnJ4+OGHjYnopJNOMvIlH18JsKbe1oQoB4sbHHrMiYFrOC0BxEwQbAuHqISJyJT7d+zY0TAjPFDj6h+lm6PAedMmwB+OH3pSTzNPa5nuefRSICpl3k7kwgrlxAsukLf15g3PvyClbdtL1sBDpHGbHIOTWbh8qfw+7XtpPmeWHKfilQ4qkqzs4+iUc3iuIQGdp9NIep0UDQf7j/VDKLnz/rBmDeWG7yfLquOPktQoAm7aU7Fug3TIzhZi1FQ3maISLDBMMzlsqJEhs5RvoR6cKCyRx8IxwnEDroAvCjxADkcauE4SnLNpVgcYk/gb2+477rhDADLyAOAw9wNA4T5RGuJ5+eOPPxoAi9LyiiuuMEARsGM1QN68i8ITLhZxBdy5GXOFMjDLg/MFYJlsMOlDIQoXjTjnqaeekm+++caQzeMsBMAjv6atALEJ6LTLVNjSBsrFKejss882yjSf44gSlrygCQpUFJBMHuRBWrZsmXEdGlIW7UU+z7vmz3jQ/SemKJBgdvBYqDUb6Ral1JHiYcdLn8OPlawmzYxOSt1bde8lBQcNkYW/TJPHxn8gh+rgPLq4TOpo//XN34Sv1UDHHwlx0rhexq4BWJ3c6+hgPUYB/K/f/hYZrFuY6d/Rkjwq7+7RoUe16QoYYtvMkh7LDBJcIMB49NFHG5wwIGQCldl+RA+AoZkAfVMkwtEELYB/wIABhuIOrhRwhSMl8Qx5A754W5oek8iJf/jhByM/uFMzUQfAFesQRAxMAnCqgCmAickfnC5lwGHD1d+lpnvYX8OVI8vnPueEeGVyYOwB2sijAXryZELASYZ6WVcQrADIC07ZSg/O4ZqRp+OlCU1RalJPOGsmOpSmn3/+ufEu4hLeYTJwU2xTICo8LKsiIVwV3MPLb6jxYFYzGXjK2ZKStrulA2726ZlZ0mPoEbKpS3f5ZeIEWfTZJzIid5O0UWStPo/ov5bI39eo2chB6qYejskC+XePuhnSeKUq0TZtkYRGKu+OhqSg59Wwtx3atd0NREKpGgCM5QPADaC01UBlV155paGIA2R8Jbh1U3wBCCNeAJwRHZggzruIA7ENJ19M9kxvS0AbMQlAecwxxxjl8S5lXn/99QawISM3OXhAG+4fEz84aQCUPEgAMKBKwl6cevCeuRqAm7/uuusMYGbfTWTSACogy4+Jhx/AiyyfemXrqgbLmf79+xtAz/OIOwBks1yjwJ3/AMTI+8mfFQUWJPvuu68xCcxQ81Lep/3QA5ENE4N1AoCG/Kg37yJ64XwvjTuE96abopMCCXT2aJ6FAe558+bLK2+9I/U77S2tOncXNjb2lejcDVuorPHUs2Veqzby4JiX5fKVa4w9JiMJ4NsUsbeoy3tj9Zq0Dgxf9QzkeqoOylbeCvlbg11JlIC3VzecyIqLl3oqwqhOAixMGS2gRXAkvBoBnapkr4hPADYAD5CxihusdeI64AN3PGjQIMM+GhtyRAeIGgBkzs3vxRHxw2OPPWaY7sF5059ycnIM8QbP2+vGO9QHEQvvspLgGUAerpr3WQGgDIQ7RrGJYhYOHTk4NGAM0s9ZUfAzmZWTTz7ZqD8gj3zdl26KOjChXH311fLqq68akxKTxogRIwwRCoDMBElwL0RNWJWYwbmgH6sBJpvJGuMEpSorCdqAEw8erSZ9rLR1z/c8BeK0A3mjdXalE89S+9dX3n5fOgw+Uuo2bOzIefgiY7l2+jWL5sv0px+SO2fPk47lXonUYnGxhrR9vX1zuXy/XlJXbbbDwX1vKCqRqxYsk/XXXSKJbVr6amaNXiemyd6TfpGR511UbWsTgAOwK9DJadDgQQZQOXGWTg1Efsz+jog4AJgTTjjBAHHEEYhBEDkA8IAZ3CzJ5DBNMDKPTvmbz3KP5/w9a77PO/RZEu2wv2PmCRgziSBLR6TBJARwLlW7cDh56s9kgDjEzC+QOvAsNIUZA3yhwf/+9z/DzZ9JwqwXKwwmAo5w5axcWMmYIifqyT2UrwC9vR1GRu4/e5wCCXykaEx0pL9nzZa3J3wpHQYdLvUUuINVkMGhN2/fUQZcf7uMfOYROef3P2VoSbn45ttDowTDdaOidXONM5KeGLqlibV0VE1L1YtxuR7rqPlhtKQKBdpWdTMlVbnl6iY4Y5b7JMAmGJBABnyBKrDxfqQP8z7JCv52AA0EAI1M9J9gnrW+428Va+YJQKM8hPvFyeaAAw4wRC8AKc8g1kCMQ7K2xyzH15FnWcWYCbrA8SNPR6mKLByAB8itOgOeB7BJlM+KAXGSaYJo3HD/iToKRKXCEuD+86+/5aV33pduBx8jdRspcGunCiUhC2/cpq0MufFu+d8jIyV+xkwZrAAeTg4cefdfSfHSUpWV8SHW0962EnWE+SZ3s0i/vXe4wtsf2EN/ly1YKs0aNQ8KVHxVlW8KgIeSACrAyc58mFwneZqAFEr+kX6HtvOjHUw8JliHs1zyZyIAiFHIIhPHJBMRCqISVgAoNRH7ID5Cxn3QgQdJr969DMVxJOoUzvb92/OKOoWlAdx/z5I3xn8mex95gqSpErLaSTsxIpdDr7tNXnrkHsn89TfpXRa+TR/YD2VjnWQ5gJjaYUqbNPDTN/mFknbM4RKnE1C0JO/cBZJz3D4hT6aRbgdgBOggBkAcQH/6tycmSOT1KIMRgyBrhzaAN6sAAJ6VDGIaJj9Av6pkilvIw1S0MhG5qeYoEFUKS0NUMnuOvPHxBGnbf3B4gNtCy3qNmsiBV94od4+6S+6YNVf6hAnAl6jDUKGKNhqpsjIcqUSXts8tUvO3E9UZIyN6RCZeXdZ71uZKC13yBzLAw0GLYPMwwZv3AClAHFBy0w5bcThsftVJADYc/JNPPClr1601bOSJdEi0Rn9io+qU6b5bmQJRExIWWdy8+Qvk6Vdel44q467ftHnl2obhSoPmreSYOx6UB9q2lqVq2rdDvVS9jJerp2dW4yxJ0WN1U4XKHn9Yv1G+a9pYkg7aFyFkdbMMz/tar/KNW2Svlq0lfacCMDwZhzcXuEATrHGswREnmsUn4W195HODllivsEnGnLlzDMcjLGgIjoV1jqlgjXxN3BJ0v9oa2rDWD63huAHul975QPoOPzXsHLe1aEMOWL+B7HPptTJS3dCXKzbuUNVYnwr8HJHJLJV3t1aRSUI1l40A9/yt+fLIpq2SdOEZEheiPDjw2gf3ZPnGzXJQ125SJ0qV3LQG4EYRSMLsjsh6WGC4KXwUgPNmRWMmABtTQ2zKXfA2qRL5oydUhVG4qsbHnr9gobz45jvSdv8hkq7AGuklOUrM7B69pMUFl8lLjerLhmowtwTEKq+XLm3xrKwGUTQsi2xQOffjq9dL0WnHS3yWOkdEC9dNu7R+nnW50kljiySqnDRaE5w39tb0a7hEuELczN0UPgowPu3ybcYxSlB3lRM+OleVkzryVQdyqsre/30++JKly+T518ZI54OHSVazyO5Ebq1NvIZt7XTgYMk/8VQZV7eOhMqbrVN5d1LdNGmZHvoKZgdwF8v9sxfKwmMPl6Q+PaLKHX4H3bySpdYvzdTyB+/PaE3IXLGuIH4HfRsOkQh7bgovBezgTe6YILrgHV46+8vNwxJoTyQ+8gqVR77y5tvSZr9BynGHwaokyIYkJqdI98OOkb8GDJSvEnVvwiDfR9zys4q5GzbMkuQQLULIY50u759dvFz+GniAJO7bG+PeIGsS4cf1W3m35Utj7SoNd4JihEsMOXtABbtmIvvBhWNKaDrphJxplL8IE4T1B2EDsN/myN+IIyMBptDYF3hHOalqVfUS8G6rWy98Jm6BUMcA7hUr5dGnnpbm/QZKk5wO+tqe4ebS6mVKzrEnycdLFkqnOQukraJpoDXRjbZkVqJHDlXnnFDsuwHuDeqx+OySlTK1WxdJOnKIxKmLfdQlBe+yRcukZ3aOJEWZHN6JVthNs5ECnsNmcCqn52rDNeT5yJux/iCaIH9j+kewK0LlEokQh6BATQADpYkdvBnTTByRmCwCrdO/7bmE5BoGCz4ursFPqra6+T4DpUWHLhGXcfv9qLq0btpuL9l68pny1uMPynV5BRKIzynAm6sov6lpQ2mu5nyBAr5ZF4PjVvflh+Yulj8HHSDJRwyVuCjypDTraRyVs/MuWyH7DDwiJkzBEJcAWFfpLky+uMTd2hejf8BdE2d81KhRu0LW0hRTJo3cPzs72wivG0gM8WDI4ATSdq/NYPJznw2eAh6M9Gsq8cExM3rh1dGS3r6btOjY2W+QqZqqF1xJm979ZOXgoTJJw7oGIj4BfP/QeCZtVGTSMMgJsEzpMEc3NHhg8Sr54+BBknC4ctwAt4JONKY4DUaVXa6bC6ijh53jisb6UicADPAKN8cZTe0l8iHhdM0ogIhP+CEuAdgBUzYrZnciIhsSECscYlJTTGOnhSvztlMksn/XqMIyXzvTm+/qJrr1Gku7XvvqwAp3lJEQiaUDPSWjrnQ8+niZ1DZbtqv9N+DsL6EpWKBelQe1aKLy7sBl1MXq9j5T7aVHLlklfym3nXikcty6G1C0ArduoillGpWxU0amBjaMvCWQP5oHeg8mwfwF+k6sPQcwE0Oc4FZOXLDZHoAWpS0bOrNzPRssI1rx9475rq8j7zI52PMoUWspN9UcBWrMw7JEP/a4TyfImvJ4ab+Phv00ZacMNG0vO5JXKMdQUaFKFjW/oGPsuKO4xn8KqMYSWLlkj0fdxRVw4a7Clcgb2fvKw4+Wj194Vk7W+CfsVu+UcOxZplYmGxpmSuesegFbX+A5+erCpTJBM8g/91RJ3rsrEZmcioiaa179HmU//iI99x24K/hT1FTOVhGACu4PjpS42ch+2SIMEcqeNom1VbVafzI23nvvPWPXH7jsQBLP4bB02223GTv9ECYXmoQyhkzwtpfLGHVTzVEggc5OYJpIJmb6T3QnkTlrNkoHteUmVkdZqe41qPEVtuRukDz1hOO3Ye1qyV2vLs35RVJcwvJPd8uO101eK0okNVl3qWmSJY2aNJYGuk1WhsZiyNR4JfUaNjJEL0QcNEzYqgHo2H931K3Vvvn5R+kz4zfpou7zTt2R4TJLxSs5zZsE5JjDHLBRuZJ3lq+WcVrvsuFHSkoXVdJWo66R/F7WvCt044UWcUnSt0/0xjOhvgAKUfPYB3PK5Cnaf4qNyZ4t1fD+M/eVtLYtFs9pJ4GlXnrpJSM+STBt4F1CBrDTD7FNzjvvPGPsBwvgvsQmNSmCDabdtfXZiIeEpcNM022fJv40Q/Y+fLgsm/O3THr7Ndmat1WKFKArGnaV+JxDJb7BEN36RDnqTIXLOMQQulWTAW76t+ZR6C2XZerMvkw3J/CuyJPiSZ9K3JpfJL4kT9p26Sp9hhwmbXQHnSQNTORRbjbYDskH5h1Cz7Y9YYRMXbZc9lq7QZxi3hVplaYrx31m88ZaR/8iE7wm1xUWy3W/z5al+/eTumeeKAlBysj3WOfTunuXrZKDmusekuq1GApNa6ruxK6+//77jfjgVm6UHZjYhIDNDODEYz0xnn7++WeDe+Y8lASt2EsTkQs79tgjM1aVJ+U6yc4xzYzmPlJVu2LtvlpVRW7ZziCioz3zymgpS6gjo594Xgqy+klF2wvEk9FCPfWQ9Sr46c4s+tWVdvwckl5WKN95Q7nxNA0F2vNckR5ni7e8RJblr5UVM7eKfDNO0gsXSmZGouR06iwd9u4j9Ro0kkQAXbnqQFP7Xv3kh377yV+fT5Bepbtz34hMFqiiMkP3l8ypm67cvnOuDCvMAMcuXSnjcnVnkmsulnpdO6qYJPB6OOdcc1e9JaXSeN0mOfiI4VGvqMQRZ9asWYayzk4hYpzg/VdbwJvdcJzAk3YDoMQI79G9h/pRrDBESMi87UDP+4he4KLZdMGMB2OnndPf5OUkN3c5bydqRe5axELCAtyrVq+Rl14bK38t2ixx2RpxrOuBGq8jTeI91ZkwDCRXNN+RhyFWSWpvcOfSsLtsUzDfWpAry2bPkO9+HicNUrZLdvscadamtTTRoEqIW5LVccPjR1kar7LAtocPk3f//kPaL1kudS0MToEWPz01UQa0buEo68ZbcqvK939VpeRr6zfJko7tJPWGK3QPyobqfOMD6SP3fUPPWdtRrrbd3evUlXa6B2S0p99++80AaF/1rE3AYt1V3tpeNlFgg4rTRpwmqXVSDWAm3gjWJkxucNzWROyXcePGGWFhr7ryKslqsMMr1fqM0zljG4WlNcFxE9HRTTVHgQRm4HBz3+S5cNESue/x5+TXTSoXPvAiiTO47AhynXDucaqA8eivnprd1Wuj6FMiucVbZcP2zeL94jtJKvxC6qoWct8hg6VFuw6Sqa7euhuFYirc/z/ASkdstlcnWXvokfLr6JdkUFGZsYExGL5WH/tDA1qdUH/3jYYRj6CQnL1lm4xZuVZmpmdIwsVnS3rHttp2J+FLzX3kUEryqp4iVW3Qhxx4sCRGcHUWSt3s7wBKf/31lxGIyn6Pv+FGawt4w/Wyx6Sdk0b5SFiAc845ZzeP0gEDBhh7WmJSOH78eAPAre9itcJ2cokaLuLKq640OPCqzEEBbjh2ewK8XbGJnSqR+zsBV9pwgnepAve0n3+VR1//XOaV7yNJ3fpr7f8Bxsg1xSFnVXZ66ijHyy+rg5SXFUvuxrky4Se1RJj8jrRsnil7de0kLdt3UI68gVrAICvfIcNOSEySdgOHyovffCEd1EKkhSI3vMYk5br3bdFUMncCMoBepHbQS9VTdfzaXJmigyh/2GGS0r+PeHT391hNXjUP7JdWT3rqDuvRPCABIuycfYlMoD+RM6sCpFj5ToAmCksrAPN9UMxefPHFlXbk4R5xXjATxOuSPT3xtTDf54gI5I2xbxgWXeRBvG9f9OJ5OHanVFsmSKe2ReO1sMq8DRn39F/krufHy/rGR2jAptZR1ea4hGRJaNJTRH9FqvicmztHZn02RRomfS/denSUjr16SVZTlcXv5CDqNWoq6fsPlFd1p+/LC0o1+qBXvs+oI6NaNTPMG8tVRrKmsEi+VMXm+KJS2dSnp9QZdojU0QiDVk4+qogQQGXYZDj1z/lyzMFHVnuT4QCKq9YjgAlxpAFwE5DsGSLr9gVG9mej+W/aB9eNpYi1rbStq06yiE18TbQA8n/+8x9D7s9+llbunbzgwEePHm1w1AA4YXV95QXD55RcsYkTVSJ3LWx7WMIRTP91hvz30Tdle9sR4klrFrlahyNn5bATGnaWhAbqGl+yTX5YNU+m/zFeshsnSFfdww/LlVQVfex/4gh5cdLn8nvpWslXZ5wGGj0QbnvF9gL5UsUjEwuKZOO+fSRh6IGS3rSRiuJVFr+HFhrhIIuOXkPW3T9BFV8dOkQ96AE8KMV9KfCgCYGpfIE37yN2WbdunaHshIPleV/AFRYah5gJdTW9Ka1ZUNfWrVtXWWfAFftu2vjggw/KKmVKrOIPQPmNN94wOOtrrrnG2MfSWo55DudNXezJtTaxUySyf4dFYUkHWLRkmYwa/YXktz9d4lI1GL52qKhPhqzbo8Gg6ktcs35S1qCzLNiySJZ+O0saTf1FWrXIkg2rlsnSNatltnI72mMlU+V91wHfuhRf1jZbEs8cKkmqlIxDWRNLCkmnj6Pt8+qO9Y2V6z7ttLMlLQo26nCqpnkNAMHc7ffff3e0MuE5gM0XeAPaeB6yYQNKQFaO7PV4xhlnyMCB0eeUZLaXicoOnmYIXJM2TkdogWjjiCOOMEQjyMHRFVgBHGD+6KOPDLpde+21lbZMo1y7stIsC/FUNE56Zv1q27HaHpZ8zE2bt8gDz7wmi1IP2gncO+TGsUMsnWjUXDEuOVPimvSWcrVaWbVpgSye/pFsm/WZbNZAWgxsUokOnMnL1RvzqEMl68LTd2yaoMvW2pAwDayY/oec2LWn5GRn++RWo6WtgBhc95w5cyqBmbWOTjJvAGvmzJly3333GcBtgiEiGEzxnn/+edlnn32iigbUEScbsy+abWRVUa9ePfNPv0fAFeXmfvvtZ8jB77zzzt22L6MMHPeY0Droyuu0006rpOx1WuWYk6Tfwt2bYaWAB2VFdVKRLrVefO0tmVnYUa08chQEYx3IFMhV0RmvIhVPk14qCyzcbbAwcEpKyyQuU3faZrebWgLciEtkxWrptX6rHDn0YDXnjO7vCMhgu42pW1UBkZw4b0QEX3zxhSE6MIGbccD3JeoloI47uZUrrc44Cde7yKrt4E3wLeT6wXC9vNOvXz+58cYbDTGK9V3ogQycCQwTTDsN7OWbbXM5b5MSNXOs1jZofNTJ30+Tj/8sUG61l9ZYga82JO28XpWDV+QtVWyuHEOFjl6et13KcjeJAXr6fEwnrX+Fbnrc/Pe5ctVZ5xhcnHUwR2PbABBsmAPZNxEPQnt7UPoh83UCIq4hisGN3GqZsafpYE5Y9joDxMibg02IUPA8vfnmm434L1YaMbbXrl1rmBHaFZS+OG/A2001RwH1JA/dYaZAZYajP/lRCpppvBJVcNWOpECmHptFPz0ojdN/laY5jY2BYXbsZB0kqSoX3a6O82vuf1ryPp6oz6vzQwwDuBeHi/ET5cqhR0hOmzYx8Rnhjt99913DasJfhfluThwhHoX+rDMAr88//1wef/xxn6Zx/sqN1D2zH1rz51qogbcA/SOPPFKuvvrqSnSCBkxi9r0pncCb8pkMnOpnrat7Hj4KhIzcKC2ee/EVWVSBsk7FB7Ge1HQQ0Pau+Eyat1gqnW5qIfVzOsuWJZvk69smyoZlO0JvJqqtbOojD0ti7z7Kra6TPPVcy3t7gtSJ90rGgX0lOUfBD8WlDqioT7pgqNDlceHod+VmNQvsrRv3xsLgg/OcMmWKTJ061a+sG/ojD3biCAEbIg4SIhXu2inBcb7//vsa16WJXHTxRSEDpFPeoV5z+j60sTrACS2OPfZY+UljELG5gxWcEZ/YFZR2zp86UT4/N9UcBUJSWLJ8W7R4iXw1t0BKGnQylH01V+Uwl0Sgq+ItUrHhZ6lX8Z10OiZT2vTvJIl11CtS8Tczp75UJKtjwrHKXGsn9a7Ll4Q/f5OkgwZKvCqJ4tu2k4rBQyT/998k/6uvJHni95LRp7skt2sjCbo9miETj0Yg12/oVXNH+eRr+a9GUjxC5dyxsMUZXx9ZNF6BAEtVCWBxAm8A7+CDDzY4d8zjCCELSFnl3+SNeOWDDz+QY449xrBEqaq8SN+nPVYAN/8OlfOmviaNsLRBBGMFb6f2WMs372OGWJ06mPm4x8ApEDR4I90t1wD9b4//SjbUUYeXpMiGkw28KUE+iZijolg31l0icQtelj7HZUn2gE6SUl8jo+00+avQkLDzJ8yVLY1Vvk2AEwXzoqRt4vnxLUk+/EhJ0J2AiMftUQeIJAVwb//9pVzlqOu//krin3pVUps0lMyTh0l8Hc1TIwka3psw5HsazJVz9apHaOEr78qNhxwpR6vpWKxwTZiyvfLKK0asDjvQOvUAQNop6BIAhJIPs8BDDjnE4DjxPiSIlQni5M8PACc6IeC2p5MvMaedGw62ntCD/T4BYFPGzTWce+zydCdwB7xjpQ8FS5tofT6Bzh1MYtOEv2bNlu/mbZWKZm0UiIJ7P5iyIvMsoF0u5VsWSMK6idK67UrpfFt7yWqnu9fbJB2FmwplwaQFsr2FyrR33jO48IZrJfHNFyTj1oc0bokuFQFjpWMcdq5qXpWiv4pTTpWCadNk24SpkrhqmaRp/O7kZrrrTods8QDk/Eza835NJP12Feo9WfrnHKk/ebrcdtrpMnjgoJjYlxLyAKSY8RGjI1ArKV/gbZIbMAS08Co8+uijZeLEiTJ58mQDrDHLgxPNycmRdu3ama/ssSNgSn04mgmaIJt2AlTzmUCPe6vYDAceViHkCW2Qh2OGaJZJeU5OOi54B0rl8D2n3yc4sTcz/MTJP0puanc1qYu9KGIVRRrUZ8MMSdswRvpf0Uea9NBNBnZy2lay0kk3zFsvq2WtlFuV6DpuylNLpWjBF5I0RWOYDD1M6VA54JZH40kkHXWUCD+l2TY1udqszg/y6SSNvpYg9YYeIEmNG0piE/XKBMjJw6Ee1jqFfK5t8apNdImaAm4a94W03VIoT468V9q3axtyljX9It8DMzk2W0BZaU+IRgAwJ1A3gcf+jv1vQPzcc881ftyjrwOWoSQTVAFBfuTFkfyYUMxfsPkzXu3toSzazjHURJ6dOnUyohIiRkJJSSyUE0/U+PM2jLCLq3jXFJvY6xZqff6t7/ENraso+2RtpUtQyE3GG3I3ypTZuSKND1KOM4a4boPbXiieBc9Lz6Mypf2hQyW5HtzvP1yMlTBlhWUyb9JcyW+mdvC2Zno9Gswnc4sUTRgjSfsfKB51o/ebdMAm9e4tST17ilfltBWbNsrmJUul/Odp4lnxtSSlJEmaRh9Mzm6pcvS6kmDYj++sl4XL8luG9ebOQezV3XtK1+caJo3bflKZvNcjmUVeufD00yQnW1dNMZQApzFjxjiaBmLHffnllxuij9mzZ1cCMUAzlBQssFIGZSF6YeNfFICLFi2SjRs3GmBIG8iTiYaJArDE1rp9e1356WQfyCrYCbwp0xR1hNJO8x3qdvLJJxu7DpEfJpZWrpvnwAB7aFmuI1oBwN0UOgXoH3///bfhf0Cfgf6sfOgjTn0jKJk3ssCvJ0+VNXE68GOG68Zme7tUrJgojdJ+ke5X5UiT7rp1WpJ/jmrd3+vUDni1lLVxGPhw32k6YNb9qjv6fCkphx+zQ3zi77shItFfHEpO3XYuvrUqNNXawauB8ksXL5bNS5eId9YyScjbLIlpGkBLuZ1kDT2bpKKWOKIdahRDjw6OuGQ1x9IYKwaXpQPJqw5DXh1o3mL1jtSPX6GxVorXrpeSLSqn16BZxSs1YFPb9uIZfKg0XL5CrlZu6lCVz4cCTP6aF8l7cCJ4PsIR0sGtiU6Nt+Bxxx0nX3/9tfXWrnODVrv+itwJdcMCBucW3M4BOYCVn7UOcKeIf7788ksDyLt16yb9+/c3BioxSpAd8zybKAD+WMMA7mxXCNdrzYvWUC6ccjgSMm/k3P6SHbxpD+AdDpk3bePHN2cCYSXF3+TNj/qZ3L159FfXYO5RTrjzDLR8aPr9998bvgVs50efoW8Thx1dTH3dh8CeEqhwoGnjps3y9S9zpDRjqK7wnTnWQPOqked06zTM/2TZOGnfebn0PL2rpGT65rbNOqGoXDZtqWxMVRGLL4xXLC6plydF40YrR72PAcb65c0s/B95TrkcRCVx2uk9jRqJ9O1riDa0t0rpxlwp1MG/Rbk3+XuJbvVWLIneMo12mKQWLBpHXAPtezUMLc+Wq8VImXqBlpVph09K1klFPe2Uq44/aD9JyM7WbeF2bE2V+O0kOUMVdMcdfrjU0Rk9VhL9E3HJHXfcYQRlstabgQagwS1y9DXwamKiAkBx1WdbseXLlxuDz1pX6zltApz4AU4//PCD8S4u6QSEGjp0qDG5sk/la6+9ZoAYXG3z5s2Nc/sERj7WKIHWsiJxDtDYccMEb1/fwF89THqgGGayYqIm7C1xa1jF0D4mlEY6TpjEOLJagR7Qhe/rxJn6K9O8By35BpRD+S1btjQU2aHmZ+YbzJFJarLqWQhVgGOUlbYEIqNejuAdKLGZCf748y/5c0WReLoo2JgavGBqWZPPKnCXb5orCavfk736lUj3ET0lMTUwKVGhyoRXLlkhpfWU6/aDxxWpXine9LsUTZogaWdcJMoWhN5CuHLlLJS9kHgF2fg22SovP9rgqiu2bFZvT93zk+2s4LK1s6nRopanXDjcOB6E6nSSqFx9soIYHL6RmJgV+OO+nyonKgCep9xpGs8GOsmE3pqwvYlyDLNA3LTtCS5syJAhcsABB/gdwHaZrT2f6v7N2EBEgqdiVcDtVBaDlVUtwHXXXXcZu8Lj+UiAKJSm3CcEgJOsn/y4D7cGp26Gv+Ubmz+nMkO9Rll2mTd5meAdbL4AMyICuE5szIlTA5D6EgMB1IidmjRpYiiR+/TpY6y8EEEB5IGCLu1gwps0aZIRnGzevHmGIra3ijeZQE2zyWDbE+zzTB6sGB9+6OFKwM33gynhmzqlhEC5EjrXtN/mSHFdtYH2VAOknGoR7msVKj7Y8Jukb/1Q9j4tS1rv30k3JbYJrv2UufLH5bKxXAMAKTj7TQrsJY2KpfiHDyVpnwGS2K2Hgr0ftPebmcNNBqBy5vFNNbwuv2CTdoy4X36Rwbq343/OPFPqKsDHEnADihMmTJCXX3650mCm3+61115y0UUXGR0ckDd2RLLRiPYGOqBtrwb0J3VEzn7PPfeEBNz2QgAuPEfhxAA1QKaqRB2I04LoBBCDLtm66kJejdyUHyIHK5iH2g8oy5fYJJhJknaRzy/aPxGHfffdd46Tgr3tgD2TFD849K/UtwJumUn8+OOPl44dOxrt9dc+ymaSRfkNcMLZmonokoD6yJEjjTC75vVIHKkHkwabQS9esrjSt4aefXVF7uSnQH0CY0X1wY2q4V+5pTu3MZkAACthSURBVFwSmvWORDvCl6cCd+mq76SRZ6L0vTRbstrX1/0qAwfU0sJSWTJtiWxL1aVhAHjvVWa5eNMcSfpojCS0v0e5YKtpSviaFXROOsjKf5ku+373vdyu+xo21OWmvw4ddP418ALyPjYOcOI4WToTspTNds12OSmfuRcogxJKk+AQCa06f/58v6KSYPKGG/O3uYQ9L0AAwMGdH1NH2gtYs6ECIQA4YjkCN4lMvY2GQEBhCjhAH/Nnz9fpb8DTLjbhfQCGYyCJCQBzRMRCyP35vuQbSiIvAJcJAM79KLXuuu666yQzUyOE+qgPZUErfnbrJO6ht0AnAb185RFKXa3vmN9s1KhRRt/hb3ui/BNOOMH4lvZ7/B2wwnLx0mUyd4Myli2iNYaJKjrKi6VcrTeap0+VvUdkS4N2Gqc7COCGgNtWbpV1a9ZJWbaDotKJgtpfSxuVSeG8LyVhyiBJ0X0vd4ktnJ6viWvaoStUa93vhx/lZv34TRToItUJI9EcvgMihLvvvtvgkOwdm+Ux7twHHqiWPqaISCtiPbfWK1iOkPJ85WXNF+BGpOMvOBZ0R7yDzJIlMOIFEiAB4CLXBaztbbT/bS3X6Zzn+QFmrJJZicCdIk6hLQA6dKN8OHHAFptuQByQyFZOHTtvgJ5nffUX6u3EeZNnVYm6sZpAto9IiG8MDYNtq70c3oeG5M2qhYn0kksuMYJuOX176kHZTnQnb9rId+G5SE38fCP6zjT1BaE8e2LyYVWJMtvXtwhIYUkjZy9YLtvjdS9Iy2CxF7jn/tZZq6zIAO6maZOl73mdpW5zFREEAdxG3TWbDfM2yKZkdZdPqjwT+mqfV+OalKRvkOJXnlTuey9JUOuOPUYn7XBe7ZjttRPfoLGYO8XAbjhWujIQWca+8MILBvdDJ7cmgIgtv04//fTdTNPo4E6dnGtOA9iaJ+dwYAxolvGAE0rDtm3b+gVxvC7Hjh3raAFCuYAlMtnDVUlMnZFdAuQkgIF2rl692uAYKRfwcRrIxgsh/AMt+VEWYxigtFqlsGSnngAUdctWAGdCJGwAsbzt3LSZVyjgTdlws08//bT8+uuvVYbxNZvL94Zm0BLakA/t4WdP1I+6TZ8+3YgYiePVSSedZExW1md5ztQlWK+b59xHcUgZkQBvvgV7ruIpTL+jPGtiIiSOOqsI2u0rBbSTDgNoxjyNbZzRTxVlgS2NfBUYkesVpVK2bro0SflG9r2wm2QA3D7st/2V763QbaZmrZaSuuo+HoDIZFdeSpLyjHIpKJol8WNflrTr7zC8LXVk7HqkRk60s8UpN5ejsTgeOuss6aRegZHofJFsC5357bffNmTddHJrAmhQVLGZrtOS1he3HAh4I24gBCxgSjks57H0ANT4254AEjZzAMDtg49nqcsQlcPee++9xhLeBG17PnC7gwYNMkzCXn/9dUN5BtdsByezDk5l2fMM9G+zDNqC6AJAw86YYFwoTNnzEjGLla4mgFrLoG7misJ63TynzigkWUmZOxaZ93wdKZM8mUgOOvAgyayfaQA3Vigoh5kAmIioj9kOMy+uUc6TTz5p1P3UU081xoFJQ56zyrnN96xHJlJ7vtb7oZ5DC2hNv4C7t39P2j1gwABju7qqNtgISGG5ceMmWZ2nA6m+ct7RlrzKaW6aJQ1KPpB9r1TgbhGiUk4nv6ItRbJu7Xopbah/VB6vflsO2Bvikz/fkYQJPST52BMNSxC/L4XzpnaKOF0mN1Xl3p2HHCqd1ZQq1oCbQQcgjh492hhc1o5tAsSll14qWAQEAsiQl/d8AaeV/IA1Aa9MGSihUN955x0555xzHMuCofG1dyYDMCcnR6688krDxM0KftYyOeceEwR23iyRmUTg5rETZ/IyacCkxYSFcrSqzSfsZQT6N2XRfuKcA+A4GgGA2dnZuyYwvhGTi1kv8obG/jhE3vnkk0+CAm7KZJJmErGuAABUwBiFIxEhUdQiGrLSijpRP8CRkL7I/1FmWvuMnTHgHWvifSvYW+9V5xxLnWeffdYQtVlpSJ70BXQ4WLvwvasqPyD+ctGyFZJboTtTR6GVScW25ZKW+7oMubWv1GvtW0lRFcHhunPnb5DNW9U0KyCqVM4Rz8vCNvlS+NJ9UjrzF9bGlR+K1BVdgqc/8YQ8rkutfRXcYg24IQvcEoONo71j0x5cte3iEis5+Yb2FCh4s9y2cloMbrhFlulOiWU1Zm3Wd8zn8Pi84YYbjIHoD7jN5zlST2TigAyepKw+LlBFM1wY27HhQYqzxn//+9/dwMyah5kPkxWABVhVBQD2982/mZzgwu3fwgRv8zmzzKo4b7hk+ze15mGeU1/k8I899pghboKW1jaYkx0gh8KaSQawc9rDk/IAcCagpUuX7vatoLWvRHnEsgn3GKKvvPfee4ZyFTpaE2USQI02denSJaCyE8jQXwejkMVLl2s0vaZMDdby9vh5ReFGiZv/vPS7Sl3L66nZRzVShUZKzJ2fK1vrqAdbXGUQCDRrr9rv5LffKJ5HbhHPAy9KQoeOjMxAXw/pOa8CdwMd2I+rcrK7mopZO3tIGe6Bl+AmsT5gOWwf5AwiOjRWBL64aPqxk/0xtLByXME0jaW1fZCZ7wMGiBnsibGEqR625/7Glf0982/eAbB69eolPXr02FU+bYAOI0aMMMzqJqspobVuvEeZRElE6cjzTEAoLeGgAWImG3P3eZNTtdPaWg+T27f2J+hsn9Ao2x94834gCk3ah6fsVVddZZj/Wcs162UeuccP0QKybdzIMe+z04X2sZKA28WBCsUx9QWcsfF2Sihy7cpwniMvaE77mew5Z9IIZJLkXZSTeN+aqztr2bTjiiuuMDa+DnTSqBK8qeSMueoxltRfy4osCFkbU+W5yrll5QTpd2p9adJNrSlCkHFbyygrKpU1C9YYbu/W66Gc4zpfUH+hxD9xt6SNfFriGkRI3KQdwquyucy33pQ71B60t3IjgX74UNoVqXcYDFggYOplV1AyQHNUBIGiy5/bNgMpvyC/EvADUnBfABHAz4/Ba0+mHbT1OhMK7zuldevWOcpNAakLL7zQMQytUz5O12gz39HpW1JPuEaesSaehUNHRswzZgI0ACLoSluoNyCORQaiB1YQ2JbTVp6h/gAJ3osozey6BcDbOmlQDnUBvO11MusAvdn4AtGUE3DxHmIXxCFM0LTP6RuZ+VmPvEt76SP333+/3HLLLcaKyVoO9f3mm29k+PDhxkqG9+0cvZkndKSuKGyt7YE+WBWxCQgKUVYk1BGFKJYtTh6QZp58A2zS71IHLLsHJc8gFjrmmGOMidef+MnMzzz6VVhS6HaN+zxz7mrx7lVF8CUzx5o4qpy7dOXP0jzjZ8keNCAoBxzH6imjXbytRNZtVBPBVsHLuyvlqeOqJLNU8jdMlbjLL5Q6z76iGxbrbkO2AVfpvWAu6CBStkrS1dzoIV1a91cuLVG5rVhLgAHyXey57Zwsg4eBzIDGNtlM9EsSR36ADnJPJyUUE8Nll11mODtg8QFHy5IbUywrOPK3HTAw5bNPJma53EP2a08MPjhg68C3P1Pdv63gbOZF3Z0AiXrAGfIjsTTHtRy6AeaAHD8Ajmvkw7O0g5+9HeZ7ZrkceaYqzhvLHSu9re/THkRifGcmDnuZ1md9nVNvbNnZOPpMdUjDcoi+ZSbiw/z444+GboH8fZVBOwBSk8Zm/0Jk9eKLLxpxZqz5YjGCUveUU07ZRWOzTI48y+oHZTh1sk980Bp9h7kNnfXdqs79Kiz1WyrXkivbynUmj9eZtarcauS+Dli15/Yuekv6P9dPA0xV5qKCrYYh7164QQri1DEnXPin1SpuUCRxK36VuAfukpQbbhNPlgb80U5W7USn1M5Y/4P35UZVcu3XvXvM7IJjbTsdGw4G+SZWBNZBwXMM9vPPP9/glgAYwAYw5ZwVIYMCDhIzO8QtcJX2xDvkjacmPwYnZoAsoZGtmgmnHyu4MGiZTLAMQAxhHezUExmuvb5mXtZnzWvhPDqBKmUCOIGWzXPmSgTQDzTRZhPozXfIyx94m885HXkXEQY2zUyg1UnkBYCfd955RpwQ+omZqDPcLxy0Lwsi3mdywwLI7Av0A0wqsclmwuZva2ICR0eBYpVVijXxLP0UUclkFXPZGQEmHERs119/veFMZX03kHO/UGVUfPFytTLZSzuFrwhNgRQTxmcI7bpqqnQemiap9StzBqGUVF5WLrmLNsj21MqcVCj5me8wERS1VgCf84HIKJUL3nirseuOEtN8JPijdgivigHqqZjhxr06yNGDBonOwMHns4ffoG/BKcPNwBHZORKqB7gAnth8M0gAa97BjAuTPsDaLn+tqlnkg6kZclAreCNWMQesmQeDDesXltAm58o9AAwQcEoMSEAgkgnwdkqRLpcy+W5MiPbE9VASNEesg5gmHAka+FI2MhnDgQPefCenRD1Mrpv7tAsGAQbAVxsRP6HcRsxkTfS1cePGCSaggLg1UU8mGgKuWb2Erc9Ude5X5k1lFy9fqYDTRZV4zo2tqoBw3/eWaHCmZROkwyXqFh2sE46PyhRvLZbcZeqimx5aB/SRrXGZqISFHdQQf9EH4r2nUFJuul3im2lHDXGAexWwmqrZ1S0aG3yIxvmNReCGMHRsvOGwFvDFwfIMXI0JSubg4Wj+/NHefo984KyO0G3frGIYnnMCbyYUYm7gomwHb6fQrORjnwC4Fu5kBRczb+oKOJk0Mq/XxJHvZ3X+CaZM6Eo8Fqc2BZOP+Sx1gct1mmAAbBO0nehE/2AFZn2G70z8E6f8zDLpp4j+yNPsqzzPe48++qjBdJjPcuQZ5NxYlhCrO9Q+4xe8WXasXp+nDieNjM13rRXYY+clW6RJW5G6LSorbUKtU+HGAlmroRcrkHdHIHkTNPpga51513wm3ic0AtuF10pCu/bBiVC0Uyq7KG21Q1yhlhcAN5xpLCY4WhRIzzzzjKOFiNkmBoMTR27eD/TIYER2zkDBrZ4lLn9bk+kWbr0GELBkhtO3culc35PgbbV7NusLnainEyiZz4TjSP72Mkzw5roJXoGWxfP042Df85U/oo1vv/22EtiSP98YmTr19NWvrHoDVldvvfWWwVXTRl+JvFjJwV3zbcBNAmYRcMrpm6AURhzItntWpsBX/r6u+9zDkgbma2UW5yrX2Diyy0BflXO8rqFe6zbXsKZh4rpp57b1GqXMq5YKEcTCClUbFLVUmfq6CVLx0DpJOU/N3nr3/WcPTMfG6kWtn5Srs8b8BdL2yy/kpgEHyv5qxx2LykmaSEcnvCsR3ejYNZGQRWJ+hqzbSTFJHRjUTtzfZo1hTxAlK3jTZ6zyVGsbwgVC1jyt5yYI2csBXEwxklM7rHlU95z2W5MJ3tZrgZ6Tlz2/QN+1PkceMAXETFmqZpz2PAFJzE0BV+754qRNLpi8EK9hvoqoxV8iPyyaEPHxPpw/CkrqYQd9JiqYCMCbulQn+QRvMi0o0LjWGknQG03hu+NT1YVd7W9LyjVaoIpyqjuvqGPHxuWbpCxZjearm1cVXwIRSnEjjcGS95OUPf5fSR1+saQMxxNTg/o4ya21U6hQV8o0+tneaqt7i87U3dRSIlaBm46MVQj2uACifYBVQb5d3BnAZS6BGSwAMtcwebODKtexMsGCwJesmHIZVCZHa63Xtu07drPBfMy6nGZwOyVf152eDfWa0yqBvLDhBmgQDdVk4rvaLYWs5fMNmFBM+lnv8S6TDnQLdSVJHoAx8mWslhBjWBPlZ2dnG4pv+gvPWr+x9VnOyQ/lJrbhTkpw+/PkRZgEzFmZ5PHMhRO3c/e0H/k2ynLsw6ubfCosacDadeulKC5d48ZGGNWCaUVKlmzd3khW/rRSsgdmV5sDr9AdaDat3ahxyisrYYKpVqDPGm70mWVSnqxmQ+PulbI/pkvy8WdIYs9eO93pd9JaO0RF7gZJUvHCYStWyoUKPnAOTgMg0LL35HP0J1zOb731Vp+eifb6MehItJlBB3eMPS323gwSzM/Q1nNO/litsGTm3JpQdPobrDwLcDhZXTAAEZ1wNGlPXr5Amussn+1iGWt9qnMOTcgbMLQ7JWFDDHgT3zpSifLtcdOhd1XydnQK2QqgBGSyJugFt8zkyCRr0tj6jK9zvgNlo7wmD7hku0UI9aW/4ACDbJ2/+flanfCdAWyAmBWivS/5qgt9DNCm/r76BkwG9cBUMxzJp8ybRsyat0A8aU2QsIejrLDkERevO820HSZ/vvmEtOrfShJSdP6pRvWKthVJwbaCiCgrfTZY61tRR82IWudJSe4Hknr7ZEnsPEjqXHmteFBmaqcs+UlDRb7wrDTekieXPf+CtGcfyij6Dj7b5nCDvoTVBiZRTktJXmFAkRiQnAPWDDAG3MCBAw37bDhOBiKDALA13+HIezio4MVmBTWuYw0AR+7PnI2ynMCb9xmY1kHMNV/cGwMXj0bAKlIJOji1BaUhbYW7CwYEg6kntDZWvJaXTPCGxr48KaEHViX2kALQkskRbvQJDe9gD4RlKWa3U8rkO48fP15eG/2aLFi4wBE0EZcQcgAPTOvKy6me1IV+il8A39CXaGW3ilj+oJ/zc0p8LxSUgwYNCtu3MeJ5O33oMq3En3MWiaTvr3WpBjo6tSTkaypGKM2XlPU/y/ADjpLvHp0ifa/YV1LqhR5jvHBToWrKt4kgGqrhBBdelqVmZ3VyJXHzJ1J802RVYGRJhUdtmiVPKupul7kN4+SGJ26U+y+7VzrtpTsC6cweSwkwww2ZDQt8ATegiZNGTk6OAZQMLMyo4FAAKsQZpm0z4GGCtpUOXMvOzjaA3QrePAM3RkAnNir2lZgMTPtfBrGZyJf6WMvkvq9ByoCHY2PCiUSiHrhvswKx28ZTNm7wTGKR6ifmpIpowqQTR4J6Ife1e2SaNIC+ABebJtidqaAl4WIJOoYS75BDDjGsgSiL9pI/P9qHOAK7frwdeYe/+d5O34M+Qzhe7L4p30zkySYVTNhWgKYMM5YL5+FIlEU5eN3i4WmdQKqbv0+ZN7bPK1auFk/raOG8lZjFWyVt9edy03lD5OCBB8i8q+fIxt9ypdmA5iF7WRZtUWePYt0GaU/NT1qusRdmSpGUaEzyuIrcHbFVdEHh1XvsVvld4TS57fnb5aGrHpKc1tkGV1rdD18T78OJ4Rjz0EMPGUtbK/dK+XRsgPssDV9LfApTVst1wIcjv0CTOdjtz2MLji25P/BmgPkSdXDdDob2tphlMlmxoTDtceLuzOeqc6SuRFZELmutB0C0YMECA5CsYFWdsuzvki/iK6tpIEAHeCNzR2Tj9M24xorgsMMOM0IhWMGRc+qOSAWdCN6MiMTg1ukT9CMmYIAVpSDgj2iKtlvzMetKWUzEw4YNMzwXmeysdeKcevJ9yMeah9MkQL68g5wahoJ62icgs2zrkXf4VsSbMUMmWOthfTaUc58elrjFF1SoM0C8s0NAKIWF/o4Ct8YyiV/0kVw3oq8ccfAggyhPPfaUjHpmlOSm50qjXhr1EAVmEImPVqhhYIsT1aImcIwIooQgHtXysXZRHmO3l/i7MFVN6/KnyhUjL5enb39aATwn6gGcAYcNN1ECkSFaBwgNBAzhQogLQce2c7e7ESGAP8gfkYGTZQCACrfGM74GD8CPSIZlNnU3E89z3Q7e9vaYzwMotBcZcKTAm7Lg4lDQ0TYzUScT3CJVNt8MrhWwNmnAEdESIhEmFTutzPoB+ueee64RSheO2XzfvM/fcNH8WFXYk/15+33+pmxWavQryjIZAuuzfFPEcXzXqmT1vMfztJl9StlTEjd+tkrzBfTmOwA3pqlEhDSV6tZ6VPfcEe2Mj6E2jlvi1J17jyeFr+Jt4pk7Vq47oacMO+KfwDt8mCvOvUKS/1RPvHmb1G1+d+CrquoVZRWSt0x3Zge49zR4+6us1q0kvVx+TJ4p1z52vfw5+y8pV0/TaE10auIsw3E7ATeDgc6MDJxBZlp5VKc9gCZySjgpe+IeS3pfXpHm88TTtoMeYADHZQUk6g8HytEp8ayve07Ph3KNujp5JcIRAuCRSLQJ+piKP2sZ0JhVlj/lMBMk3DerEjO6nzUP6zkYZP9Z71vPqRc0R64MuMIwWFdy1mc553mwgwkQgPWXyBdREHtNHnrooYYTz5133inZ2dm79QlrHuRPvnD+BMoC+LkW7uSB6E5pqyrxtidETuniVGbla/oBSwskYemncu0xneWEYYdXkhkhEz3/uPNk9diVsnGeOik4xHSunO/OK4r12kdU5BJ+wvossxo3APAppT/KTc/cLPPmz9ttyVyNbMP6KgMOqwd2fPfF1TBwsbsmXnW4ZIBMGP427QXUATXq5yvhvIPCzJqYWOhj1gSAwWE6iSYYpCzTw2EKZi3Tfk4dACo7KCAicprA7O+H+jdtRp4PEFsTOIK8nRWOP47UFCNgdZSjOg6+v70N1nyrOqceiEiYFOCMiYOOaKaqfkWZKDH9ASvAjejmtttuM3ZFou5cQ6Rz4403Gvf425r4G8YEUQnADXcfqeQI3nTwPALvpO5J8N4B3IhKLhnaUk487lhHDTsfIadtjtx1/V2y/cs82bxQXYQD5cB1HFeobD+quW7bly9Jr5Dpnt/l0gf+IzP+mOF3oNherZE/GbjsMIOC0M4Y8K0YDER+o3PbO351Kkje/rhhFGxwhf4Sg4542XBw5McP4CZWhjUBGAx8rvOMNQEkbBhRFUdnfSeUc2hH7Gvcuc06AOiY3NnrG0r+vt6hXCYNHE3s3oGsbAiXareztufFe9Qd70UU2YMHDza4W7hhaGvS3ulI+dAW0O2uAdnYrYh8xuruQ4RnNd+3l+n0NxM139HJcod8AGk4brsCmDqgVCXgFGF4AWjqw/PUge3z2IwjksBNexwVlgzA+YuWqfdfU31k987pRITwX0NUkifJa76Vcwa3lNNOPk6Xa77jBSfEJ0i7tu3kguMvkNe+eN0wqaubU69qJSZN0w9hEzOHvznhzFHrXFynVP6QuXLb/+6Qu869Q/rs3UejCvpf/oWzCv7yArABbqsslkEIsDDgkW+jOAw3uDHYiFnCxAEHbk/+OG7zWfJg01c4VxScyL4xM8PyxZpoD6IDrBiIXYFoiHYzqAkHy2DnmUgm8of7Z19IVjlMTDgiMfk4mTyGqy6UCyhhr4x9NbJv02KDVQqA6LQisZfPM6xQAHEAlLwImbpUvRI5oruApuTNt+N58mfVhtKQYGH8AHwmA2gfbCJPzAKZdIg1jqyd9sG1MwmiSAec7e3hGcok+iC0J64Jz+BvwGRqcujB1ifY5+OUMJXWkYWFRXLDvU/Jt6WD1M579yVjsAUE/7xWR0UlKWsny6ndRS4876xdJlxV5cXHnvn7THnhoxck68iGUretArgfJWZFaYX88eZv8u1fP8h29XyMqaRkSsz3SK/CrvLo1Q9Lj649ogLAATyWr5iE8T3iPfFSP6u+AYLIIRn4oQy0QL4NHB9u93A+Vu6P8gAVODQGGIPPX4J5MaMVMhDtHKb5LmWYGxXjYcfABUyZpKoqw8yjukfAjckG6w9WCdS1JsrmOxNJb7K6gqNPYOJDDn/yySdXKc/212YTsE3RiwlPtIkf5YSzjeQPaNMWrHcoA13CEN08mokhUn3VHw0CvecI3ttU6XH8RbfJ2pwLlfsOPNZvoIX6ew4Zd/KaSXJanzpywRkn+jTf8pUHH33GzBky9tuxknRAimS2122PfAA44pW5n86Wz7/7WrY3dt6r0Fc50XI9cZsCeHFXGXnh3bJ/v/19Ak1N1RcwIVogrsVb87ZKx44d5fwLzjfkpHDfkUwMRDg4dlRhI1+4fwYjogy4ZLhFX0Acar0AG3M3GqwpMEEDYP4tCZoD5NA53KupfwsNQ21nAsSH8NZUXFQsm7dsk7jEyA42a5mce9XOOWnd93JqrxQ5d8RxQQM3eTBw+u7TV60xKmTMl2OMJVfWXg0ct0lj67TkTBXH/GNtRRYxlUozdLUR97fc/vKdcl/cSOnfr/8eBQ/AES0+oE3gKY5wvfY+FgkiUwZcEzGScbVmOcsSmKUvTkDhBm7aAGdGmU6WH5FoY7TlCc2rUg5GW51rS33ilDvx2jv1rNlz5OzbX5aSHpfXXDsryiRu5TcyokuJXHrh2VJXlyzVGfBw4LPnzJZHX3tMsoY1lIad1FzHYZ/L1TNWycevfiIbWmzVkVhzzQ1rSYhQiuKl3bqW8vx/n5V+fWtu2e6rHXCkJL5hdb6jr/z9XYch4fubdWBCB2Rruh7+6ujecylQXQpon66MWKvWrJOS1N2VNNUtyO/7uq1ZwurJMmLveLnovDMlQ5e51R1oDNhOHTvJVWdcKSWTiyR31ga1LKlsFpmalSoZqWlSjQ3j/TatRm7qwqk0pVwWN1kl1zxznXw9yX/w+JqoE/1qTwEmfQeGhGU8P/pCdftTTdDMLcOlQDAUcATv+QsWSmlcDYlM1HMyefMfcuxehXLRGSdI/UxVMjpMKME0ynwWDXCPbj3k4uMvku0Tt8mmOZsqAXhq/To7vLAqqW3NXGLkqABekqKxLdLnyx2v3Sk//vTjLqVbjLTAraZLAZcCQVCgEtvNkrO4tEziG/cIIpsQH9WNFTzrpsthzdbIVRedJVlqBhRuDgmuq1vXbnLzxTdJ6RTlwP9QDrz8Hw48KU1NkDLqSHzh7nL/EFu0Z1+DA09VZ4n0BXL109fKlKlTdjPZ27OVc0t3KeBSIJwU8ADW1sTf2wuKxZNSvZ2crXk6nnsVQNfPlGHttsl1l54tmaqpj1RiQshuky3Xn3+9ZMxJ02I11sZOT8w45fKzmmRJYl6leSxS1YlsvgrgZWm6aWrDZXL76Dvly6++3GWHG9mC3dxdCrgUqEkKVPKwRNGzpUC9DtU+N2KJCWPDHzKw7hy59sJT1Z00csBttgEAb9WylVx77rUSPy1O1vy0egeAK2ZntVLwLvK5L4WZRUwdyzVe+Kx6C+U2BfAp302JOk/MmCKmW1mXAlFIgUoyb8A7N1/BNVK7xauoRNb/Koc2XSYjb75a6mm4zXCLSnzRmXLqZtSVe266Ry0zcmTJp4ukoqRC0rLSJKVMYyzEsMmgU5vLU7yyuPFKuer/rpFPJ3zqcuBORHKvuRSIUQro5iy7y3rLVR68qRBRSgTECKqcTNgyR4Y2XSM3XnqmAml62JSTgdIfZWiaWpecP+J86R3XS5Z/vkwSkhI1+HsriS/enRaB5hm1zyEDVyuUZS3Xyp1v3SMTvphgeOPZRWVRW3+3Yi4FXAr4pEAlhK6oKJftgFi4OW/luOO3zJNe8TPklv+cLg0b7B5m02cNI3CDCSsjPUPOPuVs6Zewj6yetEpadm0l6bm6I8/uKoAIlF7DWeqnLEuqkAUNl8str9wmk76bJEXF/+yCUsO1cYtzKeBSIEwUcABvtTapUHm3jSOvVnk44GyaJQfUXyL3XHeRNGqoHo/hzD/EyhHo5vRTTpfjuw8X75IKaVSqsu+tina1EMArVISyVK16bh19u3z6xadSXBKb4QBC/NTuay4Fah0FKiksCwoLdHMCjVAXLs4bq5LN86Rv6ly55qyjpUXzGnT+CeBzEW/j2COPlUuOvlgaFzXSbdZU9l3bwHsnHSrqiMGB3//eg/LZl5+5duAB9A/3EZcC0UqBSgrLDRtyJS4hTOFFFbgrNs6Wnp6Zcut/Rkh2dpuopAO24Afsf4A89vBj0q/pPpJUzAaSUVnValeKne0WNlght465XT7+bLyUlP6z5Ve1M3czcCngUqDGKFBJbGLsfuIJA3irqASOu3fyHLn5klPUTK+5hgetVFyNNdRfQYhwcKfu2qWrXHP21ZK9qrkkFkbQVNJfZSJ9b6cMfGXzDXLfhw/Iux+9Z0SFc5WYkSa8m79LgfBSoBKabt6iQdA9uhNudRIy7q2LpUPxj3L92UdIx73ai+50XJ0ca+RdgwPf7wC56fQbpOXWJhJfUok8NVKPiBcCgCdWGBz4g+MekvGfj5fCot130Y54HdwCXAq4FKgWBSqh09at21TmXQ3wVlGJN2+xtCucKndfMUJd07tELcftRDnioRx71LFyxeBLpenaLIkvU6SrjUmbVZHolSUNV8ltb90hH47/0BWh1Mbv7Lap1lKgknt83rbtCt4hehuq52TF1uXSoegHufmCY1UM0bnG7bjD8aVQYp5x0hly3eFXS6MVmcqB11IAV2IhA1/ebL3c+9ED8tAjDxkilHDQ0M3DpYBLgchSoJKTzrZ8XT6HAt7KcZeumSFpfz8rt11yvO6v1ysqzAFDJR+7r5xz6tny0Ij7pc0qFaGUVVqkhJp11L3n1bl6RZP18sbfupHre2NdT8yo+0JuhVwKVKZAJUQq1H35JC5I+TSikoIN0nr7VLnj6nOlW5fYEpVUJgtm7nHGrtLDjh4mL/z3eTkov6+kbk6UuH8CEjq9FrPXEKGsbrxRRn3ziLz4+ouGCMVVYsbs53Qr/i+gQPxdmqzt/Pyrb2VhSSuR1AbWy77PFbjjijZJ41XvyT1XnCIHHTjAsNyIBicc35UO7I5phdKyeUvZr1t/yZ+fJ2vXr5WCePVQjFdbwtokTUEGrm3anlIos+bPEs8mka4duxqbGteGbxnYF3efcikQOxSoxHmXaSzvwB10dP/LsnxJW/i63HfVqbJvv761Britn5B4KO1y2sqoW0fJYyeNkrYLmknq9iTxVCji1TJ78HJPhaysv04enfqkPPfa864rvbUjuOcuBaKIApXAm417A2MpFbjLS6Th+i/knstOlH1Uxg3I1dYE95lWJ02GHT5Mvnjlc7l+ryuk3ZqWkrI9cQeI16KGe/UzbmiQJ09Nf1ZGPnWvbNmyxdjIuRY10W2KS4GYp0DIaOstLZS05R/KFcN7ypCBA3SfwJCziikiMkE1a9pMbrr6Rvngnnfl3KzTpP36VpKap/Lw/2/vamPaqsLwUyjtgJUBkYbBxhzB4NRMkbgpiGsMUfaDmDg1JhKXmaDgIomJ3bIZ/SFLNJJIxPjDoTEafvhXkQQyNSYESLYJkW8FSlvWD+gHvf2gLf3yPRdYoJ1jZHy1nJOc3nt7z7nnnOfcPH37nPecQ39aEsUSZwRuz3Hh26EfcOmzyzAaaf3zqI074qrjeGU5AgmGQIzm3fX7n5gO0TT2fdn/01TSCYJ+pBm7cOHM4zhdeQrMN3ovBWaFs5iVmQXVsypUlb6AbEcGhFE7FgJuhJJDYOQX95o4qUKBtBAmbJPQXp9CybEnkHEgA0mbte7NXnppeFs5ApuMgISsqTWqrfqjRnS5nwYyH7pDUUvEnWL8A2dPKvDWG2dISkhd4xJoNpsxOjoKjUYjWmtsur3X6xWfxfyns2ifyry8PBQWFuIR8krJzc29Qznx9VWYpKZAIIAZwwz6bvah669rGJ4bgVE6B5/cLy7JGs9kLomQ541Viqrs5/Hh25dRXFQsjm3EVy/x2nIEEguBGPL++Mrn+NlyHJHsh6NayojbB4mxBy8XL+D9+nO0Jvb+28Td29uLnp4eTE5ORuW7+2VRURHKy8tRVlZ294RxcpcROfuxGvtnDJ2/deLvW4MYdo7BJXPDLfPRtPQQLT8QIV/65d/MOPFYYdWVCVJUJJ3AlYZG0ROFrQfDA0eAI7AzCMSQ96dNzfhJewQR5ZNra0S74CTP3UClUo8P3j0HpVIpEvfAwADa29thMBjWpt/gVX5+Pqqrq1FSUrLBnLs3ubgfKA32GUwG9A/3o3ewD1q7FtM+PQSJU9zlJiAnH3kpkTk1Q/zczWTOCNyTDJX0GTTWNeKxY48m9CD17n2zeM04AqTKRssmX371Nb4fyUL44CpLmHbBSbL0Q5VjwMW612nAbknqaGtrQ3d396biWFFRgZqamk195m55GLPKTWYTJiYnMK2bxqBuEGOGcdgW7bCEbXBIaF0ZeQQhKRE6LewoSi27pfKr6iF3MgIvQ7P6Cxx98OiqO/yUI8AR2C4EYsj7l/YOfNIpYFG5RN4RIm6JbQTPHRjHhboaHM4/CEEQ0NraumGJ5F4bxaSU2tpa2lU+816zxE06NsTAYpjNSqUjs85NJhPG/h3HlIYGBmd1GDIMQWOZhl/qhy8tAF9qEOF9lJ4mvpL8vBRWjjvQciahyMlFsiqowtXmq2BLCfCJPDvQEbzIPY1ADHlfv3ET7303BG/uKYD8uCXmXlQecuD82VdwpOAQXE4nWlpa7lsmWQ91JqM0NDQkJIFHt51Z5CKh09Gz4IHL7YLb7casdRZakxZaow4WhxVmpwm6+RlYFqxYTA4gIAtikWJIlF6Wnrpd5C6hCUqZU6m49KIa9bX1fAAzulP5NUdgixGIIW+2k85LF3+EJ7sUqfoOnH6qAO+8+RqUOQ+I+mZTU9OWWdzRbWUWuFqtjv56z1wzUl+Jfr8f84552Ow22IV5WGxz0Jp10Jg0MNtm4QktwBkWMOe1widZRDCVWepk2SeFKJK1vxxvuy+S5c509piwnkW/nIlZ38m01+lJx3F0fPMr5DJanpAHjgBHYNsQiHEXUCj2Q1WUjHlXH149X40TpSVIT08X/xYzjXuj3iT30xJWFiszUTXw9bBhE4JWZq3KZDIoFAoUHC4QszFSZ5JLMEiWNx2dLiesNiv0t/TweD0QnAIMVgN0Fj1uWQywCla4PG6ABkchlyBEXi9+Inmmr4fZgCmTZIjsmc7OztlGnitWPHMVZEwvCRFhC3QvRQJZOAWKUDqdSrlksl5H8vscgS1A4D8VuM9FJpEbZgAAAABJRU5ErkJggg==;" parent="1" vertex="1">
          <mxGeometry x="390" y="40" width="66.32" height="30" as="geometry" />
        </mxCell>
        <mxCell id="TON8Vn33awzY6mw_OOAp-4" value="" style="shape=image;verticalLabelPosition=bottom;labelBackgroundColor=default;verticalAlign=top;aspect=fixed;imageAspect=0;image=data:image/png,iVBORw0KGgoAAAANSUhEUgAAANwAAABxCAYAAAC+2M2xAAABZWlDQ1BJQ0MgUHJvZmlsZQAAKJFtkE9LAlEUxc+kYZSFUBREwUCLCOwPkxXSSl1I0MLMsFo1M05qqL1mJqJVmzZ9geoTBEF72wSCi1atioJaBW1aB7Mxe92nlVo9eJzfO9x73uUCbT6VsZwbQL5gm/FoWF5dW5c9r3ChAwMYxbCqWywUiy1SCb619Tj3kITejouseXlyI2Gc3PTHt64/eioHf+tbTmfKsHTSd7qzOjNtQAoQx/ZsJviQuM+koYhPBafrfCFYq3OpVpOIR4jviH16Rk0RvxD7tSY/3cT53K7+NYOY3msUVpZJB+kOIQwDBSxBRhRJKJhDEFP0TtCe/u8L1Poi2AbDPkxkkUYGNiWEyGHIUaKMBUrVMQE/sUKJCmbEvn/vseHtnANBlb46anga6eUT0FtueCNeoLsMXD0z1VR/tis5bmtzWqlzVxFoP+b8LQl4xoDqA+eVIufVM8D1CJScT7JGZI008on1AAAAVmVYSWZNTQAqAAAACAABh2kABAAAAAEAAAAaAAAAAAADkoYABwAAABIAAABEoAIABAAAAAEAAADcoAMABAAAAAEAAABxAAAAAEFTQ0lJAAAAU2NyZWVuc2hvdB9TYswAAAHWaVRYdFhNTDpjb20uYWRvYmUueG1wAAAAAAA8eDp4bXBtZXRhIHhtbG5zOng9ImFkb2JlOm5zOm1ldGEvIiB4OnhtcHRrPSJYTVAgQ29yZSA2LjAuMCI+CiAgIDxyZGY6UkRGIHhtbG5zOnJkZj0iaHR0cDovL3d3dy53My5vcmcvMTk5OS8wMi8yMi1yZGYtc3ludGF4LW5zIyI+CiAgICAgIDxyZGY6RGVzY3JpcHRpb24gcmRmOmFib3V0PSIiCiAgICAgICAgICAgIHhtbG5zOmV4aWY9Imh0dHA6Ly9ucy5hZG9iZS5jb20vZXhpZi8xLjAvIj4KICAgICAgICAgPGV4aWY6UGl4ZWxZRGltZW5zaW9uPjExMzwvZXhpZjpQaXhlbFlEaW1lbnNpb24+CiAgICAgICAgIDxleGlmOlBpeGVsWERpbWVuc2lvbj4yMjA8L2V4aWY6UGl4ZWxYRGltZW5zaW9uPgogICAgICAgICA8ZXhpZjpVc2VyQ29tbWVudD5TY3JlZW5zaG90PC9leGlmOlVzZXJDb21tZW50PgogICAgICA8L3JkZjpEZXNjcmlwdGlvbj4KICAgPC9yZGY6UkRGPgo8L3g6eG1wbWV0YT4KM9vMDgAALydJREFUeAHtnQeAVNXVgM8u22lL701YaUqzgYgI+INgCRrRX4OaGBVjYo3dJMbEFiX2+KsYe/S3xBAgdjSIRFABKQoKKNJFQFhg+7L/+e7snf/tmzuzu7i7M+y+A7Mz8+a2d+4595x7yn1Ja3bml0kAAQYCDNQJBpLrpJegkwADAQYMBgKGCwghwEAdYiBguDpEdtBVgIGA4QIaCDBQhxgIGK4OkR10FWAgYLiABgIM1CEGAoarQ2QHXQUYCBguoIEAA3WIgYDh6hDZQVcBBgKGC2ggwEAdYiBguDpEdtBVgIGUAAUBBmobA0mpoR6SSkX27avt3hK7/YDhEnt+DujRwWgwWeGGteY+9mW3lMxmzUSKGy7jBQx3QJN04g4eZivYkyuFH86WvE/mSFLeLklq2V6KjhglaYOGSkaTZlKmjNfQIClIz2loU17792uZbfcL/yOFc16SspJ8FXXKgcphSSmZkjnh59L4lMkNkukCo0nt01+D68GokSrZCt593tx7UkZTSUrPEN6B/Nf+qr/NMOpmcgOjwAZ2u2a+gz+1iAEEWeHmtZL3ZojZJMW3ayn/nj/7Rcn7cpGIlm9IEDBcQ5rtOrhXpFv+isVSsuYjI9WcXSrTlWxcIXs+eFvyc3OlIUm5gOGcFBFc3B8MwDj5+bnGSCLpjWM2kdSklRS89rAUfTpfyhrFLFqvfgwYrl5NZ/xvJnnnDpEta4xxpLLRJDVuLXunT5MidRugijYECBiuIcxyHd9j8ZolErF3c40B1XLtYtn9/muuX+vltYDh6uW0xu+m8jZtdHdeUiLCyweolnkzHtJ93yJJTvf9uJ9fUW2RmPa1n83USrWA4WoFrQ2z0UbsxbZ8rYSeVBEBymiNWnWUpMzo+7pdzz9YsU41v8FcMCwvwsdQU+2LpmqKmas5rIjiPpttxO/BhQADVcYA8qtwzWfiN5jg+E7ufog01iiTnXdeIMmtO1RoE/9c0eLZsuv9t6T5sWNlX2GFn51fjGXTs+8rXLdWCtZ+KYVYSLdtNpEtZfl7QnVbdZJW51wh6V27V6ltZ4c1dDFguBpCZNBMKJRr39rlkQaTkiJJ79nfMNPe6UepS+DLCJdBcnYb2f30rTHDvrxMBlMWfLZI8hbPl+IVH0tZ7jbZp+FjZfl7paw0pLomNUoJfd7wmXz31SJpde8sycxsFtcA6oDhAk6pUQzgX2Nf5oWygiLJGnKMudTqirvl20tHqhRs7y1ijCz79uwSwsEyp1wn9jhwryr4/bfbJenT943bYZ8yEMwVAWqISSp3rvNb6HOGlG5ea+I6M8edqmI4oladXQgYrs5QXb87SlX1rmD1aoG5kppUvFf2dHnpTSVN91ZkDGRNuk7yXr0ngjGRSIXzXpXvBx4jLYYON07xgsXL9NosKV74luzb+V1of5iRHZKQHsaq2GPkt4h9ZWSROrkSMFydoLn+d1Kq5reiDd84DSbJrbtJi3atzP6JLIHkYydI0aL3IlVLGEgNLHun3SAFM3uqqji3nIGbGDXVv/erDlbLissks+9gKYtzPl5gpazOrAVlY2KgYPlHToNJSr/h4Xqk5KR36C5Z484OX6vwQZkOVbF49SIjAWEyE/RcDWlWoT39UlawW9IGjzFGk3inBAUM55+d4Pt+Y2DfxtUh55e3BTWYpLTr4r1iQrnSh42RtCMnGGao8CNflLnILqgUVBqWFRbELMbvyU1bS8spN8ddujHQgOFiTlfwY3UwQNRIBKOUFkujXgNNlrdtCylD5nf68JMMM7gc4rZshfdyBivbs1144dtLGTBKGjVvW6FY+IuWZzxNzrhS0jp3T4iE12APF56d4MP+YgCnM2b6fdsLpZHPYMLeKatjp8imlemyjxwuxUtONEmqkQXKr8Bk6scr27NHcB3AYGndDjZMTLt5iz6QvWqxjADqqXugqTJb9uhTZZ/2lwgQMFwizMIBOgYTOlWuI+UueEsZwqcwKdE30v2aC4gGSdLIlObjz5Ttyz+Q0u2bwvGXRk0s2KkSqUxSew6UlEOOkXQ1eGR0P9hYOfGlkUeXp3448uqMe8C3x4NJM8acJxmjTwllI8TZWGJxEDCcxUTwXiUMeJks7BfTZNPSbeskqXlF3xoSJqV9T8MkrsaNAUWjPzLHnCm7n7zJMBjm+9RDRkvGEWOM7w43QhO1bJZqnh1pPOTbwWxEluz86x1SslX79e33MJKkDBwrTc/6RcId4xAwnIsSgmsVMOCN8IDJ5MPXjWQpWbdUpFGqWhGbh6VThYrKUY269jGXoh2PhyraYuJkUwbnOOFXFjDhw5TFVh1ESimzFSmz7Xj0FinRCBJ7bEO4jhpJUjr3lxaX/sHsE6sSJmbr1sV7wHB1geUDrA+kGGCytzWhlBw3s1ea+ZiJ2EjKSDNM5pdooVqev4V7JU3VwMrCqbxMF4tBGBcnge16+VEpXv5uhETF+JLStqsQzZKuRplYbXlGWacfA4arU3QnbmdhVVGlCedIlu5WJtM4RRzUxSsXGIc2CaNVdj4r8QNl0SyIPlRUxhxIWcK9zElgs/8WOQ76031c9sW3GClZWXu+7uvsa8BwdYbqxO2IeEXOFin4fJmUrl5igoGLVy3QqI8iVeEaRxJ3tFtRosdYwVF4jdofJMmdxrotlNHqR7luVdqd05+T/H/+JXI85f02O+82yeo/JCElm721gOEsJhrgu5EaaojA2pf7xssmXrGsYJdhMv/eKCp6IHbqpKRJas5RZs+GGpnWuZtk9BpiqkXbv0Vt0/+DqpKk7ux+5veRzKZl6T/rtKskWwOTE1Wy2VsKGM5ioiG+Q8hv/kP2vHSv7Nu9zRgg/JH+TrRYJlOndkrPIyVtyChJ7drr/832HGcOqHr6Q5kN6cuCQOqOMc6EWg7/Ldu1RTImXCKtz7ykgnM9XCDBPgQMl2ATUlfDsYScN+sJIS2mUokGk+3dZoZnmSxr8FBp1LSlMfsTlAxgaKkpKcMYrfnfjNFv/tdok5QjTzXmf1wGWDQTHQKGS/QZqsXxcS6ky4/l7xJHNNa/TI3awHRvfWMhs0iI0C2x2zw2fxvV/W6Zbfuz90VmFWhj+NpS+46QlprJnXYAPacgYDidvHRdSUEEBITPx6UGke+VVh5IYQktWln2RpSnzSL1HYX9SPrdC5ShrJ2EaP3b8eV7xmbH42/f27e3L29d7/WQWIgeKGyYTcOpOl57n/GBmbo6jmj3VKHt/fzCPWDE2f36i1KycFZE3pwx/7frKc3PvjShLZKu2y8nIddPDeNaY2W2px56VM6deLp5t0zgvXuufblylSlz2flT5JdnnWPKcugpxOEFyn6/Y7s8eMfdMmnsBPnwvbmG+bxlLFNs+y5U7oSjjpaRhww0dWB2b5uM77brbpIp2qf9DQZ8c/pMMx7at+Xt++uvzhTa/NGxo81reO/+ZkyMLQKs0y3ih9AFojhKlr4na4/vIptuuyIUTqX3TVtUtX1Gqf6DLu/bs9MYY/yNmCMUNIIlqUuvhMgA8I8v1ncfucQqWv9+g3A3aeTEXddeKSuXLJGlixbJViIpHLBkwQJZqq/NG9bLju2hOq8+80JESQhw4bz/yKyXXpTP5y2UVSs+jyBKTrdaMHeO/GLSJHnlqaek20E9pVuvHFm5VCM3PEBbSKZ3/zVLtmzcKDCfORlLy3y7aZO89ea/pFWH9uFrVGURWP3FSsnfu1eat2wp7Tt1kp59+0pbTQAlPMoLTY75L6MqVhatD9M16tbRMN62G0+V72/6iWyboSZ6PdqO/owPrwaZj4WFbIJMPXSI1Br/+BgPRyzwKKwDDaw2k9DjZjWNtZJGU+0quylufto990ibLj2kY7duUpifJ7t2fCet22h2MmFE5UDfq1eukJxDD5Wb77tftm/eIg/pbzDoaUpwNpKCccKwH875t2RkZkqXQ3qaMrYd3imzRhli2r0PKh0Vy/V33CmHDT/aFFmzcnmF+4S5kIIlxSUyZNiwkNqrY8lVdWvj+nUyaMBgadmqZZiRKF+gHPr1qtUy8MihctHVV0uPnjmmbT+OMGzgsyokjvH52yVJMlWaxCYHE7OoZ5Gw7yP2cY86wlMPG2ue+UZgMYmlMJ/dz5mO9/ePLjTNh42V/I/fk6KPXqtwTglNYlXluXNkcSdK6k1VbjU2hqvSQi2VgcghTgAihhG2bf1Wdm7PDV3Uv9mtmknrtu2ke68+Zh/mJ6pwQccHpNvyz1fJv156SY4/5RQ5KOdgmalSiT5y+obi/7zVli9eLJlZWYbZNqz7RrZu2ihHjxplmM2WQ4Ig3ea88Yb87NLL5ON5H8hnixean7kfy8SL5n9ipOU1t98h4087OXy9bbuRFfaQ1Fm1/HNJSU2R7d9tk3+oqpi7a5eRXmu++EIO7n+oMnY5ksoHAZ6Qwi1btZL5775rXhMmnS4tWlY82McUV6JuceJk8xGmYxNbqbVSS1vGo2LRgn9K0byXJU8NGKl9j5CmenwCDGCslZ5Fy3RSjT9GfdY5anbCJNnx+byIjADGiaqbv2KkYfSaMtZUY4j7VTQhGQ5mAD6cM0c++c9H8t2WLbLhm29kuzJDcXGRlJaUSqOURsqQadK5W3fpM2CADNEV/chjddKV/mC8WGCJ//lHH5GiggIZd8pEJeSdsnn9+goMTRuUpb1Vy5ZJ284d5a7f3ijfqYTrM3CgnDDxZNMNxEG/SKNZL79kVLiho0cbKfTP6a+YBQOpCezRWMCtWzabz0OGHm7eo42XyUElTc/MUEb+QN5/PXQkeONyP9fpP/2pqW//MNZStY/v+G6reS1XCbxm3VfCWPxSmzqMG4mUrQ9HTG7ZVvbOfc0YKXBiV4XxaINyGFY4V9IGKjPubbqPhcntIkPZ6gJSOLPvEOGIBg4RckH++zMOKCmXcAzHPmXFipXyhhoFFuue6ZvVq3SFTzUMlpwcYjIr+UpVpHy9+ktZuWyp/Oe99+Toj+bLmeefb/YrhTpZ0YD682bPVemzWCDe5x9/TPci+ZKalmb2Rt56lF2pkjBv13Y5/IwzZNjI48zPvfrmGMnKFwgdCyPSbfH8+dJG91UP/vEPZt/VKrmZ7vl2hPdQ6ekhfxXtwRwAfVjG9hIok/PVqi9l7WfL5NVP9Lz+cmA/+fCdd0iv3kj2ciez/kZd1N3tW74VpKdl6K4H5YTVTtuGfUf9o28OYOVRwAWfTzKnZCG5CO2qzBGO4zml6wDJvPJh6agnbe1VvP/lT3ebsSG9Y82DHUNl7y0mTZGtDoZD0nLQEI/HylKpWsk6W1k3dfJ7wjAckw7hzVWpxv5m4zdrDZM1KV/NXdhopJsWXki63SqhMFTk7twpF151VVSmox+I4M0Z0+WbVatkgjIRsGd36JRe9kb8TjkIGAR9vXKlZLfrZJgNIkIisV+ykomyRLE/MvUu6dCli/QfPNi0yR+kJgxySL8cKSyXhDAK7T02dWp4nzX9+edk1ITxYalg2tT6SPbUpKYySOtzeocdD5ILlRqcMQ7Ko9Ki7iKJmzVvrkaTNgwhfC/mi+OPYXK9Z5zXGZqFXdDvUElWIt+lZvmCN6eZGn7Gs0miRHmQRNpa02reK5+7rZs3Sa/rbnD0VP1LLAik7KSPPEMKZj8dKXk11pNIGc5I8S4+1e+pbmokBMNBLBAOUue26681KiNGh+qAYT6t89b06dIsO1vO++WUsDHD2w79YDZ/Z8YMw2y/v/fPhiDZJ2I13LRunezaub2CCobVD+kHgQMQqCHS8oZp85Gpj8rCxZ/IrXffJxf8aor5hcUD6btg7lw572ehvRI/YCQZOmq0zH5xulEVi4uKJLVplvxEy2CVBGBoxgTx9ht+mLkGY8G0jKd9dmuzfzU/lP8xFko17mzdsEnuvOF62blhm3Tq113+d/bbTlx46/LZGjsg3OQOzaTNhXog60+vkx0vP2zOkaQM4VXELqZ06quR+U9KczW84Au8W90gLzz2mDTNbi4t27QN44o6PxTIi0udeIF5npyUP7bYtmkslt9vkr1qNc2cfEmNRbnY9mv6vdHl1//m9zXdaHXbU1o2+7Vbr73GVE1XVWF/ISMrU959eab0HjRQDurdW5L0uRJl5TtqGFsjlGTJJx9LU5UAv7rxRslqnFVudS6RfSVl0qlrV8np389ch6nSdEn6bMly6dWvr4z4r3GSlp4Vbs+OEcnynu6vJp5+pmCgSFfjSqn2mZHVVKVOqbRQS+JRI3QfouVos3nzLBk2aqR06NFd9mm5zj16yHkXXax7v95hCzgMt2H9Rh1/kow6Ybz00N+oW1CQK3tz9xopeujhR0h6Rmg83GdJSaFsXLte+g4eJP0GDZIhxx4t4yeeJr37D6iwQNhxx3o3ONP+wFnW4COk2aTL1MLSRYq/XKjS5r+l3U1/kcbtOphF8tKzz5JP5y+QVm3baApNmXTs3EVGjj/JLFrgJhrQtn9+vN/D9XQcWYqz4tJ0PQNF8+DSssI/8YHvRQvekGanX2nGa+e7QqEE+ZK0Zmd+OTnGZ0RIB4wNl59zjtnoR5NsXmMJezkkWjSAyNcvXyMvfvyBHNwnJ6z6Ud5KU1gaFc3uMbhuDX7+6A32lQDSxyvZQldDf20Zb11vm+xtvMB928gV1AzvWGw5bxlb346fOt6+qOPtz7bB3hLJGG3ctlxV3gm3skDm94tPPGH8iI2bNTFqPb8V6F64/+DDjKrsx72ty7udd6ywhx4x0Lgzsgp3//+ZJVrGHqngHfuGcwfqWSh69z4XBqd4ZYy7UNrqMek1FcvpHW9NfWbe4gYQCC8mjv0UxgY/wGhAj17q58kMrWwYUvbszlWTeKTaCbOhoh1zylj5/rtNUpqTU6FJJg8m89G/IUhL1BUq6Jdo173lXGXoy3WdejCB/o8JrjLRxk9DsfqL2VEVf4SQmS/6Yc6efuAB6dSje0TtJk2bqJRrF9VQA7NhrcUHWqhWYhgOZtt8zghJG/tjKeiv1tv2PUwuHXGb7C2TtF+g6VnXGB+gP9ucPSaPMP5eVc9stQhb9ThUK3H+xpXhQDwWwGgTB7M1b9FKzr34F4JVECMAfqbVK1bJ27NmGR+Xl+lYXfk+7owzq2StTJxpOLBGwh4X41Sr9u2cA0/P0LMglUlc6iQMC7MRpUMEDRE2OOuzO3c3beFb263xk7gm8vVskpTeh0uBGphwW+Bcl2HjJfXj2aGTmf1bD33mQOFzUyXp13eY7HDn4OJ8Ma4MR+d/f/opaa57HBcU5hfIzU/fbyx8qEasrPiTcExjeLjzhhvDTLdHoy/a6jmFMOfw40dKM7VuWnXR1faBcg0C9QN4iBegybPo4YjHF+oHrmG0YtxIaC9wjfqv/32GvPLs08a/uGXjetMeoWcpvXqEHNzpIZ9l6ZavzEFBBeXuib29NdpGjz4vy9JDixxg3AS6xyN/LlEzv+PGcCAfJsKqiGXLDzDQ6BNPMszm2jsxQdffcbucNWa07MzLVwY8JrxvoK39YTYkLuOKhhTL9H5C8o/9h3ynf8bhHYNVSwkIsNdrayz0Hw28jL5THdvspf3AtbbtO5hx+tV27gsL8bOPPKyLZ6nZ9xFEgD8S3kw+aIiULHlLw7iahprVfVr4s15B+pWoroizHeZyglrFyF6H4RIR7PzV+dhY6TB771XGynZIOOIHO3XpapjSO9F2oDBUR2W6q/9wqyxaMF8uvem6sBrjKm/r+d8hMGssIZCZTTzRHcYfp/sL/HOt2rQ2Y8np209yDuln+oXg94ep/f3b7xAjRhQWFyJsvli20ji9t2/dapzylMtUdZl9bI+cXuHIGow1liFtW9V9tziAGHZr/+DPy3gWn1zjRfgbflKvOk+f7J+xMOMDBD9eYJxz1O0z9Xe/MZIN36kF/Jw91c+YqXs3o07aH3zvISaLwmiesjzjgMTVRIyxjBvDMXFEYKSpvu8CpN4Lf51mfFrFWtZOurcshHb8ySfLGA2x4kaqI3noH0ajHjGKhGQRtRILCCmDyI4ccaxxrsPwLukbqw3/b4yjqY5jl97LM9MeNfGcGIRc6pqtu3LZp8bJ36RpMzlZ96v4/fZnAfD2/bimKL3/ztuq3u0w3RBYbYG98Vk/vzDcD9eJZnEZTJhP66+09WE24lYvn3y2tO/apYKFOVPdMvgVj5eTJT2nn+Q6ni9n26nye3GBOXUsKbl7wu3ldLrjAzAQke7EMrrAmv3JA4MxIA4X0A4WqaoyG+0gTQBW3CE9cuS3v7zEMBurbqwXzMYqzmZ/SPfOcq86e3E229jPUKtV++sdxyNK7D2zM+XJBx9QqVlgmDrWOPiNsVD2sT9PlSP1HjA+MY5oePKPyuKAvge3yDLtsJ+C0Syzca8AzNWuo6bn6GfwTAC5jec0Bcr/oCYS4N2zzyHhBZIxwWxTTp1oGNTOq62HJoMBBud2oT5HzgDHOei9hZ2StnBV31M1nUiPfoj3s+Bcw41Cxq6iNXuNuWQfFgsgKgJwIWxU0KoSU7Q2bX3SY66bMkWuueB844pgpYaIqwIQDOFmhw0+3ERW/OykiUY1rg7T2XGYpNYTJxhipz1Uaz9BxhoTZXGltFSH82Tdy7I/qgqeYDZ8n3+8+tem75xBh5l2/DiwYynOLZIeffqYobDAkIsXDVB7m2eHcu/oh23DLVdcrgzqe8qHNoDkPGTIEKMtoGkQ7Nzm7umSOeHnkqonfvF0HKA6zGeSU1t1Skh1knuJm0qJZKLzo447zuSawVwugAiJkWQjPum8yaaIS7101fVesys6mdLPPPI/Jr3G5ffz1qnsM/UxHhASdtsjj0of4iX9lgJfIzAbRDvvnTma4X2rCWP7oeOAMVDV7vvjLaa3cZ4sBl/3RrrDbPjA5s1+x+n7jKjTLM1oI/Y6+1tShlzAHtMuPjAblmSyF/zzC7P16tNXLv3t7yrEvWLssAYP9mGc+Jz/2SeSlLdLStZ/bs4yIcXB6fzWc05IWM0cM8n47eIa0eFCjl6La2hXss5ZcnKqyUlr1iI7yhA1dEep9Itly3TlbCk5/XqbctUJ34HIecFsBBjv1pyyrCaRK64dAKpUmXZgX8lUjgJpSl15ml29bOFCDdcaY8K2yjWxiBo0A7NhFn/yoQeMpS5WGBvjKFIOLkHF0n9W4kQ0rBcYI2UYR7ee3TWLvHuEH4z+wdurzzwr/3zhb5LZWA95jXFvtp/kRsly4ZVXmTCs3F175O0ZM02qFFkcXkCl7N6rl4wfP85k0sPUn8ybG5PZ/ItUmWo+vJJ0nCktsyWzzwBpOuwESes9SOM7e0lSyy7KbKkq9fZIWe5WDbfJD720b54p0OS/9fFUw0clbLSJe5nyYrEWP7MfwGc24KijnFYv2zWElq+PoUUyNWuebfLeoJOqSjroAnXrL3+6wxC5f7W1/bDqFqiLgXhMAnABshAwXWPEiVaP61jtILBrb73NMLd/bJaukWzPq3EEp75fhbPjwCXC3qZ1u3bm+AWkBpKUPhifN5TK1uGd9jC4vPz08yawuadmJXj3topGczYLibbk2EVjYLt3o02idvBvgkN7T5s3rHcadXAJkMi7VcdPJMr7b71pgr5pxwI47tStu5FsMJt3fLYM76avcm0B3GFxTO/a3TBS8beKh7VfGp8dj6oq3ZMrKW06CNnftoy3rUT6HFeGA6k4qC+88lK5/qJLzOREIwKICdXkIWWaXykGh40aYfBoiSAaUlFvMLOjvgEuIof49+bukZEnnCD9Bw2Wrgd1qRCJT2QLxyaQYcB+yTVGsgkWffihfPT+XBk+ZkSEagmxc44JEjYas0GMAP7H48aeoIQeSq8xF/UP5vh1X62X6S88b1RiV+oSzE+WOVnlZMLbhckyPKlCpAy51FiLB46bsIBR6xBPuhGWZeaB+/UDeMG4QhQJ2wDKeHFF+yxk12quno2zrGz+6MOUUVpRoWfAMp99ug4XifPkeyLHUTLOuAcvW0J49bnn5P4/3OIkBAZqAaLEHF6VPRNtszKfpCdYWUerbce+2+xtiID4P84nsZoSE00brMJ232WlpItxGduxY8cZn6A954R+aI9wpivOPT+qJN+phGyd94yD0Cj69hMk6ura1SvVeTzN7MFcTMc4CCAmMIDIHMZPW9zD1N/eIgvenxMhrZFqbTt0NMyA9dgPGDSshDxfDT0uhqVOzz79TNIwFlQvs/EbuP7zU49rXmHFoyT4raGATkN8wRLU+B+fImdddJGZlFgjYgVHvbxKDSjWFB6tPP4tjqvbvXOXU7Jt/HqtOc/kCT0GgRUXJgEwfPCCUK0RhN9IPr3prjtMW6zWfsB3xlkj327cFGZayuDQZtXnZDCXWgohclzCPU88Gh6H7Zt374v2CG0jtajPoQOMpY9rXqCPJZr9jhPfD6tWrHCqg+CIRQc1Dyb1vrxHJZBRHs2VQ19fanY6bgU/s5Er+MS/XmvQzAZ+4s5wDAKmY0UnafREzcBmtY8FVrqw0mIJQ230A9c+Vf/PK0895YxkoY/zLrtMbr//z2GCZhx2AfC2Z69D+CN0dT77winGuujd61CecZHJgApqAemGg/4311zhlAqMg3u+5oZrKozD1ve/MxYWAZzuZ19wkZH2/nFQhz0gETNIRKQb0okg4U1kkOs4vUB99otklduFxsvkFie0RUa5ywdn2/MzGtdZUF6c9VYo613HbtuzdRrSe0IwHAhngs1+To9HYC9l9zPRJgOiyW7dUs45YZwhEqsG2vJsTgmMxgDiB9qmDxhcabDKBAChkIOGND7qWFWL1KDgBwgdPxX3A6Ej3R67527p2fUgf1Fzj5wZefOfbguHVEUUinKBcXNoEtH2qMt+wGyP+R410gL7L7LA/UB92okFViXluMBoLgFXfRaUi359tYzUfe0PDUFztX+gXUsYhgNxrK44w8+5+EKzB6kK05UoZU/93U0G7xAFAPMRF8nRdv7NPas5KtfZUy42UrW6qy2M1FINPVjjXOFXEONutRRC6EgVGPSdmTOcAdqMHTWOMtUdB+WJwBkwxB2ki8meXDMvoA42bhtSm73XycogPtMf/+gtYz+TJeB3B9jfXO9YVDkukPlgXho6JBTDMRkwHXuUX1xzpXGMVsZ0GA3mvftOhSPFYTxO0GKv4VdxOJH4+JNPiZkgWRlRQJgEMpOr51LnqI/6xjiIJmGV948D0//wMcfXyDhcUfuue0Ad9C9AlMvfm2cCC1x1/Nc2b3C7BPzl7Hc0EU4yw2WCtLeLov29ob0nHMMxAZbprlDJhRm5MqajDqdwseozoaiT5rhvNa74gdWZU7NQX6srVbxtccQ4cYOxgHFwGKtLrYXIOXLPa82M1ZbrN8bPOKoC4CWaOsjC1Llrt0olXLQ9oLd/lzEJi+Y/nnlGZqovFKnckCEhGY4Jgen6qqTjaHHANZHmh/I/HCeHNEFtYa/A4bFE93sBaVTTJ0p52/d+5kRkGI5zJf3AOIiSJ4sdtfOHACZ81x4OdZXMay9EUwc5I5O0o1gLEOOMtgekDyT2qWdPNgYZl9Qn9Ozx++41Z466jFzecdbnzwnLcCAdxsFM/bup9+q5/xX3I95JQaUirYS8KoicIwDIY/PvsSDMDnqiFMejxyIub9vRPtOXTWXxlsFo0lT9hBw1h+rJQuAfB+WJ3qgpcKmUjIN8QgvghbQel0qZq/FeuAGwQkYDJCR7wFSNq3TBLlWbObHs4quvlS3r1kcUQaUmCubZR6aZZyM0VNUyoRmOWcNIQVQJiab4zaIBvh/O3TcMp0cA8GAOPyDxOODGHpDq/72q35EbqKwmb80hoohRJAcMyM/LUzX3B4qxUFMRfyFapI4LsKAyDutbhPmXLl8asZekbtf2nc3+qrJFiD1gtPxF2iFLgKMvjh0/wUg8rnkBY9Un//nA+CRRLRsi08WN4UA26l9llitLBMRcckqyaz/H6ulVYwiB4pFSfkJH0pBBzZkc+wuMd51a3FBZ/cAYCIsiNCyWxY/x8jCQmgCkTjRgX8Z6wIsggWYc+ugD8Dl46FDfVfdXnomAKuwH7hvfXHNdZLAyY/DCmOWdE28dYjnJRaxs7r116svnOmc4L6ORJsK+qzKdHimHYxwjAxERLoCISe0HSJDM27M7YjU3jumv1piYxP1dXamHBZSV2h81glTJUb+aNwEzmmEFowkO8lhqnOs+vdeQ5kgd1x6OYOvklH1GijBmGDOreWT+IXu9jnr4bawFwvbJY7BcLgH6t/GXzBUxnAQHYBH2A3NAIPbf//acCVpoaExXpwxnkQujvfjkc+YAoJsunmLmpDIGiPU7K2lWk6YmtR/CCTmeI53SdATD8kQejDKx2jSD8v1h/Kv0QSMc0ec3yFAUCYp/jlUewgM6q8SLxhAc68DTUqs7Dm95+ySeUG+hv+CDeFO7V7WM6VIH/Xs9bzvez7SxZuXnzj0g+2sb4IxGAp54TgJuD5dGgvTjaUCvvfyKWXC89+Ptsz5+rhOGYwJ4wWjvzJwp12u2NU9/YY/BasczBWKZi5kQHkLIvsml0kDQNrUfhsPxHM3IwsrPk3YWzZ9jVK2qTipSmPG/9NSzhlgipJvGVrbv1MU8GsqqwbRN9oFrLNTHP/Xea68b3FSF6CgDHtfoobkYhgCXags+ePqpF6KpgxzihE8xFtAveGUPjSbhB8u0VkqymLHo8BgwrMIuCzPz8NLTTxh6oL2q3L+/3wPxe60zHIiEUEn+JPuXrGTyuuxxAjAdj4siEsGlWloi49FS/379dcOkLkT31OcIEF/IZHNGRjSw+ydyxlBnMW7EmmwInHEh2XDecp6J65Qx+hv3o4nGqmqlGwQ4UHP9UB9dQKrPEw/cZ3L1bD+usXCNMVCGMfNcO56WCtin/njbR/oiWa1xCOkUTR3k+AR8ed5FwtsWn+ExYlYp6wLLtJbhKAMOCD0bd8qPFL+RTMo8MM6Xn3naZD84+NjV1QF/rdYZjvPhIVQYjTwtVnavdADxnJZFGSYVBoC4ePGZiSB5lEdYuayCdmM+esJYMxms/IQ0ufYadrZQaYim5xluOGMB2y9EbYmfa1b9veOG3xhmo64fWMH7HDrIxFh6CRei4zFVPLzRtcpz76ihpPw8pYf5cP/0bcdicYD0h+Epc9eNNxhXA+riDpVOaAh+8Prg7B6RoGqXS4BQL1c6jrdNGB5raDSXgGVabx2rWp527lkm7cd1/9AB43r2kWkNRrVk8atVoAP8QeydouVQsZH+8N/vmdN8jxoxwkgFBoWvi8TPJR9/ZPYCXka1g8ZQQe4XOVassFggXT44W96+wzhEXuCMpQ+beNqiTUdTBCMD0fY8x5uUE/pxMRuFSV7ledr+054hOsb080svlzNPGmsOHjKNe/5w7ywaHAlIzCEGjCFHDTX70X0lycYowjhJ++FULfoibw7pReQH4JIg4BwzPQtWno5j27ffRkhm+uV5djjpLWN6hlbhI/hw7QEptH1frglR8y42XEfbACfc/42XXBzRP2XAKY9oBv880ovjAusz1DrDgbzhY0aa03ZjIZLVHscsxE1GM0DIEVKNldnFbJThCDcSLS3gEnCt+vZ37zttkihJQuai+R+qVM0IExV9k3cHwBSNtKwLyPN6Z+HSqAcIQXRkgJ9x1rlm7+dSR42k0/aR9Lw+mvu+PhxGxZoC47NGF8ZBcDQH08IkqNn4+fzAngpVHWkJIGldB+7SbvtOnUKFYvyFSFh8XBKSavjxeOCGi2m5fzIFyPd75Sl3qhQ4IfkY9dt/xkmMYR2QP9W6SskktOvUUSb+ZHKV8twgPs4R4QWxwRRcc8GqTxfK/c89H9672TJEgLhWffu79522bR/0Z/vGkQ6B83IB0oH+vXlernJcY+VnUcBQ4LLa2Xre/ujfJnJ6r1OWs/uRHLg/XAHaMCUuElRBXl+vWRVeSGxfvGPMQaJWBjAcIWqumFCjTqvKTGCyX8LZdsmGuJJ8P9US7BbA/mbfSbXCYs3iYBcK+xvf/S9+s/dnyx0I77XOcEwCPjQeQE+So0uX9yPKrPjKCNEYjUkjAv/au+6NyLOCCJFw0er6+/J+r6xfytI3TEPZaTPfNNKrsjwviAir3dQnnzbm+lhM5x2P6zN7U0LHiHbB/cEi4QXGl63HIXhPP0YddEkna11kfiqDaCFq1kATqz73j2pNxrcr7Iu6LCpoM3f95qYwI8FQAIYi+2JPzQsGxKWyP26VUKvx+VvrDMdtKQ0IJ0hdcAVPqNQHNziOJ6jK7XuJ/ZLrb5BzLwklkFLXTg7hXRCSC1DTfgixUxc1jD3jnx5/wjAbxFQVQLVCXeIsFs5jBAf7gweMLBzUA+D+QGp4wboEvD441EFX0ih1aYv5iSadwCsszaOPXVoDp4i1ad/eOwTnZ3v/ZNmzWLoATYNUK4xkMBSAEYyDjzBw8bw/fHcY2GA6rN4EIURRgEINJNjfOtnD2ckkPAuGeOnJJ4wUYp9RVUlkpIoSG8T+Y1VPia/0EwqT6opugFE5IAez/WefLjb7NYiNVb+y/qlriRpGOUINFgTpIrHorzpgie7m++4zx8jhDyTEC6kVayx2DBA3GeJIL5YUfHD+yBvKZPaquN9EHWQR8jP43q25qnpmG4K1c+S/H4iZcdMPKjFj8QK44ZDeaPW9ZSlz5vnny8qlS82zzzGYeNtjLqyrgJOe7fkqONGZ11FqGOPUMuYB/yXgleTevhL1c50wHDcPslFdTps82eRekb+GsWK3Egh7A1Zu7wrKRGLehlDIGobRsGCCfBvJ4Z9kVkPXqcDW6EBdXkwWjIfRgSPjIHYkAIRPn4CVkqjBQ4YOM1a0IUMPN8mx9FtdZjON6h/qMf6Lr75GDj/6SPOUHCyhmMftWGxZuygwhoP7H2qysqnTX4+tQ40lqoXzULyAS4TrWDENb6iEIk2HI8X9gKO+snw6JBx7QMC1ONlcOn/bru+glqyEyRdfYE4PQx32t8lc4KfleIwL9bgNcAUgza3eQozoInXrRMt2d/WdKNfq/Jg8JhB1AZ8TzlvCrHDKsu/C2IGhgDCtlq1amQ095u3eh/YxYUrE6LHiutQ42kTNeOj22yOOgWNl79HrYHnwb88a1ROGoSz9s+cjggVnOcQKcWKUYJ+EusUKSmyknXj69jP6/kymxQMMuO6rlSa+k7GgAVgpjQaA8YMxoCJ2PaiP8U/aMdhoE1f/9qQt8MKzFKIBbTKWaPfEb+yTrKPd3w6uC3LpbH/+3/3faY/jJ1jsKgPwDoNyvzA9J6uxl8NviF/Q+g+r2ndl/dXF73XOcPamIASQT8gW/iR/BD8rNKZv0ksoC0GwYkcjDEtYOKjxV3mtizDc4UcfY07osgYO2z/tcWYkYP1a9Es+G45noLK+Q6X27y84YBHhHbDMxGeuMU7ANQZbJ1Si4l8vnmwbFUuEvsXCqS3vHYe95n33jtl7Pdrnytqjnvd+KW8XWnvPfLfarfdeo/WZKNfrTKX03zCTBMBQHPPPSuYHi9CqqG9MBD647fryqqa2Tf/G3vZPPZszpnv2ClCVfitU2I8vEIuXYBiPJSqaizUGb71YXdt7jVUm1m/0E2scseq6fqtue5S39+p/d7WfyNfixnAWKV5k2mv7+456Q6q/PyIEBmRj7wI7ga7f4nEt0cYTDxzU5z51Pa0fAKHmqrM8WqBwVQ7JqR+YCO4ikTFQLxgOFQz1E4MDVi4vYHbGElZZRLy3TvA5wEBtYaBeMBzIwfJFzpffwWvNztaiVVuIDNoNMFAVDNQbhuNmcQT703KQcLgZMOtbI0xVEBOUCTBQGxiIu9GkJm4KEzEmfZ4MQ/aA92ETRMl3O66niT0s1H1eAAEG4omBuPnhavKm2cOhUi77eImzWfZv9T3tw3njwcWEw0C9YDiwCtMh6aLBD/VFRWs3uB5goDoYqBcqJTdck/686iAwKBtgoDoYqFdGk+rceFA2wEA8MBAwXDywHvTZYDEQMFyDnfrgxuOBgYDh4oH1oM8Gi4GA4Rrs1Ac3Hg8MBAwXD6wHfTZYDAQM12CnPrjxeGAgYLh4YD3os8FiIGC4Bjv1wY3HAwMBw8UD60GfDRYDAcM12KkPbjweGAgYLh5YD/pssBj4P69h6WwHigkrAAAAAElFTkSuQmCC;" parent="1" vertex="1">
          <mxGeometry x="336" y="310" width="77.87" height="40" as="geometry" />
        </mxCell>
        <mxCell id="TON8Vn33awzY6mw_OOAp-7" value="" style="shape=image;verticalLabelPosition=bottom;labelBackgroundColor=default;verticalAlign=top;aspect=fixed;imageAspect=0;image=data:image/png,iVBORw0KGgoAAAANSUhEUgAAAIoAAAA+CAYAAAD03IMHAAABZWlDQ1BJQ0MgUHJvZmlsZQAAKJFtkE9LAlEUxc+kYZSFUBREwUCLCOwPkxXSSl1I0MLMsFo1M05qqL1mJqJVmzZ9geoTBEF72wSCi1atioJaBW1aB7Mxe92nlVo9eJzfO9x73uUCbT6VsZwbQL5gm/FoWF5dW5c9r3ChAwMYxbCqWywUiy1SCb619Tj3kITejouseXlyI2Gc3PTHt64/eioHf+tbTmfKsHTSd7qzOjNtQAoQx/ZsJviQuM+koYhPBafrfCFYq3OpVpOIR4jviH16Rk0RvxD7tSY/3cT53K7+NYOY3msUVpZJB+kOIQwDBSxBRhRJKJhDEFP0TtCe/u8L1Poi2AbDPkxkkUYGNiWEyGHIUaKMBUrVMQE/sUKJCmbEvn/vseHtnANBlb46anga6eUT0FtueCNeoLsMXD0z1VR/tis5bmtzWqlzVxFoP+b8LQl4xoDqA+eVIufVM8D1CJScT7JGZI008on1AAAAVmVYSWZNTQAqAAAACAABh2kABAAAAAEAAAAaAAAAAAADkoYABwAAABIAAABEoAIABAAAAAEAAACKoAMABAAAAAEAAAA+AAAAAEFTQ0lJAAAAU2NyZWVuc2hvdAssiSEAAAHVaVRYdFhNTDpjb20uYWRvYmUueG1wAAAAAAA8eDp4bXBtZXRhIHhtbG5zOng9ImFkb2JlOm5zOm1ldGEvIiB4OnhtcHRrPSJYTVAgQ29yZSA2LjAuMCI+CiAgIDxyZGY6UkRGIHhtbG5zOnJkZj0iaHR0cDovL3d3dy53My5vcmcvMTk5OS8wMi8yMi1yZGYtc3ludGF4LW5zIyI+CiAgICAgIDxyZGY6RGVzY3JpcHRpb24gcmRmOmFib3V0PSIiCiAgICAgICAgICAgIHhtbG5zOmV4aWY9Imh0dHA6Ly9ucy5hZG9iZS5jb20vZXhpZi8xLjAvIj4KICAgICAgICAgPGV4aWY6UGl4ZWxZRGltZW5zaW9uPjYyPC9leGlmOlBpeGVsWURpbWVuc2lvbj4KICAgICAgICAgPGV4aWY6UGl4ZWxYRGltZW5zaW9uPjEzODwvZXhpZjpQaXhlbFhEaW1lbnNpb24+CiAgICAgICAgIDxleGlmOlVzZXJDb21tZW50PlNjcmVlbnNob3Q8L2V4aWY6VXNlckNvbW1lbnQ+CiAgICAgIDwvcmRmOkRlc2NyaXB0aW9uPgogICA8L3JkZjpSREY+CjwveDp4bXBtZXRhPgoirQZBAAAQAElEQVR4Ae1dB3SVRRb+UkgnQSCBAEIiJUICSFmKICEcIFRhgVBsrOhKieiiCC5oFBCPHNoqRRBFkQiroUkVjyt19wi4sFKWRUqQlhBiEhLSy9v5JpnH/17eS/ISEnhlznn5/zczd+bOnW/uvXPn/1+c0tLSdLDH5OyMvJwcuHl4AEVF9igBi8bsbFFtW6ns4YZL677EsahxxSARoHGksiVgnRKqysSS9koSrq75HAWpafjv4qWAm2vZUnKUwvqAUmIywAmv5WLZFJLGxQk/zXwDrg/VkZ9b3+5EyrF/Q7ZnSWuiLQ9htvLy8iyhstq61gcUMdE+e/bAZ+xTcP3XEUCYkQpPstAcl9auQ+7FS/oJI2DOvvWuRSaIAEn9PQXr3orB3K7hEjD6Bm30xvqAUqhDXp/+QHoGPObMg9crr8H1yNHyAUNtUmJyCA7jVBETpDTIlqUfYnGfgTi1eQcipkUbN2WT360PKNyh+Puh8PFuwrdwg/O1a3rA4NwV04AxMjmmZvLW1u3FJsiEOSNAmHZ98qnUICdEXU//ujKv49AhyLED82N9QOH05BUgv18/cS3xD3xrS8D4iNXtGTMHSEwxBIwJkyNnWfPHtV7dYhOUX1hsygS4atWqJe8JkPn9B2Pf0hV6gJA0qNfjCAxsaBfba+sEitAqBV27AA0DNFMtbgVgXH4+Dp8J4+H5wULgdmYxYGhyVn8mnVdDgtLflAmq5eKCn3btxnt9B0qAsKbSIrzPvpWCDoMHoLBQAMsOkpPVBtyEE+v2dRzc1sUKMLiXnqqcXKlxisaMwo8/HkRhitAyFUjcMj/85+execce3D5/yQAcxuSzf9hjF9qE47ZeoNDvEBrDZ9xYqUmMJ1H/nYARQLpRUIhTuRXfyu7PzgFD1k76hgxvOvzxSYyY9ipyRHTXHpJ1mh7OjNapJRjMpRJt08jVBZHenmjrLrbTFUgdhaNsLtHsdB87xm7MDuVgvUAh98I/MHBqmVdOqihgfF2c0Uj4KaYOwpQTm5+fX05vtlNs5UDRFTu1wom1NCnANBSaxlwKcaslTY8WLPbmxCrZWDdQaH7E1rdoYCRQlvlRozVxbS9MEU2SOcAYmyDufDr17wd70iYUm3UDhSMQMZWsyKF3YyrMq0QyBxhjE9SiVw+7CNkbi9D6gUKt0jQARW1aG4+tUt8JmK7CAdZqGGWCaHYeixplV06sEqL1A4UjoVM7dLA8/1EDq8q1jnBkFWBUOzRBfi0fQUhYa7szO5SBjQBFh/zw8OI5pa9SSX9FgUJdCRj6L9QwXmlpGD7hOdSyEZGpMVb0ar0BN+MRMgAnzni89u6A7uo1EUm8DeeU34GUtLs11dnQ3RzDO23sRICjqEkT6Or4AV5eKOjUEfl9egM8C7LDZDtA4eQRLKaeVsvJkw8YueWKSc42E5zzLDkGqO1puh2e6dgpSCha2wIKR2QqEUCWJDrIjmQgAft4WNQx8QaTXpkvFi61ynThoLEFCTiAYguzWANjcAClBoRsC104gGILs1gDY3AApQaEXJku+LyufGa3MsTVQFNloHAwfEqdV/UylJeISai8auDZpppU8lNP+nNwzDt9+gz27v3+gQFLpYHCwfCzZcs2DBs+CvXq1UPTpk3RsGFDtA7tjPffX4CkpFtmT1qVgGxq1i0cDGVw6NBh9OgZIeWlFhflFh7eC888PRELFiwykKGSG681mSoVRyGTmZmZePa5CTh0QLyOiUKEhnVA/fr1JO/MW7xoDRYtXIXYr1Zi0KCBBs+Wkv7zz9chOzsbo0aNxEMmXsiqSSHcz76ysrJw9sxF9A6/U4qNIl26QR7lRk1z8OAhuSBHjBheYweUlQKKi3hEkCD5z4kzeCK8E+bOiUH79u30g0pPT8fy5R9j9eov5KrYt38nwsJC9YMi/ZfrN+LkL8fQq9cTCAjw15fpG7Grm7tP2fGBKMrjwIGDuH79OiIj+xssstTUVLz99mwMHTocUVEja0xuFpseonr//gNCkxxFs6Am+PrvsRIEfBpdfby9vTFHgGfixD+J6XbBokVLQHAwkd7d3V1oET84Oz0k81S+/ktJPdZViffqo/K0V1Wmrtqysu5VfXWtSF1VR9Hwaippy83VMUVHsHBhURNrn6RTMqTcPDy9pBxVH6bauZd5FmsUMnvq1GnBgwuiRg2X9tP4lQUOjir1+efH4+zZs3JQfFGKg6L9VcnJyQVcISrP29tLvCVa/PS7yqNZou1OSEjEiRMnJClXmRIg2yRPLD937pzst3HjxlLQrKzqqT7V1RxdcHAQfH19DVaxolE8ccWrPsmTlzhd7tixg55O27YqDwkJkW8VGstKtW18VX1RJlx4NPWp4p2jW7eSUdvXAznZWbh8+Tc9WbVrZb4AZslHDFS3cOFinbdXE3nNy802Sy8Gp2N9ftgHr2LS5ad5i1BdaFgnnZdngD7vyJGjOtKwLvMbNAiW96+//oa+DmlUHV7j4y/roqLG6stV+6y3fv1X+r61YyQf3323V9el6xOl6Ngnx6f6IJ3qh2136txdtilMr57WyzNQyoP9MZGnyAFDDMo5HrarZKHa3bJlqxhroI5jVGW8Kt4oE35n2+yfcufYKD81Vo5f0WrHeS/vLdYo1Axt24ZBpyvEqtVrpTPK928Fo3p0qxuuZu2KJu28efPh6ekpfZTExCRMfyMatWv7SJKAgLuviAY29hc7qbpYsuRDrFixDFGjn0K7tqHIyCh2+rhqTwvHrk/ECMlLeO++GDpkkGwnPj4eH6+MxcSXpiExMRGvvjIFWSWPFwjhIi5usyxzcnKDovPz88P58xfwxboNeCdmkexn1qyZBuNyca4vHXbu6L7fu08/FvoTBw8ekW36+9fH69NnCS3oJk0uGTpy9GdZ/52YBRV2Qo1Nc6tWLWV/HE/cpu1o3bolpv0lWm4IuNOs9ldbK4M6opcrhquvabMQ3fLlK3VJSUlyNbFMuxqN22c5E+m5krj6qJWYr63LFcMP2+eqYmIdbb1ijRQo+9eW8540pOVK5r3iif2plUi+FR3L2TbrclxcuRwTeWIZ6ZhPnrjama/4YRsxMXNkf6RTK1xbzr5IT1o1BrZrTqMo+SjeWZeJmpByo0ZjYlss08quOu4tdma5QgRz0ontHxmB5KRUzJzxPoKahWHAwKFYtmyFXOlc8Vy9xom0ubl3Hx4Sk4H8giKDlato7mRk4W9LP5A7qtu3b8s6pGfbO3bsQvzFq5g85RlER0+Gtpz33IXNfy9GNOWCb76J0zvTtOVnz/4PGzZsxIsvTtDTUfOx7S5d/gCOixrz+PETsi/FD6+JN25j2UeLZT7r86P8sVzxgBTT9OmvyRWuysnP6NGj4C60zG+Xr4G7QksT+WM/2kQ5sg+t1taW38v7SgFFMbDmk5Xg1nfS5HGgqeBOiGo7ovcwdOnaC59+ulYKlBNbmXQnIx89e/aQwtDS05Hcvn2HzHr55WgJPPah/VAVR0b2Ax1mqmqVKFSCRW07tTQK2AH+xfEg44khP0GPNEBISCuDyWGbdDoJhHr+3ggODjIoZ990SGli2UZmZlYpALLOg5ws9lG0gyGaw8Q2jqt37tx39cGgH/6xTwbiqGl27NyN9V+u1e9mtPTl3fvUNg0w9nv8xCkJTu50+DGXOLGXL92Uq1jtqDixBIXauVCrMWZx40YC6N8QWNxZmEr0PQiumljFpvq/X3lVAgqZpsCU0BRopk6Nxi+/nMSU6FdlUG7BgoWYP39eKc1Q2UHzTCk/v0BMmCuGDx9WZjN+foEoLEqWq5irmon80kTGbdqG0yfPQRsBDWjQTDicAdJElNmwnRVWGShaeWlBQy2zKW4junWLwKqPN2Km+CVGtaK1NFW5p1ZYs+azCjVB08BEHvuLNwvPnIoHNdbkKeOFqQhGo0aBUPGXmBihHU/GVqhde6lUJaCUpYJpHoKCmsno7emTF4RKvyzNlNI+VRGwsvc0KfRDGCArb3uo+o2N3SBB0rPXY9IkGtPSHDlSaQlUypnlvp2f0yKOQbCYS/T26bgxaWMk5upXNJ+T2bFje7kzOXz4nxIkSptpr2yPddXk80ofhDuaiS+9oI+kaml4vHDlylXpBFeUH3uoZzFQqO4Z/KLtX75ilQxfG4OF3xnAollIFu/rtg4NKvPgjxNo3EZZwqf2ePqpMaJKIT5YsERWNaYnnzzC79S5h/RH+F2bFIC1eaxz9OgxGTwz50hr69+ve+7k6IAT1Mbjri6eLAYKJ+nl6Eki/pAgo42jR4+TmoUMUtBknJpm+vQZIjK5HBnpmZg9a0Yp/sNCW8udBQ8MeU6jzjZKVTSRQQ3Qu3c4RkYNkWZkxMgxsk/2T4CSh9279+Clia/IWAsjweSbn379+ooWiwFGh5v11YNWPOyMGv0s6pf8NKiJru97Fs+M6Jzz5H7r1m1SbjwDqu5ksY/CSaKjum3btxg/fhJ27zqMXTsPoH6Ar5ggV7kbSU5Kl6qbKn71J0tLPY8iwSbiH7Gxm+TqDW3TXew8UuXROndO7IPBtoz00scCSiD0gZZ9tEQcjk0S/f8oYzfBzRvJeEaiOBogDwQEjwgYWGN9JgWwzXF7ZPj/0TYPy7D8hQvxuH7togjeTZX1eGxgrHV0ujzRjvnfgVMBN9mAiT/kgZNsnDh2U8k4n3LhccmMGX8Vz/qswLPPTBVmNE8uGMa01BhNtVXVPJc333zzXUsbKSgoQIsWLfDCC8+JxwW8xOBzRdArT5w75MigUtt2rTBhwjhxRrMYXcXPfBoPoEi8kOUrfiVp3LgoUZYp3inPQoOGjdG9Wxc0a9ZU/DxbEX49/yvahLZEZP++eh/DFJ+MeLZt9yhy8+7gVnKKBJmfn484w+mOlSuXyGc2tP2T92FPDhH8N0VaerKIndzEzZvJIojWHG/Nni2jqjzz8atTT+zYivnhBLGNm0kJaN8uFBERvSWPWn4I/ouXLqJ5i2CTPNO8JiRcR1BwCwwZMlAsJKeSOE6CkJ+zPh7FsbOMJ8ONGjcVkeLO0r9jPhP5Z/9yzLkZMsjHB8YGDxpQiictf1W9r9IrpVTxylGkIBnf4BZY+QMUHoVsLmnpWUdbX7WhneTy2lH0ql313RSdqqPaZ3+qvipT3xV9eTxVpry8vox5ULwoOvVdjUN9v9fXKgHlXjPjaO/BlYDFzuyDOxQHZ9UpAQdQqlO6NtS2Ayg2NJnVORSLt8fVyYyj7QdDAtyUpOvEDwqVJF+nbDiAoqThuCI51wVZRTzruvvz7mI3jqQ8dzv95ToHKEpJgCBRycvZ8HfqPMQveDt8FCUdO75qQWJODA7TY04ydpKvBUl9T/7qfwGSs0v/8xmHRrETQJQ3zGKQmK/lAIp52dh+ScmvZWpBQm1S7NAaDt8BFEN52P03guRaWp78UBg5ecVndQ6g2D00YOCTECSt6rogP5sn1cDFpDz8muKO/wPLRrpEnqxSLwAAAABJRU5ErkJggg==;" parent="1" vertex="1">
          <mxGeometry x="288" y="469" width="138" height="62" as="geometry" />
        </mxCell>
        <mxCell id="GqejX6LDRniWwrAyW8xb-1" value="" style="shape=image;verticalLabelPosition=bottom;labelBackgroundColor=default;verticalAlign=top;aspect=fixed;imageAspect=0;image=data:image/png,iVBORw0KGgoAAAANSUhEUgAAALIAAACPCAYAAABeboEbAAABZGlDQ1BJQ0MgUHJvZmlsZQAAKJFtkD9IAmEYxp/zD1IZCUVDBB20GFjEZYWjOkjQcJmhtd2dlwZqX+dFBI0t7RHR0BgE/RltCQSX9qIgp6KlObil5Ho/rU6rDz6e3/fwvs/38gKugMJYwQOgWDKNZCImZpZXRN8r3OjCIIIYUbQyi8ryPJXgWzuPdQ+B6+04z3I9B2/qRzvH55fpjLfvYv9vfcfpzupljfSD7ozGDBMQwsTylsk47xIPGDQU8SHnXIvPOKstrjZrUsk48R1xQMsrWeIX4pDa5ufauFjY1L5m4NP79dLSIukQ3WHEoKOEBYhIIA0Js4hgkt4p2tP/feFmXxzrYNiGgTXkkIdJCVFyGAqUKGKOUjVMIEQsUaKEab7v33t0vI1TIKLQV3uOp5Je1YH+muON+oHeGnD9xBRD+dmuYHnKq1NSi3sqgPfAtt/SgG8MaDzY9nvFthsngPsRqFqf0yJlLghdkPYAAABWZVhJZk1NACoAAAAIAAGHaQAEAAAAAQAAABoAAAAAAAOShgAHAAAAEgAAAESgAgAEAAAAAQAAALKgAwAEAAAAAQAAAI8AAAAAQVNDSUkAAABTY3JlZW5zaG90ghe2mQAAAdZpVFh0WE1MOmNvbS5hZG9iZS54bXAAAAAAADx4OnhtcG1ldGEgeG1sbnM6eD0iYWRvYmU6bnM6bWV0YS8iIHg6eG1wdGs9IlhNUCBDb3JlIDYuMC4wIj4KICAgPHJkZjpSREYgeG1sbnM6cmRmPSJodHRwOi8vd3d3LnczLm9yZy8xOTk5LzAyLzIyLXJkZi1zeW50YXgtbnMjIj4KICAgICAgPHJkZjpEZXNjcmlwdGlvbiByZGY6YWJvdXQ9IiIKICAgICAgICAgICAgeG1sbnM6ZXhpZj0iaHR0cDovL25zLmFkb2JlLmNvbS9leGlmLzEuMC8iPgogICAgICAgICA8ZXhpZjpQaXhlbFlEaW1lbnNpb24+MTQzPC9leGlmOlBpeGVsWURpbWVuc2lvbj4KICAgICAgICAgPGV4aWY6UGl4ZWxYRGltZW5zaW9uPjE3ODwvZXhpZjpQaXhlbFhEaW1lbnNpb24+CiAgICAgICAgIDxleGlmOlVzZXJDb21tZW50PlNjcmVlbnNob3Q8L2V4aWY6VXNlckNvbW1lbnQ+CiAgICAgIDwvcmRmOkRlc2NyaXB0aW9uPgogICA8L3JkZjpSREY+CjwveDp4bXBtZXRhPgrB04mcAAAwIklEQVR4Ae19CXRcx3Xl+71i33cQ+0KAJAjuq0iKpGStkWTZkjUjK5lx7OM5tscnM+NJYp/E8cRxJnMyiTVOfMazJJk5iaWJjmzJlq2FFEmJ5iJSJAUCIAkQ+77vW+89932ggf9/L/gNNIBu6D8esLv/r19Vv+rVq1fvvboluEGkkdYCEd4Cugivv1Z9rQXEFtAYWWOETdECGiNvim7UXkJjZI0HNkULaIy8KbpRewmNkTUe2BQtoDHypuhG7SU0RtZ4YFO0gMbIm6IbtZfQGFnjgU3RAhojb4pu1F5CY2SNBzZFC2iMvCm6UXsJg9YE4d0CLgQnDk3NUvvoBI3NzlFqbDQVpSZRQnQUmfSaHPL0nsbInpYI088rrd30n948Tx39I+TGP53LScmpyXSqspgeqyqnnVsyKTHKFKa1X79qCVo88vo1drAlNQyO0Vf+4efU3jNIZkhfvU4gm8tNdmTkdrooNi6GHigvpC89sIf2FmRTtPHTK5c+vW8eLFdtQPoLDS3UNjhKuenJ9Pze7VSckkA1+H2jo5cGwOTDM7P03s16ut7UQf/mocP0zO5yyklMIJ0gbEBtN7ZIjZE3tv0Dlj46OU3kclFeegp97tBOKkxJpMccTuodn6K67j660NBGlxrbqQ/681+/fZFutXbRcwerqCAtWZTO0UajqEfHmk1kNugDlhXpNzVGDuMezExOJIJ0nZqeodHpWZGRo8CQxWlJVJiaSIeK8+l8SR79n9/corsdfXS27j7d7R2grOQEMptMlBAVBQbW0dbMNCqCVC/LSqMC3IvahCqIxshhzMjHygooD9K1uW+Yfl3TQCWQzInRZrHGrD5kJsTSZ3dXUmVWOr185iqdrblHXVgUdg2MEhRqqBg6HgcUA8kcYzJSSmIc7S/NgwqyjfZDp95MKoj+e6Aw7stPddVSY6Joxm6ni/daRXWiGBK1GJJVyoAGnY4ywaAPbSuh3MwUyoTErcjLpIykRLLAwjHjcJHFYqMZi5VGpmaoHpL7zJ0WcqJlK7MzNo3KoVktwnyoDEOl+PbrZ+lMbSOV52TQj774JCRwmupa905M000sDq+0dECf7qDekXGyWG1EsHpkI59/9+hRenxbKSVi0EgHiOoCwiShJpHDpCP8VYMXaWkJcdQEa8Wdrj6aczppf2GuqCr4e0Z6PR425vLMVOjTeXQI+rQRKobFaqdJ/puZo4/bYAGBDp4aH0tJcLIY9ZG5KNQYWdrrYfidpWQWVId4MFlNZz991NxJsZCeewpyiNUKNcTGOBMGBOfDDL27cAsZzUbqh7VjGBaQe72DVN83RIT8tmWnQ71Wl6+astcrjcbI69XSqyiHGSsLUnkCeu6drn5q7O6nHQW5VADLhZQYa6d5eJzerW+invFJyoiP87JQGLEIzAZD78nPhqqSDmk8S/1gZjbh1WOg9EI6F6WnUjIGSySRxsgR0ltmmMwyE+Ppw6Z26oIzxKkX6GRFMVQBqfQUqAMM+eOzV+iNa3Xkxr3dYFhfkptNcEVpKVQNyT6NBWUrrB2Tc3N0p7OPOiemaHtuJqUgriNSSGPkCOkpVg/S4JLW6w30PsxsU3M2SOVsKoCTxENsakuPjyGdwUDnYJnoGJ2kB7YWUTqe80WstvC9o6UFFAWnSV3vEM3ZbNQCNaMejL0XujgHKUUCSYdzJNT3U1/HJ6rKqLx4C03MWemT9l6ywtMnJZa+D5Tl0dGthRSLhZ5cYktTLn1PQLqvHN9Lf/DEcUqLBdODwW9A8v/Rm+9TLeI8OAIv3EmTyOHeQ4r6sWNjcHKGLje2kclspgMluaK1QZosHtd1UCtK4dE7Cqb3pVpI0/N3ZvjtMO8VwMLBC79xhI52wVTXDfNdJa5nQNKHM2mevXDuHT91q4T+aoS3rmt4hLpHJuB2XlIv+BFWGY6XF+GTrRXqu5iZ+UlIfJ6mf/jeJbrXPUgf3mlGvIaBvgNpXZaR7KdGG39ZUy02vg+CrsFeLOAykuJpcGya7sO+bINtWUkcoxwPvZd162Dp4W3F9HufOQqJniIGLZ2vbaAf/PpDUZ0JNq/1Sq8x8nq1dAjL4Wn+KGImpmBluA0nyfisJYS5s5qhp4fh8v63nzlCuYj1cEJH/gCexf918SbN2R0hLStUmWmMHKqWXMd82K78FAJ/ohHdVtPWQx1QL0KN184OlCeqK+glBO3HQY1xgJn/8eINeqeuEftUwo80Rg6/Plm2RqwubEOcxClIzRaoFufutpBlDSQlh4y+eHAnndq1FXqzQCMI5P/pR/XUPDSGgbNsNdc1gcbI69rcoSssAZ6345VFlArX9TuY9ttgYVgLYg/fHzx2jHZBleHtVXcRgPTzG/XQl0Orzqy27hojr7YFN+h5nvo5bmIPAoF4O9TfX74Vcl3Z82rsdGFmTk9KgPfPAka+QzVwk4eTfVljZE9vRdgnqxf5iD3+7L7tlA0LxlvX79DfnL+2ZouxQ0W59CL0ZTMsIT1QLc7CLDdr422w4UEaI4dHP6yoFgbYfU9VFNHn9leR0+Ggn354g/7543qyQwUINfEC8wv7t9MBMDTTGQQm1SFqLlxIY+Rw6YkV1iMWnr6vnz5IR4FxwRLyHrxydmxYXQtKR8zyUQQq6RBw1AdLyf+99EnYqBcaI69Fj69znibYfbMSY0lwuxBwb1iznR6Mm3FiawFVARSGbXC/ut1INxAtFw6kMXI49MIq69AyPEYfINrNYEbAPbx+bDZbKyoCytFJbI1iiAE3ZoA3P7m3Znp5MO+gMXIwrRWmaW929NA4YohTkmJpF+KL15J469QpmP3ykuNF9/f79c1wk4+sZZGq8tYYWVUzhW8iDuO81zWAeAs3nULscU5C/JpXthLboSoh+XkB2D82ASdJLTnWSC9X+zIaI6ttqTBNN4oNpIwRZ4fSeqKiBMy1kjCh4F6OdeVT20soDhgbLlhIrsGzeJ+xNDaQNEbewMYPRdGD2GM3DmitxLhY2g08i/WiBxEmeggWDKZ+xEe/DZSjjQwo0hh5vXp+DcrheIdhBMDPIgouHzBavABbL2LX9ZO7ykmP2GeGKLiJ4KWuscn1Kt6rHI2RvZokci6wi7gbzMP797Kxy3q9YWVPby2msi1ZwFl0US1iMK61dK2JM0ZNj2iMrKaVwjgNR73xQislxux3fx5vKm2DAyPUxHv9XkB0HAMmTgBN/324rbsBQ7ARgXEaI4e6dzcoP7Yg+KIRLAb/w2vv0lVAZq0FPV5VSuXZaeRmqYwg/xrgbjg3wILh++3X4o21PNekBfgcEbZUDE/PkQXxFlKywTT38vtX6V5LJ52/1y69FbLvmQCB+fy+KhIwkLgOv6pp3JBgIo2RQ9al658RM3A2QFt4kdc3MYngevnePQ61fLf2PoBa9NQMafkJpGWop32uw8nKQtoGt7UbA4mDiZphDlxv0hh5vVs8xOWlAmAlBhaEpoEx7OCYk+X+IRDtR7Cdn7dz9E7M0Lt1TTQFiNlQUyYWmr+1Z7u49coFgJf/AvT8iRDvI1yuzhojL9dCYX4/HWDfyZjeLWCgup7+xdpOgmE/boYVAVIyFd4+O8FxgaMZOgGpFWpiIPEHEU5aBTs2qxiX77fTT7BRtQeYcmsViad8B42RlS0SYb8Z8qokM5n0sOV+iPNEPK7i5qFRGkT8BXvevvrwYWztT6UGuLKvwd6rRCda7SvDlEzlGSn06M6tlMxIRajLP1y4Tt9+7T368fnrdAkIogzAuJakIQ2tZeuuQ95GnZ7GsP3oEtzEvXCOnEZkGuO1XW7uADh4k6h2/PALj8Hr5qQLd5uA7eago+UFXuhEq60qoxnlYUvUJEDE72Hr1Rzq1I7P20DIvwj4rbqeIRGEkfHr1CAfBVsfjZGDbbEwS8/SMBXu6Z8hNngEtuIkdlUD3PBaaw9gtdrpIM4heX7/DmIVpLF/GBK5mxLA6AwWHuq4DF50Hi7Jp33YRWJAPMYI1Jsx6O2TcGE3wZb9M+xeYQiufISCMthiKElj5FC25gblxYhCDhwkeRW6afvwKOVhmm8D096Ep+1IRaEIPxsfZab4mGiqae+mW+29CPopA7pn6JE2GXarEEcMn8BBls9hC9ZRxGSYACo+PmOhWUhrxmBmaFwE61E+JHg0drgIPBpXSRojr7IBw+XxsoxU6kDw0A0s8BoxpQ9BEnIwzyPApNiPGGXGg8uAdWGUF4FNnTRmsdBRSOuoILDhgnlX3k/I27CKEANyGscNV2GWYLhbG3axdKF+N1q6qQs6PB/kk4HZguu3GtIYeTWtF0bPMnB3KZi5E5YCBuvuQwyGE8zx9J4K2gE0TSYR3Ds9iYZhGnvn1j1KwB48Pss61CqGslmYSfMAtHiwaAtV52dRHMyFfOglx2Y0YI9hLGaLYhy9thrdWWNkZatH8G9e5G3LzSALrAZd0Jf58xmcw8cHRnooEYAuxWD4OjhLLuPYs2roylsAK7AexAMpF2Xtyc+hQjDuNFSNGhwafxP6vBOOlVKoRKxqrIS048lW0mph/AxHxE0CBJyRh2q6B+gw8JErYHqTEqdpHhqn7/78LBkx3f/Fcw9TLjyE60kMWTCOQKOfXqull89+RNGo09OHquiPnjhBcdD5gyWNkYNtsU2UvgXM/u9ffZuO4OiFb5w6IOq0G/F6791to9/76VsE7w39Lg6H/8qxPYsnvKqtj6ZaqG2pTZguCVuVdiCe+EJDqxjowzq2mqMaVtoUPBOwp28Gu68nZ63Ui8VoI84q0UGt4J2sd2Ciq4F5MA0LwAqANPKCUS1pElltS23SdMxcdVBB3kUs8QHoy0dK80N6rC/D3U5BF+6H/bgFUFt8bFoHvI7dOKinH1aLUfzN8jHDMMfpEdIUhwCnqsIc+n0g5Adzwqt6XP5N2pGf9tdii0J1XhYlw6Z8E/blZmBkbA/iiOBA7cdMzAH9P7t5F3EfndQA2/bo7Cy5ceqqSGDaPJwVeLwonzJSEygNVpQsmOJiEajPsAPBkMbIwbTWJk6bD/NYIoDDHbB0hIwwSEaBqXyu/j7VI4SUyQgmrSrPoV2AE+ABVAAvX15KAsVggcfmN1ZtBPwT1Y0gKqIxchCNtdmTJkJnDiWxi6MYRzdUwSHTCMBDtlRkJMXRd595CJYUmNoQNRcqG7Z6bTqUb6jl9alpAT499WsnD1IlmNkNN/owHDVvIy6Ed68EK3UDNZrGyIFaR7sXkhYogh789QcP4JTWBLIiCu8VxCr/1/cuiztJQgWBq1ktQtJVWiZqWuDM3Vb64ZnLVNfeI+JhHAUy0hePVCPmIx/6+erUGo2R1fSAliYkLcBB/+xtfPWj23QB4Id8gmthejI9gKCiLx/bi6i5xBXHW2iMHJIu0jJR2wJskhuenqUz91rolau1dAcOEDesG3sQifevjuyiJ3cCvQjWi2BJY+RgW0xLH5IW4NNaGT7gDHa2vIp4izvYT5idmEC/c/oQvXSwKmgXtcbIIekWX5nAVQXpM38gHT5FYlfswp+ILuzrudVc85TJRy/wd3xweVyWACknfl9N/mvzLONx/OjcdfrlzXocSzxFX8XxwV9+YHdQzBw0I/M5FWzkhiXFJ7EtMgGK+2qi/nlz5AhQJnnXgy/iMjgcMRzJ7bSSew6wUTPAkJgdItfsKLmsU2JVBWMM6aITSBebTUJMGgnRiSQYY+eZbKUvg8HitrO3DACCXN7MIDmnB4EmP4tzpOHcMJhIZ44nXXwWykwnHZeL36QPznPmmgWYtw3vweOCaaFrhNj0+XeYv7ri/53oa/b8vXK9FrEfbfTo9nL6j48eUY1nFzQjX0P86N+eu0YOBaqN+G5o1NM7yuilw9ViEPdK36q2Z5B+gjLGMGCUxNBMT+JIri8CcyycyO20kWuyi1w9N8nWeZ1cg81EM33kcljAaPMuWbegJ70Ze9WikkhILiBjdiX+qklIqxQZbYlL1LwZGNgySY6he+Tqv0WuvjvkGsUWoulhclpmwG9LB+K4BQPpo3DGSCL26aWXkykXZebsI31SAWHbhorC3GS98T/J3nKV8AoiCczI+DMe+hIZ84+ryENdkgnsYHnrdgO9/vEdehF89PSuCmI0peVIzVvI8ugDQvkFoMksjkzpXTByN4JAnsL2mihjnPROUN8vNXXQeQSxTFu9t5C7Ia0TsWXnBWyoXM2OgqAqtExit2OOHG0fkK3uDXL21ZOLJTLPJjydi7TQ+7jknMPgnAVoylg3ubpukD32HRLSi8lU8SQZi45BWiYuUxrfdpNztJmst18jR8dH5J6C+9c6B1RMT5kCUkjOEUG/OGenSJi5R87+BnI2XxAZWl/+EJkqn1q+TGxPEibayd5+DU4MzztBqAsucm1/QkV91SdJRIzF5/dug+cvjd7CudflWalUnbs87nNQjMzmEw7aRovhLZZeaLGa0MHasXXl4/Y+rD7LFi8H82UaASW1eH4GgCM+CWW0IbDFAoaOM/mog8+H1vAiOtnW9D5ZLr4MhsKULjKTRw/2U+4Cg7sgqV1jvUTjvSSMdkLlwHafvCN+Hlq67BioI9vFvyRrZz36gqW9Rw/2zPtLaZe+gblZRwavO2amwNg3SeBZwzJGpuoXoebIg++XnpN/c+FUag/pOLM1IN5HuA8RcDk4p0S/KAwCF7RUq8DpxLsMYdqzDJizGy/6q5oGFbn5TtLQP0Qt/cwQS1OjNKWAATSITZYcfhgOZO+6So6Lf0Gu8b75dZ1kQcUdbRAcZIg2kAmziBGIP6a4KDLiGv+JjMDpsYLXJWbgL3/ZV7J3f0y2X3+TrG03wcQOpJczr8GNa24nJgN2AdvnyxcUgUAo083Kxxy2Q13/R7Lf+nuoKaFHIFr2ZZZJkINdK7wxVQ0FJZHZP94PJgpMbrrV2UstCN8rgYE7GOJFHgdXDwBoJNAKm+GgJjAzJKxgS0ww9Vkurds+Q/YLf062cZyfodA1dWYDGXN2kL7iKTJk7yAhChIPYCpu6zi5RtoANX+XnN3XyTrUiUXhFBl2PEu6hC0BioR6MN5Gtg9+QLbBAcyI8q4T9EYyZRWQbuvjZE4tI8E0r9q5ebHZfJ50vTfJMTEI3pcKCDCzZY7man5BlLKVTFsfQx1XtmcuQMVXdUs+TP1nJW8N/+nEO6JqASYKxGQCov37oCd/AgTzYBmZge8YY3fSh24srZoLC00O1M7DGcwbRpB6jvpXyTnQKmdizBS66FiKOvivyVj1HL4rpmz81ieVEJU8RIY9s2QYvk80UEN6/A5E7rkxsl7/32TvxyCQMTHKS8yi6EMob+uTvvVd5O0crifbrVfIdv8CmFeyiIZ0ds2Mka32NTLkVCOvgkDVCNt7QakWVjDQFKCQliM3VBCGF7UhbC8Y6p+aoTpsZXdAMgciFwJPhmCe20hixnJ1Q8q55TJDICdFVT9Npr1f8mZiRYXZHGfI3kWG6t8mwRAAeQcWEUfHJXK2Y2EHnXyJsKRLzqboo18j0/bnfDMxJ4aeqU/bQeZDXydT+cMoS2F6w31nbx05Ws9BLZHmv1RSuH8LipGnrQ6a9AFGx9D7SroJT00vJLNaYjtiGw4ebB6AvVJCgs9TPAXUY/kBJckm5F9dbLOd7BHVhcXMwQS6OAAKlj8OM5V3myymU35ZZkHjmsH50s1nyTk1JHkSWq4pmkxVz5Cx7DOQ0suUhzJ0iXlk3PsSVJ7tXgzLwsFx5xfz9mhJKZHyNShGnoA0ZquCdH2RAKyx/SV56FB5VhNAurkCM5paYivFJaDk2ACy56E0qA4787I9Pxc/WSqNTsmxgBdvrtMXdnTYphULJF6ARoOR43NCVwuoMK6RRnL03sUaTi4t9akFZCiEyW5BH1ZTqCG1lAyVMJl5DMKeh6Bi2IY7yd59zXMloj6D0pGnII3n4NmTkhES80DJFroBR4lFotuyWvHh/Q56AlCjanYeDGKBV4OjaMWlP6+qYbXYlZ+LPV0JdBuBJXISaBBqCJfhMZazOe7X2FIzgIgqKdmxuHl2T6VqfboPuvcbMMhLyYE8uB6fra5YvCw4oGfC2SEjLOZ0sBq4nXbpWJclCfaH22GFXoyFIUtjieQWjFFkyt9L+hTo28EQGNiQt5vMKUlkHZUjywtOCwbMTTKVPCwrK5jsNyptUIw8C91XBG4GozGxhEiAu/hwcT6dy2qi24gz9SwE+ciquz0D4jnFjD22HF1r64J9GBKOt4YzocE/t38bDU1KFibzd0Q9kUMAOSjbw8h8kPilxnZ67eINfnghJT4gJUemp+l7v3VSFb7YpdZO+sHrZ0WT2GImyOPU3u0yRnabYJExsJtcXj877MKOgdswt+UuPr6aL24bXPU9tzBosG6QzHpspaCUCriHA+jWfgrWJ8O7l1UFi8l52cLR5YCG31ODIxTmQuJ29lP8mlyW6wMBisCkSdOiRF6a+jl5PGCQGCJ0K/DFdNgVK6UpRDe1Qu/l0L3l6DeQ3lKJngT74YNAdIyBGYsU+bItmS0oLsXC5IUDOCoLMRgC6uT5IxjXP27r9ZLU/uozgpmBLS+e5/kTcDx0enup7BHBHEumWB9QU5De1huvkHOsBemXf29Zpj5+uK0T5B6EZUMyNjmZgXXxjDJ8U9zwkYevS47sPYsyY/E+ZhRhvCsi9WTVjMwvy7Zbq1POyElgnGwAalQDz4uhS6XEkEi1QEnnaT8Qcb7MyKLHkBNC4h+CuhIHHLDE6BiRseTPAysBg8oi0af5fhVwz8rZnSkZOMyUrbBN34A5cDniY7W6gL6j5D+z2UwHAMAnJT2CZXQJ0N8Vg4mlpqv7E5o7/wNyIg6CnROrIedwCzlhHpOqFVymLiENunjWirM2ZOIkJrncEfNyTsLOjcCjSKOgGJklMg5Rk7wjADXAdDGQWDty06kAEKJSJuCt5XdhTmsbBnMEoCvQgSfYwrGgspiwu/YAAKP5dyakvZF1Qwlz8tcRBBRNK/V1SOqjgH9SSnArXMEfwYrCMbCBiAccO2RkMwisKaXw92crgKmFqBTSFT+MiAZpe8znzm5cR/sNmjv352S/88aqvGYuxFQoXcF6jtiJRtSZGe29QtIlAGo2xntGMaCpXaNtK8x14x5Tz8houxkgxkgZimM5UwFTyiGbhQBtLmZgD71kqsP1NqDLNPXBoyRhROXr8omZYowC30A6huffhkMIOScG6uDzjpU0C8eM8lw5HRh+25aM+ZlBUp4T3+90D0JXDmzp4HSdkMgsxT3ETL0LKJFeC1Z48gxsZssqR897DxB+H3vXbZr94K9o7tJfz6sakjp58l/u0zWFOAxFImRN+hjo6ApvoiJZwJ+CCe7yFMwyirqzWVyY7Az4bDjeVM/IELUDWNEridEcmfiYLDaVxSmM7cMw2V3BASz+jqvikM1f4JBB1ntFQi8xZq8HQZIBO+LAzEriABi7QmVhjITdwDIr5pmBe3uBmBkHRzCgoK8HojYgVDKEk4xQTj7r/z4Gk2ACKs5nf0xRhTu9GMKTh2tumqy3Xqe5V16g2Q+/j/iGwHXwPMef7AJ3TiEsUyH0eTy4dauMx4Yr2mFK4VKkRaJN4Qqf2bjD0WWVCeJHEIwMHRkuZJlQAeOkAubIQ1szkik1UbGKht7Zgoi4AZjL5E0mCl/EZfSRfWppgDDWwUFAoXoC55k541j3VjzsgAVlbiHO11M+fzKOwk6ASSvFGNu/WzE7BFIvaoEZLI9FwKIKxwZULgBlS8vxfNfF55Lp5HfImAedUzGIPWlYv7Wj7ew3XyXLP79I1vrXyTWFICOY6QISgoL0LsyCPsgdh9lvFSQYzMAklq9pPNk54bWMNAqKkQeZ4aScDOYySDxvxUCPyQEEEkMeSek+oPbbEUQk0z2RgJ0gH2A3gMtjH0Xe2VBRKrFgMy3ka8JKOlscLHJOdoKRRVVHWhC+swqwp3ALxURHy+6wR/IW7NSjikMVPYnYCtI0MCwfL5DqOXDKMDi1fxIQ27uDoh/9PkXte54MqdDtmZSLQFxyuQwwefWQ5dx/ppmz3yN74ztYWME+LC+Vn54n5KF3w1btYzbwJFnVZ5gFCK3mXVQzMrMRS2RZm4LxUmOXprh0ePn2FmSTEVJUSqMwaX2MxZYSjKMVccXN0J894Qo6qBFVsH4UpEH/WyAjVh9pPkL5HJhv2dOo1L1ZXy8DsHVptjxYhxn1Lrai+zswcQYSuxMIkbLhgtcoSkuhlOW2VWEg6lPKyLz/qxR96g/JWPko6WN57aDQCRbeyWWzkqPlMs1Bf7ZdeZkcCAX1xcxuDtN0Qq/3DHRPo2ifXi2gmpH5yTlIQTknEyTnvI7M9zkg+ihgSb3g8yFZLt5vF0/14XRMHFtRD4fJpMTVHGUwUll2OqTqkjQ1wIbM+recw4AJjbqMTnszMufNUpTt2h79na8xtcN60tA3vHio4vzV+f85YKkbu19kkwlMaWUYENGmpXeUPiP/jnkIW5gMhQ9QzIPfouiHv02msmPY2mT0sjrMF4Kos+kRstb+kube/z6i0t4W997J8+RfvrvIbZU7YryfW/kVHXT/SCPfreTjLThWmJlPSRmx8pc+gDPWcrHKVwbGNw3g8EAs7Dw0Dml6HY6KKfuSDpgSY6Zqtjqg8z3E25kSYMdVEtsJZiQucen9JBy2sh2MHAsznpQssLrcweBhG7SSesDEHB8ipXhI4goMLDM7RVQTkCTjMslY+ihFnf5TMj/4+6TPLIKBwbvtWCjw9iTHMGarC39J9nuIC5YQe+/cesx4CssCJxHs8rpKHlvVVyOsTqLXclW5rP/DqhmZ0cVFO7KijkpUcTOk8qmKYi8J6oA+fBaxEB7iKb4RTCW1PPCZycUZMLtJ9Bf+bmbGVqgrbCrjaDxfO61NkOJVsHww5q+MwDTNWHhOzi0NHr7Pakc7LBZzvI3LQ8g/B46eYuj8Rolr2HN72U+YxnRxGWTe+QJFP/UjMu75bexmxoAQd3VIn2Y1DBaYyRGyf/L/yNFfI7mJe37UCr1bUlfJE2q/uhEnoncsLbI9z3FtDMmZnp8R86makWdYiil3ToPJGNdWSce2FlEUqwMK+k1zN4J9ZkVduRZ23Q6OrVgg3tRYmJUC09mSfsy3uGH5Hh/WLSUn1JVp6JrKBaQnTRlODcrGVhnJmBAzY+dMOwaR9DnW3TsgkaUBUQIGQxk8hQxELR1YnvyD+dQnFVHM8W9RzNN/Q1HFexbeRS6h+ZdjrIucDW/BgbJgNUBopsOA8r0Kg40a25R8LSi9kvq7gAFlsLIp0Dt3IXWrv6fC9rqcOwJUk7c48Q5mKbHt1yyxWnjulcN6sdUH6nkrrAI1AHyehFpRi+1Qk3NL02M8QKb5YEHlzmi238bCjszePinxYm8MDg4r6+0+iM1wh3FivVG6mwJ58X6/W+09MknOi8ZWnGUhdb+bwcglGAzsgg8JQbIaCx4g82f+DMHtD0LVYAGgYGaoWY7uGnJNdItFCnozYALSeIeUnPAeOsRDcxzGSolxMGxjPZAS8szdJjPp49JXmu2GPaeakfkAE2n0VaAaJ0NHZYRFZXo38rhwv40Ggf0lBtB7dG58ZkES7y3wjhgTVQsj8CBkopVNWZDIsKIEOun+xNZCSsSxtTLCc2fhSZTaoJsQzN/JzhJPffAAv8NWuKajg9KPZSX5/KFLKCDzwa+QIRd2Z6gvUuJfznFgoU0PzF8G87Od2osQJMELRdd0v9cttRec4+0Aj1E4Ptjcl1GMHdXsKIksUs3IE7wjQ6GvCZCSvjqapeoJVi8UUpRdv2w3vorYZTE4Z2FW42meF4npPtQRUSJjBwrHPcsIzzgwMFi/9UdFOBN5J7aVL7q/OSEGxB3MCg198x42dpBwfAXHIS/qIUiTDixfNr2tVq3wqhszZ2o5FoOnECvBg0zKzFj82YBPIaoN87OfLjlvyc4uycw9g+AeqCLy5yUJlvnq7r3lFc8kmgvTK+HYUQz+ZfIKh9uqGXkKx0l5ETrcoFiEedJU5aRTBQKJZIT0vfCu/fjcRzhGdkmt4AFyCLtMvMx2Cw/z4k2MO5ZKMOTFSkWgfYHsHDnIu1cUwUK8J/Diwu4VPuz7bk8/JPTSApAXsKWwRecFdITI3iyoH7wNSpdWThSb4cWHPOhcjFWx8K4GML0+Ot4rfwcYXjfRjHdbqrdXIj8X3Aigd7VdJJciVsON30Im3O0R6ChRzciiDVnRMCytlF48TxJmSpbKSnKCqQYQmOOS6LZGmN32Qa3wXnbMP82M5fH0SfPjvlY6RKT3WZofRx0E2KdlhAdr4BrndxpGFF0rTINSqR2D9By26SvGQ5bPan5wDKVihhOzQyMIAuqLujMJ5gSY7yrA2PKZh93b9r46qBdLJk3xARX/OYcayAIYAiWZEnDO3pbdyssR8Vs1Iw8pg2nweukwb8WAYX0RqxfVCCJKgrcvEPEuk1NYlOXC1OWT0J/MkPynpCnYkSekkl2ZAL93QM/Ny0wWd7N4brOKcx8Lz16oE/cAnMfnvy0SBkcG1IpjwOtVLjwX06z2CwaSm13TPkBR9FA3DPAKLgYLwzmhy0EQvMTxxMW7IRBsvY3AmKvjH6prxIFI1juwjABiS0p67P42FBwifWKR9HLEfFfNyOJiT6bPBX5HZrwihHiK1ouFadLrCVyPhkXimT3bvG55LjD7sh7uyzrCCz4Ohl+OvoCdI0rzHcdcsCnuNiTzlKj/zw8UZpCT20pw3oXcDOizDLYJe9mFfaaUXeT4ClvbJSy2MIAkA5Txf/RJ+STAoeIhVkMMmdtI4CB6mVRG6hlsgG14ByGiUDFk9zxPyz8ZaNHRcp4c98/hhkQw8MCKhXWk9BFIjWCcP/L8N/KXKkbmBdUUA7MEwcj8UqmwGHAgkdJ64Xlhns5L4Tk7gmi3QCRKZIUdmdMz8pE/85s0v9NgTD7LzaN38j2G/2qEVL6KgwzJubDgQodGwdz2yI5S6eN+vzuGG8hV90/kHGlSz9DYD2dvfAsMddGrOVkF0mNqF6SIQ2AsXfo20mVVypieK8VANfaWK4C8+icMCkj4QARVxNHzMVmQ1g3ETinpICiM5SdFjA0Zg0sThfl3VcOPvWcWNr9JF9h4MT1011iJO1n5rrwxtTo3i34J64VPUEIIhYOlecQu5aBJ1I8hkf1Je0mG+Vi07YbOy0FBi3IIz71d20gt0I+XLgq0H7Eiao6O5SnacftVSMT3iRJ+SabsCtLl7id9ThXACDPnN296dGAs3lxwcjgH75HQdp4sd8+LiJ1e0jgxhwwlbM2QR9vpsCg0VT5J7n6gaQLwcLEbIM1ddmw/u/MuuQFpqyt7DLbqw4j5QAQiNsaKYC5c9hTs5i0XENfxJp5nk91iK+A7kIoyy8m8/Wk8p2IWkrQrfxWwN9HeeVlx1fdPISqBDOnb8RDHmQDHGSZAz4ymB8yuiPGMhSY7kFyWUaAjNZEe8F/8/suRKkb2lQlLU17oBdIj+d6OvEwqQZxyLUxe0o7jPHXQrzkY35f+Ky2Tg+vFeAfJNMz3bZCqc4p9e9LnPN9ZNalA7MUvcJTsIkGa1SHgn9WTRYKJ77kDO0Sg8sVrfr44sGCytl6dh5+yNJFlpJmExjNkiE8nN3CIhcRiWBvAkMiTJaAwdJesg+0A4EZMt2Lfo1gEFn/64qOwL+9DOykmSjgtjPmHyFl2nJw3X0PnS+qMPnAhT2vrLRJ6asmZjLLjt5A7Gq5+qBtOywiYrZUc49ilAxAWKTE7G+JSyLjzX2JBudO7XGliH98dbmjW2DRANW/6uCu/JCIwFWKgP/pXeD0E9fcCY/sGIMDGh8mIeHPXoW9ie9hvRGEZfexbmGnOkeXyjyj6MTiQSqDyLEOqGJmn8Gm2MkgH8jIZe25zSGVlfjbV4eRLqWWAp/lSeM52YUfHcozMefkq2oYdyzZfTOEpfOGTB0I1wkuTEQ46jig3D0mZmOu2oyCTHoEa4qsszzOeT6H/E2ASIy8Wj3jADfWE0eptlm5gubUjPuMyYXe9eJ81F7gakM53znw5ev+/INPhr2F0+148MwiLef9XMHAmgMP89nyhnspwMWhPt8VO1r52ot5WxMy5RE1KdMUzdIAPEsBAxmPfgDR+CnVTDB4f6X1dcouBWz5Ms4rEYkgq44CgnqyHm8qfgrMnj9w1f0fRJ/4ExQOMvPt9ssPb6BquxQbejxDiiM0YVjyjgoKqvXTB5LtLvEvk0E6WuklwQcsIDbcdgT0JPrYxSdNxOYyR68sxwbtJeJ/ecsTPZvCB3f4sI8ggCjEjLwAF358VRlmGrvJZMj/wdeivmPoADTC/VWth0kenANCV7O75TxcQ472ZGDMa1z8eUXqHXyLTkW8CMQgSPADxFMvSyrzn85huUxfgFxbKlD6HNuEy2S5MfphYTM7MP9Er6vgirGwQ1g9pccF991FfTwYxiOGOySRH41lcgSEgXeGH8KTz8alKIvNzNg4YgqksWOKtSuWQygkw1Y0x8ODCe8RiIbirMJc4VDIQMROaEQ8sOkQk5XM2rFb41L19ZMjOET7AuwHB9b6oChKbTW5qZgd+Xgc3bhQi2kylJ8nRdEZcSDn6GqBGsKt7vp0g5GWEppgnxH8ISbki7Kxh66PQa4+LUkqW2M8PkZlP/CGZ8vYBD+4cpmgg5E/inRacPktlcmHzFeByZdcXZgYXwlotV/8O0/gFMpacICNiqXUZgMD1AfrixKwsZrJSZsegcTpgMFA8r5P9xswBB5Cz6QJgdp8BkEqjn1bwvqyKkaOgYz6/bweNlhXKckhFALsaYhj9r+I84h6YuzyUBMY+UV5IZkz7yxFL0+chLQ8U5cmSMoNXZKkbtewdTORFJXciT28SisNs8TjgsHJVvo/kUeBLABiwGjpmySkyjXXgSIQWYLW1I1h6kByTS5YEPj/EGA8LDkxruoyt2FFSSrrkQkjWNNQJakcQxAs5A+KddVm7UGYb4pnvk2uoCQuoAZjkxrDPj8MJ4PnkgQ+UT0MS3PRxOZBGkzg+AXr9FAbbwkzGTeEYQJ0BVO5svQQdfTvpyx4HxOweSHPzfK2QVg8YrahomABXQbokHMjD8dULpIvLwgCC/mtklzhWXLmHyRgDVTOxEOXvwqwCxk8v9SQP+Kn6MJxZPiZAIZDZPc1MroY4uEe61YklNduG1UhA1vOs6BSxYySFMU9ylJoyJlqSZPErI4N+943z9G7NvcVr4hdkcnJbKf3ps6eJYzNWS2yrZZgrERcOOp6HxKUxSzrEMejMcP7wtB8iEsu0IlYEpzsRMOkYw42JpbDATGJEOKsJZaNu9o4rZK17HQurm/MDWhL9xnZsDl/VZZRQ9EN/TIYsiZcP1g8uZ1WEASGL48Bi1I18ReRS1NWNjbasK4sbCfApQnfxYFLRVqpbM0YRABTsCzHT+nJqqMmH1QvGdmMLwEqI5W/v+BTVY5e0krbANPfi4Z0iLofy3kp+c6cI0d4x2ivJS+0zYpkxHLHGf0z8xhCo4v+sYiyRqeIJBCydJts9mOKu/Q+yTWDDLawPTDzY3IjxNkFvN0DFkBEWoWxtCCkxYy9KfQw6z3cMJibx6DaVBS4/r6vMKJyT8abZt2ubqBubXaXEOz9O4Di1w0A18rWYlKaNrO/MvJ4/Rc2hxjCDmHe+SOZnf0JRO57AwMNiFcKCn9Bh65rx8DfwJcRMq6hGqH+qVi1CXfB65MfqzPDMDP3thev02pVaskpPikLH7QcD/7cXH6f85OAdAetR//UoQwSB6foIzhJgbfTWkvHg72AR+2WMg8iScZuGkTuxVakdwT+8Z5BFywxc6q2IsrsOp8fbn0Avlir40Ll3wmLyJ8+cpoOIg/7UEywHzknA4XZeheXiCEyCgUMGwrG9Ng0jv3qjnv77e5fnN4pC2vL+u3HEUE9BCst2dGORuRd4zX/89CnaDQwNXnRqtNACWHjNL6wir01UL/bCvbN5Z3TryCRW5rB3i9oeL3jQIdI+gU58BCa/7zx+DCGmMAWB4TWStECE6cWSmsP9tEnIBuM+m23YVMceMykHc8wzY8m9cGwv/e7xPdjmD3PUJnlv7TXmW2DTMPIjcGgMYbcHA3oPAYODd6LoYcaJZyw4gBqyw+NIcd68GU/r/U3XAptGR+aeYWnMuBkMXcAbAWIRXZcCD2JeUuAYhk3Xq5/CF9pUjPwp7D/tlRdaILKMhVq3aS3gpwU0RvbTMNrlyGoBjZEjq7+02vppAY2R/TSMdjmyWkBj5MjqL622flpAY2Q/DaNdjqwW0Bg5svpLq62fFtAY2U/DaJcjqwU0Ro6s/tJq66cFNEb20zDa5chqAY2RI6u/tNr6aQGNkf00jHY5slpAY+TI6i+ttn5aQGNkPw2jXY6sFtAYObL6S6utnxbQGNlPw2iXI6sFNEaOrP7SauunBTRG9tMw2uXIagGNkSOrv7Ta+mmB/w/pPoDsMKGjCwAAAABJRU5ErkJggg==;" parent="1" vertex="1">
          <mxGeometry x="600" y="60" width="56.12" height="45.09" as="geometry" />
        </mxCell>
        <mxCell id="GqejX6LDRniWwrAyW8xb-2" value="&lt;b&gt;Docker Image&lt;/b&gt;" style="text;html=1;align=center;verticalAlign=middle;whiteSpace=wrap;rounded=0;" parent="1" vertex="1">
          <mxGeometry x="590" y="40" width="90" height="30" as="geometry" />
        </mxCell>
        <mxCell id="pE_prlQXcP9ckcgieFNt-1" value="" style="rounded=1;whiteSpace=wrap;html=1;fillColor=light-dark(#F8CECC,var(--ge-dark-color, #121212));" vertex="1" parent="1">
          <mxGeometry x="512.3199999999999" y="451" width="170" height="139" as="geometry" />
        </mxCell>
        <mxCell id="pE_prlQXcP9ckcgieFNt-2" value="AIML Predictions" style="rounded=1;whiteSpace=wrap;html=1;fillColor=light-dark(#E6D0DE,var(--ge-dark-color, #121212));" vertex="1" parent="1">
          <mxGeometry x="526" y="540" width="140" height="30" as="geometry" />
        </mxCell>
        <mxCell id="pE_prlQXcP9ckcgieFNt-3" value="Jupyterlab" style="rounded=1;whiteSpace=wrap;html=1;fillColor=light-dark(#FFCCE6,var(--ge-dark-color, #121212));" vertex="1" parent="1">
          <mxGeometry x="532" y="469" width="60" height="20" as="geometry" />
        </mxCell>
        <mxCell id="pE_prlQXcP9ckcgieFNt-4" value="Databricks" style="rounded=1;whiteSpace=wrap;html=1;fillColor=light-dark(#FFCCE6,var(--ge-dark-color, #121212));" vertex="1" parent="1">
          <mxGeometry x="532" y="500" width="60" height="20" as="geometry" />
        </mxCell>
        <mxCell id="pE_prlQXcP9ckcgieFNt-5" value="Snowflake" style="rounded=1;whiteSpace=wrap;html=1;fillColor=light-dark(#FFCCE6,var(--ge-dark-color, #121212));" vertex="1" parent="1">
          <mxGeometry x="606" y="489" width="60" height="20" as="geometry" />
        </mxCell>
        <mxCell id="pE_prlQXcP9ckcgieFNt-6" value="" style="endArrow=classic;startArrow=classic;html=1;rounded=0;exitX=0.394;exitY=0;exitDx=0;exitDy=0;exitPerimeter=0;" edge="1" parent="1">
          <mxGeometry width="50" height="50" relative="1" as="geometry">
            <mxPoint x="576.9200000000001" y="443" as="sourcePoint" />
            <mxPoint x="576" y="415" as="targetPoint" />
          </mxGeometry>
        </mxCell>
        <mxCell id="pE_prlQXcP9ckcgieFNt-11" value="&lt;b&gt;data warehouse&lt;/b&gt;" style="text;html=1;align=center;verticalAlign=middle;whiteSpace=wrap;rounded=0;" vertex="1" parent="1">
          <mxGeometry x="591.66" y="170" width="102" height="30" as="geometry" />
        </mxCell>
        <mxCell id="pE_prlQXcP9ckcgieFNt-13" value="Other RBDMS or Cloud Databses" style="rounded=1;whiteSpace=wrap;html=1;fillColor=light-dark(#E6FFCC,var(--ge-dark-color, #121212));" vertex="1" parent="1">
          <mxGeometry x="585.66" y="130" width="114" height="30" as="geometry" />
        </mxCell>
        <mxCell id="pE_prlQXcP9ckcgieFNt-14" value="" style="endArrow=classic;startArrow=classic;html=1;rounded=0;exitX=0.818;exitY=-0.015;exitDx=0;exitDy=0;exitPerimeter=0;" edge="1" parent="1">
          <mxGeometry width="50" height="50" relative="1" as="geometry">
            <mxPoint x="619.9000000000001" y="229.0625" as="sourcePoint" />
            <mxPoint x="620" y="204" as="targetPoint" />
          </mxGeometry>
        </mxCell>
        <mxCell id="pE_prlQXcP9ckcgieFNt-16" value="" style="endArrow=classic;html=1;rounded=0;entryX=0.415;entryY=0.25;entryDx=0;entryDy=0;entryPerimeter=0;" edge="1" parent="1">
          <mxGeometry width="50" height="50" relative="1" as="geometry">
            <mxPoint x="580" y="303" as="sourcePoint" />
            <mxPoint x="579.99" y="333" as="targetPoint" />
          </mxGeometry>
        </mxCell>
        <mxCell id="pE_prlQXcP9ckcgieFNt-17" style="edgeStyle=orthogonalEdgeStyle;rounded=0;orthogonalLoop=1;jettySize=auto;html=1;exitX=0.5;exitY=1;exitDx=0;exitDy=0;" edge="1" parent="1" source="pE_prlQXcP9ckcgieFNt-13" target="pE_prlQXcP9ckcgieFNt-13">
          <mxGeometry relative="1" as="geometry" />
        </mxCell>
        <mxCell id="pE_prlQXcP9ckcgieFNt-18" value="we can run parallel task as needed" style="text;html=1;align=center;verticalAlign=middle;whiteSpace=wrap;rounded=0;" vertex="1" parent="1">
          <mxGeometry x="426" y="380" width="319" height="30" as="geometry" />
        </mxCell>
      </root>
    </mxGraphModel>
  </diagram>
</mxfile>
